<?xml version="1.0" standalone="no"?>
<!DOCTYPE svg PUBLIC "-//W3C//DTD SVG 1.1//EN" "http://www.w3.org/Graphics/SVG/1.1/DTD/svg11.dtd" >
<svg xmlns="http://www.w3.org/2000/svg" xmlns:xlink="http://www.w3.org/1999/xlink" version="1.1">
<metadata>
Created by FontForge 20181014 at Fri Nov 14 12:54:16 2014
 By convertio
Copyright 2014 by Joel Carrouche. All rights reserved.
</metadata>
<defs>
<font id="Linotte-SemiBold" horiz-adv-x="490" >
  <font-face 
    font-family="Linotte-SemiBold"
    font-weight="400"
    font-stretch="normal"
    units-per-em="1000"
    panose-1="0 0 0 0 0 0 0 0 0 0"
    ascent="758"
    descent="-242"
    x-height="459"
    cap-height="683"
    bbox="-90 -238 1117 925"
    underline-thickness="50"
    underline-position="-100"
    unicode-range="U+000D-1F426"
  />
<missing-glyph horiz-adv-x="668" 
d="M80 0v680h508v-680h-508zM125 635v-590h418v590h-418z" />
    <glyph glyph-name="f_f" unicode="ff" horiz-adv-x="680" 
d="M425 359h-201q0 -28 0.5 -67t1 -109t0.5 -132q0 -57 -53 -57q-54 0 -54 54q0 192 -1 310h-47q-34 0 -48.5 10t-14.5 38q0 49 54 49h57v55q1 98 49.5 159.5t154.5 61.5q72 0 72 -54q0 -19 -10 -32t-26 -13q-8 0 -23.5 2.5t-24.5 1.5q-40 0 -63 -35.5t-23 -83.5
q0 -10 -0.5 -30t-0.5 -31h202q0 47 3.5 82t15.5 75t33.5 65t60 42t92.5 17q34 0 61 -15q20 -12 20 -41q0 -17 -11 -30.5t-26 -13.5q-9 0 -30 3t-32 2q-24 0 -40 -13t-24 -29t-12.5 -45.5t-5 -47.5t-0.5 -51h96q49 0 49 -48q0 -50 -52 -50l-93 1q0 -29 0.5 -69t1 -111.5
t0.5 -132.5q0 -52 -53 -52q-28 0 -41.5 12.5t-13.5 42.5v14v31v50v86v129z" />
    <glyph glyph-name="fi" unicode="fi" horiz-adv-x="588" 
d="M400 457q48 3 64 1q58 -6 56 -67q-1 -59 -1 -342q0 -54 -53 -54q-55 -2 -55 51v313h-24q-27 0 -79.5 -0.5t-81.5 -0.5q0 -48 0.5 -153.5t0.5 -158.5q0 -50 -53 -50q-55 0 -55 49q0 199 1 314l-47 -1q-33 0 -48.5 10.5t-16.5 37.5q0 49 55 49h57v38q4 111 59.5 176.5
t170.5 65.5q53 0 89 -16q33 -13 33 -46q-1 -17 -13 -32t-28 -15q-13 0 -43 6t-51 6q-51 0 -81 -33.5t-31 -87.5v-62q63 0 175 2z" />
    <glyph glyph-name="fl" unicode="fl" horiz-adv-x="616" 
d="M322 357l-96 1q0 -34 0.5 -110.5t0.5 -111.5q0 -17 0.5 -47t0.5 -48q0 -23 -15 -35t-38 -12q-24 0 -39.5 12.5t-14.5 39.5v89q0 31 -0.5 105.5t-0.5 117.5h-63q-49 0 -49 47q-1 22 14 36t42 14h57v45q0 103 61.5 167.5t180.5 64.5q118 0 152 -17q30 -14 30 -64
q-1 -161 -1 -480q0 -5 3 -125q-1 -47 -53 -51q-29 -2 -44 15t-16 60q-6 166 -1 562q-33 4 -88 4q-56 0 -87.5 -39t-31.5 -93v-49h90q27 0 38.5 -12t12.5 -35q0 -51 -45 -51z" />
    <glyph glyph-name="f_f_i" unicode="ffi" horiz-adv-x="894" 
d="M702 457q32 1 63 1t46.5 -18t14.5 -49q-1 -43 -1 -342q0 -54 -53 -54q-54 -2 -54 51v313q-33 0 -94 -0.5t-92 -0.5q0 -49 0.5 -155.5t0.5 -156.5t-53 -50q-54 0 -54 49v314h-203q0 -28 0.5 -67t1 -109t0.5 -132q0 -57 -53 -57q-54 0 -54 54q0 192 -1 310h-46
q-34 0 -48.5 10t-14.5 38q0 49 54 49h56v55q1 98 49.5 159.5t154.5 61.5q72 0 72 -54q0 -19 -10 -32t-26 -13q-9 0 -24.5 2t-23.5 2q-40 0 -63.5 -35.5t-23.5 -83.5v-62h203v44q0 107 57.5 171.5t170.5 64.5q53 0 87 -15q33 -13 32 -47q0 -18 -11 -32.5t-29 -14.5
q-13 0 -41.5 6t-49.5 6q-51 0 -80.5 -34.5t-29.5 -88.5v-59q33 0 87.5 0.5t82.5 0.5z" />
    <glyph glyph-name="f_f_l" unicode="ffl" horiz-adv-x="914" 
d="M624 358h-95q0 -151 1 -310q0 -54 -52 -54q-55 0 -55 51v314h-199q0 -21 1 -119t1 -190q0 -56 -53 -56q-54 0 -54 53q0 193 -1 311h-47q-34 0 -48.5 10t-14.5 38q0 17 7 27.5t25 14.5t32.5 5t46.5 1v55q1 97 49 157t153 60q72 0 72 -52q0 -19 -10 -32.5t-26 -13.5
q-10 0 -24 1.5t-22 1.5q-21 0 -36.5 -7.5t-24.5 -23t-15 -29.5t-8 -38.5t-2.5 -38.5t-0.5 -39h199v46q0 102 64 166.5t182 64.5q115 0 145 -15q30 -13 30 -65q-2 -308 -2 -461q0 -18 1.5 -59.5t0.5 -62.5q0 -23 -3 -43q-7 -32 -48 -32q-32 0 -46.5 21.5t-14.5 77.5
q-3 160 -1 539q-32 4 -81 4q-56 0 -89 -37.5t-33 -93.5v-50h89q27 0 38.5 -11.5t12.5 -35.5q1 -21 -10 -35.5t-34 -14.5z" />
    <glyph glyph-name="f_f_j" unicode="ffj" horiz-adv-x="897" 
d="M720 358h-188q0 -49 0.5 -155.5t0.5 -156.5t-53 -50q-54 0 -54 49v314h-203q0 -28 0.5 -67t1 -109t0.5 -132q0 -57 -53 -57q-54 0 -54 54q0 192 -1 310h-46q-34 0 -48.5 10t-14.5 38q0 48 54 48l56 1v55q1 98 49.5 159.5t154.5 61.5q72 0 72 -54q0 -19 -10 -32t-26 -13
q-9 0 -24.5 2t-23.5 2q-40 0 -63.5 -35.5t-23.5 -83.5v-62h203v44q0 107 57.5 171.5t170.5 64.5q52 0 87 -14q33 -13 33 -47q-1 -18 -12.5 -32.5t-28.5 -14.5q-13 0 -41.5 5.5t-49.5 5.5q-51 0 -80.5 -34.5t-29.5 -88.5v-59q33 0 88 0.5t83 0.5q32 1 46 1q43 0 61 -21
t18 -71v-398q0 -106 -43.5 -154t-127.5 -48q-93 0 -93 58q0 37 26 48q12 4 26 2q3 0 16.5 -2t23.5 -2q18 0 30.5 8.5t19 19.5t10 33t4 38t0.5 46v343z" />
    <glyph glyph-name="f_j" unicode="fj" horiz-adv-x="595" 
d="M409 457q48 3 64 1q54 -6 54 -72l-1 -418q0 -106 -43.5 -154t-127.5 -48q-93 0 -93 58q0 36 27 48q11 4 26 2q3 0 16 -2t24 -2q18 0 30.5 8.5t19 19.5t9.5 32.5t3.5 38.5t0.5 46v344l-192 -1q0 -49 0.5 -155.5t0.5 -156.5t-53 -50q-55 0 -55 49q0 199 1 314
q-8 0 -24 -0.5t-23 -0.5q-33 0 -48.5 10.5t-16.5 37.5q0 15 6 24.5t14 14.5t25.5 7.5t29.5 3t37 0.5v46q2 106 60 169.5t164 62.5q65 0 93 -14q31 -14 31 -48q0 -19 -12 -32.5t-30 -13.5q-15 0 -42.5 5.5t-46.5 5.5q-49 0 -80 -35t-32 -91v-55q127 0 184 1z" />
    <glyph glyph-name=".notdef" horiz-adv-x="668" 
d="M80 0v680h508v-680h-508zM125 635v-590h418v590h-418z" />
    <glyph glyph-name=".null" horiz-adv-x="0" 
 />
    <glyph glyph-name="nonmarkingreturn" horiz-adv-x="333" 
 />
    <glyph glyph-name="NULL" horiz-adv-x="0" 
 />
    <glyph glyph-name="CR" unicode="&#xd;" horiz-adv-x="250" 
 />
    <glyph glyph-name="space" unicode=" " horiz-adv-x="244" 
 />
    <glyph glyph-name="exclam" unicode="!" horiz-adv-x="245" 
d="M72 404l-9 228q-1 25 14 39.5t44 14.5q33 0 45.5 -17t11.5 -58q0 -107 -11 -353q-3 -43 -45 -43q-40 0 -43 49zM120 -6q-27 0 -45.5 17t-18.5 44q0 29 19.5 49t47.5 20q29 0 47.5 -17.5t18.5 -45.5q0 -31 -19 -49t-50 -18z" />
    <glyph glyph-name="quotedbl" unicode="&#x22;" horiz-adv-x="347" 
d="M44 666q0 49 51 49q20 0 32.5 -13t12.5 -34q0 -17 -6 -146q-3 -44 -42 -44q-38 0 -41 38q-1 22 -4 82.5t-3 67.5zM208 674q0 19 14 30t34 11t33.5 -11.5t12.5 -29.5q0 -12 -6 -147q-3 -47 -42 -47q-40 0 -41 36q0 19 -2.5 77t-2.5 81z" />
    <glyph glyph-name="numbersign" unicode="#" horiz-adv-x="622" 
d="M317 48l18 111h-116l-16 -108q-8 -55 -54 -55q-24 0 -36 13.5t-8 38.5l18 111h-61q-40 0 -38 47q0 45 50 45h63l25 156h-62q-39 0 -39 47q2 46 52 46h64l21 130q7 52 53 52q21 0 33.5 -12t9.5 -33l-22 -137h117l21 131q8 51 53 51q21 0 33 -12t9 -33l-22 -137h70
q41 0 41 -47q0 -45 -55 -46h-70l-25 -156h71q41 0 39 -46q-1 -46 -56 -46h-68l-17 -108q-4 -29 -16 -42t-35 -13q-52 0 -45 52zM258 407l-25 -156h116l25 156h-116z" />
    <glyph glyph-name="dollar" unicode="$" horiz-adv-x="529" 
d="M227 726q0 21 11.5 32t29.5 11q43 0 43 -42v-58q69 -7 124 -34q31 -16 31 -48q0 -17 -13.5 -32.5t-31.5 -15.5q-14 0 -45 13q-52 22 -104 22q-46 0 -81 -28t-35 -66q0 -20 9 -34.5t28 -24t36.5 -14.5t46.5 -12q6 -1 9 -2q96 -21 148 -62t52 -124q0 -78 -46.5 -130.5
t-125.5 -67.5l1 -63q0 -44 -44 -44q-43 0 -43 39v64q-89 4 -146 37q-40 22 -40 54q0 21 14 37t33 16q14 0 43 -11q62 -33 125 -33q52 0 87 26.5t36 70.5q0 41 -32.5 62.5t-91.5 34.5q-45 10 -77.5 22t-63.5 31.5t-47 50t-16 71.5q0 70 51 123.5t125 68.5v60z" />
    <glyph glyph-name="percent" unicode="%" horiz-adv-x="795" 
d="M530 652q11 18 27.5 24t33.5 -2q39 -22 15 -63q-6 -12 -64.5 -103.5t-89.5 -146.5q-26 -47 -66 -114l-40 -67l-95 -162q-9 -16 -27.5 -20.5t-33.5 4.5q-16 8 -20.5 24t6.5 34l181 294zM28 491q0 79 38 134.5t110 55.5q69 0 110.5 -50t41.5 -130q0 -78 -44.5 -126.5
t-108.5 -48.5q-59 0 -103 46.5t-44 118.5zM176 606q-67 0 -67 -108q0 -41 17.5 -69t47.5 -28q33 0 52.5 29t19.5 75t-18 73.5t-52 27.5zM463 158q0 79 38.5 132t111.5 53q70 0 111.5 -49t41.5 -129q0 -78 -43.5 -125.5t-110.5 -47.5q-61 0 -105 47t-44 119zM614 272
q-36 0 -53 -31.5t-17 -79.5q0 -44 17 -70.5t50 -26.5q36 0 54.5 26t17.5 74q-2 108 -69 108z" />
    <glyph glyph-name="ampersand" unicode="&#x26;" horiz-adv-x="661" 
d="M402 625q0 -17 -11.5 -31.5t-28.5 -14.5q-3 0 -31 7q-24 11 -54 11q-36 0 -60 -23.5t-24 -59.5q0 -27 12.5 -54t23 -40t29.5 -34q83 -91 207 -194q12 22 12 44q1 31 -13.5 60t-39.5 35q-44 8 -44 45q0 44 51 44q7 0 26.5 -0.5t24.5 -0.5t100 4q49 0 49 -40q0 -36 -30 -42
q-23 -6 -71 -6q16 -13 27 -43t11 -59q0 -51 -25 -103q24 -18 70 -50q26 -19 26 -39q0 -18 -13 -33.5t-32 -15.5q-26 0 -47 16q-34 23 -65 48q-74 -66 -194 -66q-104 0 -175.5 58.5t-71.5 150.5q0 114 105 181q-48 68 -48 133q0 71 51 123t133 52q56 0 90 -20q30 -17 30 -43z
M290 86q70 0 112 37q-61 52 -189 182l-11 11q-59 -40 -59 -110q0 -52 42 -86t105 -34z" />
    <glyph glyph-name="quotesingle" unicode="'" horiz-adv-x="192" 
d="M46 668q0 45 52 45q48 0 48 -49q0 -45 -7 -136q-3 -50 -45 -50q-40 0 -43 42q-5 132 -5 148z" />
    <glyph glyph-name="parenleft" unicode="(" horiz-adv-x="290" 
d="M180 689q24 33 52 33q18 0 32 -13.5t14 -31.5q0 -12 -5 -22q-34 -58 -54.5 -101.5t-40 -123.5t-19.5 -167q0 -116 27.5 -201t79.5 -179q10 -17 10 -30q0 -18 -15 -32t-35 -14q-19 0 -29.5 9t-24.5 33q-121 203 -120 412q1 232 128 428z" />
    <glyph glyph-name="parenright" unicode=")" horiz-adv-x="291" 
d="M111 689q127 -196 128 -428q1 -209 -120 -412q-14 -24 -24.5 -33t-29.5 -9q-20 0 -35 14t-15 32q0 13 10 30q34 61 53.5 105.5t36.5 119t17 155.5q0 87 -19.5 167t-40 123.5t-54.5 101.5q-5 10 -5 22q0 18 14 31.5t32 13.5q28 0 52 -33z" />
    <glyph glyph-name="asterisk" unicode="*" horiz-adv-x="368" 
d="M131 495l-73 15q-32 6 -32 37q1 16 13 25t29 4l84 -22l-2 89q-2 35 34 35q17 0 27 -8.5t9 -25.5l-3 -91l83 29q15 5 27.5 -4.5t12.5 -27.5q0 -27 -25 -33l-78 -22l61 -74q10 -11 10 -24t-10.5 -22.5t-24.5 -9.5q-19 0 -36 27l-53 74l-45 -72q-16 -28 -38 -28
q-14 0 -24 8.5t-10 21.5t9 25z" />
    <glyph glyph-name="plus" unicode="+" 
d="M61 223q-23 0 -34.5 14.5t-9.5 37.5q1 41 54 41h129v156q0 22 13.5 33.5t33.5 11.5q45 0 45 -51v-152q24 0 74 0.5t62 0.5q45 0 45 -45t-49 -46h-32h-56h-45v-57q0 -26 0.5 -58.5t0.5 -39.5q0 -43 -50 -41q-42 0 -42 48v148q-27 0 -79.5 -0.5t-59.5 -0.5z" />
    <glyph glyph-name="comma" unicode="," horiz-adv-x="219" 
d="M34 -71q0 11 16 31t21 32q7 9 -9.5 27.5t-16.5 38.5q0 27 19 45.5t47 18.5q29 0 48.5 -19.5t19.5 -49.5q0 -84 -82 -143q-15 -11 -32 -11q-11 0 -21 8.5t-10 21.5z" />
    <glyph glyph-name="hyphen" unicode="-" horiz-adv-x="358" 
d="M85 190q-24 0 -36.5 14t-12.5 36q0 50 54 50h183q49 0 49 -49q0 -52 -61 -52q-30 0 -90.5 0.5t-85.5 0.5z" />
    <glyph glyph-name="period" unicode="." horiz-adv-x="219" 
d="M106 -5q-29 0 -47.5 18.5t-18.5 46.5q0 30 20 49.5t51 19.5q29 0 48.5 -19t19.5 -48q0 -31 -20 -49t-53 -18z" />
    <glyph glyph-name="slash" unicode="/" horiz-adv-x="391" 
d="M273 675q13 37 46 37q18 0 35.5 -12t17.5 -29q0 -16 -12 -48l-244 -615q-13 -35 -42 -35q-19 0 -37.5 12t-18.5 29q0 14 10 41z" />
    <glyph glyph-name="zero" unicode="0" horiz-adv-x="625" 
d="M49 311q0 101 26.5 183t88.5 136t151 54q122 0 191.5 -95.5t69.5 -254.5q0 -157 -76 -248.5t-188 -91.5q-111 0 -187 87.5t-76 229.5zM314 583q-45 0 -77 -23t-48.5 -63.5t-23.5 -83.5t-7 -93q0 -92 40.5 -158t110.5 -66q72 0 116.5 63t44.5 171q0 107 -41 180t-115 73z
" />
    <glyph glyph-name="one" unicode="1" horiz-adv-x="424" 
d="M120 470q-16 -11 -34 -11q-17 0 -31.5 16.5t-14.5 34.5q0 25 28 48q97 71 128 92t49 26q21 9 42 1q31 -11 31 -41q0 -129 -1 -197v-397q0 -22 -16 -34t-40 -12q-23 0 -38 13.5t-15 38.5q0 33 2 162t2 205q0 21 0.5 65t0.5 63q-44 -37 -93 -73z" />
    <glyph glyph-name="two" unicode="2" horiz-adv-x="545" 
d="M256 580q-57 0 -110 -53q-25 -25 -54 -25q-20 0 -34.5 15t-14.5 36q0 31 42 66q75 67 168 67q98 1 167.5 -56.5t69.5 -150.5q0 -23 -3 -42.5t-15 -40.5t-17.5 -32.5t-28 -35.5t-29 -30.5t-38 -36t-37.5 -35.5l-132 -124q43 -1 167 1q30 0 100 2q22 0 35.5 -15.5
t13.5 -37.5q0 -56 -56 -54q-14 0 -57 0.5t-62 0.5q-134 0 -231 1q-27 0 -43 16.5t-16 43.5q0 38 41 78l182 174l19 18q14 15 18.5 20t16.5 18t16.5 19t13.5 17t12.5 18.5t8.5 17.5t6.5 19t1.5 18q0 45 -34 74t-87 29z" />
    <glyph glyph-name="three" unicode="3" horiz-adv-x="537" 
d="M381 219q0 54 -40 81.5t-99 27.5q-17 0 -38 -1q-22 0 -36.5 15.5t-14.5 37.5q0 24 24 48q39 36 155 154q-25 -1 -112 -2.5t-111 -1.5q-56 0 -56 50q0 22 13.5 37t38.5 15q4 0 47.5 -1t69.5 -1q33 0 102.5 1t102.5 1q54 0 54 -50q0 -30 -35 -61l-154 -157q80 -2 139 -53
t60 -134q0 -109 -65 -171t-176 -63q-91 0 -168 44q-41 24 -41 56q0 23 14.5 38.5t32.5 15.5t53 -19q61 -33 110 -33q57 0 93.5 34t36.5 92z" />
    <glyph glyph-name="four" unicode="4" horiz-adv-x="575" 
d="M343 360q0 60 48 60q28 0 40 -12t14 -38l-1 -135l70 1q49 1 49 -46q0 -55 -46 -55h-73v-92q-1 -24 -12.5 -36t-38.5 -13q-52 0 -52 49q0 17 0.5 45.5t0.5 46.5q-38 0 -127 -0.5t-124 -0.5q-29 0 -44.5 18.5t-15.5 42.5q0 38 23 74q87 151 205 378q20 36 54 36
q22 0 41.5 -14.5t19.5 -32.5q0 -12 -8 -31q-25 -48 -72.5 -128t-64.5 -110l-73 -135l186 2z" />
    <glyph glyph-name="five" unicode="5" horiz-adv-x="550" 
d="M102 623q4 25 21 41t43 16h257q53 0 53 -52q0 -51 -57 -51l-220 4l-5 -39l-22 -136q53 30 116 30q99 0 158.5 -58t59.5 -147q0 -104 -65.5 -171t-175.5 -67q-94 0 -172 44q-27 14 -36.5 27.5t-9.5 31.5q0 21 15 38t37 17q14 0 44 -17q68 -36 122 -36q53 0 90.5 34
t37.5 90q0 51 -32 83.5t-88 32.5q-35 0 -84.5 -19t-65.5 -19q-27 -1 -47 16t-16 43q5 40 21 136.5t21 127.5z" />
    <glyph glyph-name="six" unicode="6" horiz-adv-x="579" 
d="M322 582q-62 0 -107 -53t-48 -132q-1 -10 -1 -30q21 31 66 50.5t88 19.5q93 0 157 -53t64 -156t-66.5 -168.5t-174.5 -65.5q-97 0 -160 56.5t-79 161.5q-7 51 -7 116q0 157 74.5 257t197.5 100q80 0 137 -27q38 -17 38 -51q0 -21 -13.5 -36.5t-33.5 -15.5q-8 0 -41 11
q-48 16 -91 16zM301 344q-59 -1 -95.5 -33t-36.5 -88q-1 -56 37.5 -92t94.5 -36q58 0 95.5 36t37.5 97q0 56 -36 86t-97 30z" />
    <glyph glyph-name="seven" unicode="7" horiz-adv-x="525" 
d="M198 579q-24 0 -62 -1t-53 -1q-55 0 -55 54q0 24 15 36t38 12h365q26 0 39 -14t13 -36q0 -26 -31 -73q-66 -92 -119 -194.5t-79 -181.5q-27 -84 -38 -134q-6 -26 -18 -37.5t-41 -11.5q-61 0 -55 59q5 36 43 145q69 195 200 379q-38 1 -86.5 0t-75.5 -1z" />
    <glyph glyph-name="eight" unicode="8" horiz-adv-x="581" 
d="M516 501q0 -50 -26 -89.5t-68 -56.5q51 -16 83.5 -55t33.5 -93q1 -104 -67.5 -159.5t-177.5 -55.5q-111 0 -180.5 52.5t-69.5 144.5q0 60 32.5 102.5t87.5 61.5q-35 15 -62 54t-27 86q0 88 65 141t153 53q92 0 157.5 -52.5t65.5 -133.5zM297 310q-60 0 -101 -29.5
t-40 -84.5q1 -51 36.5 -78t95.5 -27q65 0 102.5 30t36.5 83q0 48 -37.5 76.5t-92.5 29.5zM182 490q1 -42 33 -68.5t80 -26.5q49 0 80.5 29.5t30.5 76.5q0 38 -32.5 65t-79.5 27q-48 0 -80.5 -28t-31.5 -75z" />
    <glyph glyph-name="nine" unicode="9" horiz-adv-x="582" 
d="M263 101q73 0 117 55t43 158q-21 -32 -64 -53.5t-93 -21.5q-89 0 -156.5 57t-67.5 160q0 99 71.5 164.5t174.5 65.5q117 -1 181 -83.5t64 -236.5q0 -194 -67.5 -283t-207.5 -89q-83 0 -147 33q-35 19 -35 53q0 21 13.5 38t33.5 17q13 0 45 -13q55 -21 95 -21zM285 334
q56 -1 94 33t38 90t-39.5 92.5t-94.5 36.5q-53 0 -92 -36t-39 -95q0 -56 36.5 -88.5t96.5 -32.5z" />
    <glyph glyph-name="colon" unicode=":" horiz-adv-x="219" 
d="M106 326q-29 0 -47.5 18.5t-18.5 46.5q0 30 20 49.5t51 19.5q29 0 48.5 -19t19.5 -48q0 -31 -20 -49t-53 -18zM106 -5q-29 0 -47.5 18.5t-18.5 46.5q0 30 20 49.5t51 19.5q29 0 48.5 -19t19.5 -48q0 -31 -20 -49t-53 -18z" />
    <glyph glyph-name="semicolon" unicode=";" horiz-adv-x="219" 
d="M34 -71q0 11 16.5 31t21.5 32q7 9 -9.5 27.5t-16.5 38.5q0 27 18.5 45.5t46.5 18.5q29 0 49 -19.5t20 -49.5q0 -83 -82 -143q-15 -11 -33 -11q-11 0 -21 8.5t-10 21.5zM107 326q-29 0 -47.5 18.5t-18.5 46.5q0 30 20 49.5t51 19.5q29 0 48.5 -19t19.5 -48q0 -31 -20 -49
t-53 -18z" />
    <glyph glyph-name="less" unicode="&#x3c;" 
d="M429 421l-291 -155q32 -17 153.5 -75t149.5 -75q15 -13 15 -29q0 -17 -12 -33.5t-30 -16.5q-20 0 -36 9l-305 162q-40 19 -40 60q0 36 40 59q70 43 297 163q19 11 35 11q17 0 29.5 -16.5t12.5 -35.5q0 -17 -18 -28z" />
    <glyph glyph-name="equal" unicode="=" 
d="M73 323q-22 0 -32.5 15t-10.5 35q0 23 14.5 35.5t39.5 12.5q8 0 59 -0.5t80 -0.5h192q44 0 44 -48t-54 -49h-332zM73 114q-23 0 -33 15t-10 35q0 47 54 47q8 0 59 -0.5t80 -0.5q39 0 110 0.5t82 0.5q44 0 44 -49q0 -47 -54 -48h-332z" />
    <glyph glyph-name="greater" unicode="&#x3e;" 
d="M60 421q-18 11 -18 28q0 19 12.5 35.5t29.5 16.5q16 0 35 -11q227 -120 297 -163q40 -23 40 -59q0 -41 -40 -60l-305 -162q-17 -9 -36 -9q-18 0 -30 16.5t-12 33.5q0 16 15 29q28 17 149.5 75t153.5 75z" />
    <glyph glyph-name="question" unicode="?" horiz-adv-x="487" 
d="M36 580q0 27 29 47q80 60 169 60t152 -54t63 -138q0 -32 -11.5 -59t-35.5 -48.5t-41.5 -34t-47.5 -29.5q-47 -27 -47 -62q-1 -8 1.5 -14t2.5 -14q0 -20 -13.5 -32t-36.5 -12q-29 0 -46 22t-17 58q0 68 79 114q28 16 39 23t30.5 22.5t27 30.5t7.5 34q0 41 -31 67.5
t-77 26.5q-48 0 -97 -36q-31 -23 -51 -23q-18 0 -33 16.5t-15 34.5zM150 55q0 28 20.5 46.5t50.5 18.5t49 -18t19 -46q0 -31 -20 -47.5t-50 -16.5q-31 0 -50 17t-19 46z" />
    <glyph glyph-name="at" unicode="@" horiz-adv-x="931" 
d="M661 275l-10 -108q-9 -94 48 -94q46 0 70.5 59t24.5 151q0 117 -86 193t-224 76q-149 0 -248 -112.5t-99 -273.5q0 -128 89 -215t217 -88q83 -1 162 32q27 10 37 10q17 0 29 -14.5t12 -32.5q0 -24 -24 -37q-96 -48 -214 -48q-165 0 -282.5 110.5t-117.5 280.5
q0 127 53.5 234t157.5 173t238 66q169 0 280 -104.5t111 -246.5q0 -144 -51 -220.5t-146 -76.5q-42 0 -72.5 24t-37.5 65q-18 -34 -56 -56.5t-80 -22.5q-78 0 -129 50t-51 124q0 92 54.5 157t147.5 65q34 0 65.5 -17t48.5 -44q2 10 7 30q13 27 41 27q24 0 35.5 -14.5
t8.5 -37.5zM467 313q-50 0 -80 -37.5t-30 -91.5q0 -44 28 -72t69 -28q52 0 81 37.5t29 95.5q0 43 -29.5 69.5t-67.5 26.5z" />
    <glyph glyph-name="A" unicode="A" horiz-adv-x="649" 
d="M21 48q0 21 17 57l99 230l123 307q16 39 62 39q52 0 67 -41q17 -41 65.5 -165.5t66.5 -168.5q1 -2 6.5 -13.5t7.5 -17.5q50 -125 82 -198q9 -20 9 -36q0 -17 -18 -31.5t-43 -14.5q-22 0 -34 8.5t-21 30.5q-50 127 -52 137q-35 1 -173 1h-98q-4 -10 -22.5 -59.5
t-27.5 -70.5q-10 -24 -20.5 -35t-31.5 -11q-26 0 -45 13t-19 39zM324 546q-14 -42 -106 -286q125 0 207 2z" />
    <glyph glyph-name="B" unicode="B" horiz-adv-x="604" 
d="M305 680q96 0 158.5 -50t63.5 -134q0 -51 -25 -89.5t-65 -56.5q57 -13 92 -52t35 -98q0 -88 -48 -138t-131 -58q-44 -5 -172 -5h-78q-54 0 -57 65l1 179v203q0 30 -1.5 86t-1.5 86q0 23 14 38.5t39 18.5q38 5 176 5zM319 293l-131 -2l1 -198h131q59 0 96.5 25t37.5 76
q0 99 -135 99zM421 493q-1 44 -34 67.5t-84 24.5q-66 0 -116 -2q0 -31 1 -203q10 0 55.5 0.5t65.5 0.5q52 1 82 31t30 81z" />
    <glyph glyph-name="C" unicode="C" horiz-adv-x="609" 
d="M520 657q50 -22 50 -56q-1 -24 -13 -39.5t-35 -14.5q-18 0 -44 13q-56 24 -112 24q-83 0 -146 -71.5t-64 -181.5q-1 -99 62 -167t152 -68q64 -1 122 33q4 2 10.5 6t10 5.5t10 3t13.5 1.5q20 0 32 -18t12 -40q-1 -36 -71 -66.5t-150 -29.5q-128 2 -221.5 93.5t-92.5 242.5
q1 81 29.5 150t75.5 113.5t105 69.5t119 25q84 -2 146 -28z" />
    <glyph glyph-name="D" unicode="D" horiz-adv-x="681" 
d="M74 612q0 69 102 69h118q149 -5 248 -88t99 -231q0 -359 -380 -362q-100 0 -133 3q-23 2 -38 19.5t-15 43.5l2 241zM276 581q-66 0 -89 -2v-455q0 -17 12 -20t55 -3q277 0 277 250q0 114 -73 172t-182 58z" />
    <glyph glyph-name="E" unicode="E" horiz-adv-x="546" 
d="M85 628q3 51 71 51q29 0 44 -1q72 0 152 1t95 1q54 0 54 -45q2 -42 -31 -50q-22 -1 -231 -1h-44v-96l-1 -94v-13h40q48 0 162 3q32 0 47 -9.5t14 -38.5q0 -47 -52 -47q-23 0 -108.5 -0.5t-104.5 -0.5q-1 -20 -1 -64q0 -20 -0.5 -63t-0.5 -64q40 -1 228 1q40 2 49 2
q44 0 44 -49q0 -52 -56 -53h-269q-63 0 -83.5 11.5t-22.5 51.5v37q0 1 0.5 16t1 42t1 60.5t1 79t0.5 89.5q0 40 0.5 121t0.5 122z" />
    <glyph glyph-name="F" unicode="F" horiz-adv-x="529" 
d="M83 236l1 258l-3 122q-1 26 15 44.5t41 18.5q7 0 26 -0.5t28 -0.5q145 0 228 2q8 0 23 0.5t21 0.5q19 0 30.5 -13t11.5 -33q0 -50 -43 -53h-57q-7 0 -76.5 0.5t-135.5 0.5v-113v-100h89l145 2q21 0 32.5 -14t11.5 -37q0 -48 -51 -50q-21 0 -71.5 1t-70.5 1
q-14 0 -43 -0.5t-44 -0.5v-84l1 -135q0 -56 -54 -56q-32 0 -45 13.5t-13 45.5q0 6 1 33t1 40q0 21 0.5 53t0.5 54z" />
    <glyph glyph-name="G" unicode="G" horiz-adv-x="713" 
d="M388 687q108 0 192 -52q35 -21 35 -47q0 -20 -13 -36.5t-33 -16.5t-53 19q-58 35 -132 35q-87 0 -156.5 -71.5t-69.5 -171.5q0 -117 61.5 -184.5t163.5 -67.5q81 0 130.5 55t51.5 129h-113q-21 1 -32.5 14.5t-11.5 33.5q0 46 47 47h156q37 0 50.5 -19t13.5 -57
q-1 -134 -83.5 -219.5t-219.5 -85.5q-140 0 -232.5 96.5t-92.5 250.5q0 147 101.5 247.5t239.5 100.5z" />
    <glyph glyph-name="H" unicode="H" horiz-adv-x="702" 
d="M620 334l4 -290q0 -49 -58 -49q-56 0 -56 49v84l-1 149q-50 0 -156.5 -1t-161.5 -1l2 -234q0 -46 -59 -46q-55 0 -55 47q0 40 1.5 165t0.5 193l-4 229q0 51 59 51q54 0 54 -43v-106q0 -75 1 -154q1 0 31.5 -0.5t64.5 -0.5q26 0 85.5 0.5t86.5 0.5l51 1q0 45 -0.5 134
t-0.5 116q1 55 57 55q55 0 55 -54q0 -164 -1 -295z" />
    <glyph glyph-name="I" unicode="I" horiz-adv-x="286" 
d="M89 411q0 45 -2 219q0 27 16.5 40t41.5 13q24 0 39 -12.5t15 -35.5v-243q0 -24 -0.5 -82t-0.5 -76l1 -183q1 -28 -14.5 -41.5t-41.5 -13.5q-25 0 -41 13t-16 39q0 12 0.5 42.5t0.5 46.5z" />
    <glyph glyph-name="J" unicode="J" horiz-adv-x="487" 
d="M295 329l-6 301q-1 25 14.5 40t40.5 15q60 0 60 -53q0 -42 2 -129.5t2 -133.5q0 -81 -1 -119q-7 -257 -226 -257q-41 0 -78.5 16t-58.5 34q-28 25 -28 53q0 22 13.5 37t34.5 15q19 0 56 -28q29 -23 65 -23q67 0 88.5 57t21.5 175z" />
    <glyph glyph-name="K" unicode="K" horiz-adv-x="616" 
d="M191 351q150 165 262 301q26 31 52 31q22 0 40 -16.5t18 -35.5q0 -22 -19 -44q-41 -47 -170 -183l-35 -39l143 -171l84 -97q23 -23 23 -48q0 -23 -19 -39.5t-42 -16.5q-27 0 -47 26q-2 2 -30 38l-186 240q-13 -15 -40 -42t-36 -37l1 -176q0 -46 -56 -48q-26 0 -41.5 13
t-15.5 36q0 9 0.5 33.5t0.5 42.5q0 93 1 253t1 257q0 54 57 54q55 0 55 -50q0 -49 -0.5 -144t-0.5 -138z" />
    <glyph glyph-name="L" unicode="L" horiz-adv-x="502" 
d="M81 631q1 24 18 37.5t42 13.5q51 0 52 -51q0 -29 -0.5 -64t-1.5 -78.5t-1 -68.5q0 -31 -0.5 -94t-0.5 -93q0 -48 -0.5 -79t-0.5 -43v-13q82 0 106 1l143 5q49 0 49 -47q0 -57 -52 -57l-114 1q-100 0 -141 -2q-57 -2 -77.5 10.5t-24.5 53.5v38q0 42 2.5 126.5t2.5 119.5
q0 48 -0.5 150t-0.5 134z" />
    <glyph glyph-name="M" unicode="M" horiz-adv-x="856" 
d="M215 495q-9 -73 -30 -253.5t-24 -201.5q-8 -45 -56 -45q-26 0 -41.5 16.5t-11.5 41.5q10 61 82 588q6 20 27.5 30t45.5 9q41 0 60 -55l144 -413q12 -35 14 -43l9 24q33 81 164 428q23 52 52 60q19 2 29 1q35 -2 46 -22q7 -24 18 -111.5t30.5 -251.5t29.5 -246
q2 -27 -14 -42t-41 -15q-49 0 -55 46q-3 24 -44 449l-162 -424q-19 -48 -67 -47q-17 0 -28.5 8.5t-16 16.5t-12.5 26z" />
    <glyph glyph-name="N" unicode="N" horiz-adv-x="713" 
d="M188 58q0 -62 -53 -62q-57 0 -58 50q0 61 1 250v224v110q0 23 20 36.5t47 13.5q22 0 37.5 -12.5t33.5 -37.5l233 -329l80 -114q-2 104 -2 203l-2 220q-1 35 11.5 52.5t45.5 17.5q53 0 53 -64q0 -55 -0.5 -168t-0.5 -167q2 -108 2 -231q0 -24 -19 -38.5t-47 -14.5
q-21 0 -34.5 11t-33.5 38l-318 455q0 -31 4 -443z" />
    <glyph glyph-name="O" unicode="O" horiz-adv-x="745" 
d="M375 686q135 0 232 -96t97 -243q0 -150 -94.5 -253.5t-237.5 -103.5q-130 0 -228.5 92.5t-98.5 240.5q0 161 100.5 263t229.5 100zM593 345q-1 105 -68 172t-159 67q-86 0 -148 -71.5t-62 -179.5q0 -106 64 -172t158 -66q90 0 153 75t62 175z" />
    <glyph glyph-name="P" unicode="P" horiz-adv-x="577" 
d="M80 422q0 60 -2 120q0 81 2 92q11 41 58 44q15 1 154 4q104 0 172 -45q89 -59 88 -180q-2 -73 -47 -134.5t-117 -78.5q-34 -9 -166 -9h-32q0 -29 1 -91.5t1 -99.5q0 -50 -58 -50q-27 0 -41.5 12.5t-14.5 33.5q1 64 1.5 189.5t0.5 192.5zM191 418q0 -13 0.5 -40.5
t0.5 -42.5h48q84 -2 117 7q39 9 62 44t24 77q1 71 -56 101q-37 19 -101 19q-75 0 -96 -1q0 -16 0.5 -72.5t0.5 -91.5z" />
    <glyph glyph-name="Q" unicode="Q" horiz-adv-x="760" 
d="M364 -9l-24 3q-54 9 -103 32t-92.5 62t-69 102t-25.5 143q0 139 91.5 243.5t220.5 108.5q6 2 12 2q139 0 236.5 -91.5t98.5 -237.5q1 -120 -44.5 -199t-113.5 -118q-11 -9 -31 -17q12 -8 35.5 -25.5t37 -26t34.5 -16.5t41 -8q23 0 39 8.5t23.5 18t18 18t23.5 8.5
q24 0 39 -14t15 -38q0 -47 -50.5 -81.5t-111.5 -33.5q-29 0 -61.5 14t-54 29t-60.5 44.5t-59 43.5q-32 23 -65 26zM594 346q0 112 -67 174.5t-159 62.5q-80 0 -142.5 -73t-62.5 -174q0 -107 64.5 -175t170.5 -69q94 10 145 79t51 175z" />
    <glyph glyph-name="R" unicode="R" horiz-adv-x="609" 
d="M80 613q0 62 79 65q50 2 87 2q47 0 75 -1q103 -4 165.5 -60t62.5 -152q0 -68 -36.5 -119t-95.5 -71l142 -193q15 -20 15 -37q0 -21 -17.5 -36t-40.5 -15q-24 -1 -48 28l-154 225h-124q0 -28 0.5 -99t0.5 -94q0 -57 -47 -59q-36 -1 -50 12.5t-13 47.5q1 64 1 455
q0 16 -1 50.5t-1 50.5zM297 585q-56 0 -108 -2l1 -240h100q67 0 107.5 29.5t41.5 93.5q1 57 -36.5 88t-105.5 31z" />
    <glyph glyph-name="S" unicode="S" horiz-adv-x="568" 
d="M469 651q33 -16 33 -50q0 -18 -14 -34.5t-34 -16.5q-14 0 -48 13q-52 24 -112 24q-52 0 -88.5 -29t-36.5 -72q0 -18 8.5 -31.5t18 -21.5t32 -16t35 -11t42.5 -10q105 -23 161.5 -64.5t56.5 -128.5q0 -95 -68 -152.5t-175 -58.5q-108 0 -190 40q-41 20 -41 55q0 22 14 39
t35 17q14 0 45 -11q72 -36 136 -36q58 0 95 28t37 75q0 44 -36.5 66.5t-102.5 35.5q-47 10 -82 22t-67 32t-49 51.5t-17 72.5q0 88 71.5 148t168.5 60t172 -36z" />
    <glyph glyph-name="T" unicode="T" horiz-adv-x="574" 
d="M295 678q16 0 104.5 1t111.5 1q50 0 50 -46q0 -54 -53 -54h-166v-50q0 -99 4 -475q0 -59 -60 -59q-53 0 -52 55l2 368q0 43 -2 161q-39 -1 -174 -1q-47 0 -47 51q0 21 12 34.5t37 14.5q7 0 30.5 -0.5t75.5 -0.5h127z" />
    <glyph glyph-name="U" unicode="U" horiz-adv-x="688" 
d="M76 279q0 67 1 186v157q0 55 53 55q32 0 45 -13.5t13 -43.5q-1 -61 -1 -340q0 -92 42 -137.5t119 -45.5q70 0 112.5 52t43.5 132q2 12 0.5 171t-1.5 174q0 53 57 53q29 0 42 -15t13 -49l2 -311q0 -144 -73 -227t-203 -83q-122 0 -193.5 75t-71.5 210z" />
    <glyph glyph-name="V" unicode="V" horiz-adv-x="650" 
d="M36 582q-14 42 -14 49q0 23 20 37.5t44 14.5q37 0 50 -35l38 -103l152 -398q6 14 17.5 45t14.5 38l158 417q14 35 52 35q21 0 41 -14.5t20 -35.5q0 -10 -15 -49q-17 -45 -82 -201q0 -1 -16 -41.5t-40 -96.5l-84 -200q-20 -47 -70 -47q-29 0 -42.5 13.5t-26.5 44.5
q-25 65 -90.5 220.5t-126.5 306.5z" />
    <glyph glyph-name="W" unicode="W" horiz-adv-x="855" 
d="M35 623q-4 26 12 43.5t43 17.5q47 0 55 -44q71 -366 87 -457q30 80 127 400q16 55 67 55q19 0 35.5 -12t21.5 -30l136 -404q78 397 82 423q7 39 19.5 53.5t40.5 14.5q26 0 43.5 -16t13.5 -42l-120 -566q-8 -32 -20.5 -47t-44.5 -16q-30 0 -44 16.5t-23 44.5l-141 410
q-28 -91 -136 -410q-21 -62 -70 -61q-41 2 -55 28t-28 97q-66 320 -101 502z" />
    <glyph glyph-name="X" unicode="X" horiz-adv-x="631" 
d="M314 269l-35 -45l-146 -200q-21 -28 -48 -28q-22 0 -40.5 15.5t-18.5 35.5q0 21 16 41l203 261q-5 7 -190 239q-17 22 -17 40q0 20 19 36.5t41 16.5q27 0 50 -31l166 -222l169 225q22 29 50 29q23 0 40.5 -16t17.5 -35q0 -17 -14 -36l-195 -247l198 -249q24 -30 24 -49
q0 -20 -19.5 -36.5t-42.5 -16.5q-28 0 -53 35l-134 185z" />
    <glyph glyph-name="Y" unicode="Y" horiz-adv-x="607" 
d="M248 264l-11 18l-201 307q-16 24 -16 39q0 22 18 37.5t41 15.5q26 0 47 -32l179 -286q6 9 18 28t57.5 93t102.5 166q20 32 49 32q21 0 38.5 -15t17.5 -34q0 -18 -15 -40l-215 -327v-222q0 -22 -16.5 -34.5t-39.5 -12.5q-25 0 -40.5 14.5t-15.5 39.5q0 11 0.5 36t0.5 37
q0 34 0.5 77t0.5 63z" />
    <glyph glyph-name="Z" unicode="Z" horiz-adv-x="556" 
d="M86 576q-23 0 -36 13t-13 36q0 53 53 53h210q24 0 82.5 1t85.5 1q55 0 55 -49q0 -24 -26 -61l-33 -50l-241 -346l-51 -75q85 0 186.5 2.5t119.5 2.5q27 0 39.5 -15.5t12.5 -37.5q0 -50 -61 -50q-125 -1 -370 -1q-55 0 -62 34q-3 13 -2 26q8 38 49 94l63 87l192 270l43 66
q-46 0 -152 -0.5t-144 -0.5z" />
    <glyph glyph-name="bracketleft" unicode="[" horiz-adv-x="312" 
d="M71 665q0 25 16.5 39.5t41.5 14.5h122q45 0 45 -49q0 -46 -47 -46h-77q2 -101 0 -209q0 -31 -1 -131t-2 -131q-1 -109 -1 -238q13 0 35.5 0.5t40.5 0.5q47 0 47 -47q0 -49 -50 -49l-107 -1q-36 0 -52 16t-16 54q0 44 3.5 205.5t2.5 239.5q1 54 0 187.5t-1 143.5z" />
    <glyph glyph-name="backslash" unicode="\" horiz-adv-x="391" 
d="M117 675l246 -620q9 -27 9 -41q0 -17 -18 -29t-37 -12q-30 0 -42 35l-245 615q-12 32 -12 48q0 17 17.5 29t35.5 12q34 0 46 -37z" />
    <glyph glyph-name="bracketright" unicode="]" horiz-adv-x="312" 
d="M241 665q0 -31 -1 -157t-1 -174q0 -75 3 -235t3 -210q0 -38 -16.5 -54t-52.5 -16l-105 1q-50 0 -50 49q0 47 46 47q18 0 40.5 -0.5t35.5 -0.5q0 129 -1 238q0 30 -1 130.5t-1 131.5q-1 68 -1 209h-77q-47 0 -47 46q0 49 46 49h122q25 0 41 -14.5t17 -39.5z" />
    <glyph glyph-name="asciicircum" unicode="^" horiz-adv-x="500" 
d="M401 284l-154 291q-18 -34 -76 -154.5t-75 -148.5q-12 -15 -28 -15q-18 0 -34.5 12t-16.5 30q0 16 9 36l162 305q21 40 60 40q37 0 60 -40q8 -14 163 -297q10 -20 10 -35q0 -17 -16 -29.5t-35 -12.5q-17 0 -29 18z" />
    <glyph glyph-name="underscore" unicode="_" horiz-adv-x="500" 
d="M59 -101q-25 0 -37 14.5t-12 36.5q2 50 56 50q31 0 190 -0.5t185 -0.5q48 0 48 -49q0 -51 -63 -51h-367z" />
    <glyph glyph-name="grave" unicode="`" horiz-adv-x="253" 
d="M148 545q-62 59 -98 100q-15 16 -15 33q0 16 16.5 30.5t33.5 14.5q24 0 39 -20l83 -107q10 -13 10 -26t-12.5 -24.5t-25.5 -11.5q-16 0 -31 11z" />
    <glyph glyph-name="a" unicode="a" horiz-adv-x="572" 
d="M507 322l-1 -152q0 -71 4 -128q0 -46 -57 -46q-23 0 -33 17.5t-16 59.5q-46 -80 -147 -80q-97 0 -157 64t-60 158q0 108 65.5 177.5t164.5 69.5q89 0 136 -70q0 2 2.5 17t3.5 20q11 31 44 31q52 0 52 -61zM151 218q0 -57 34.5 -94t85.5 -37q56 0 93.5 39t37.5 102
q0 65 -37 102.5t-89 37.5q-54 0 -89.5 -42t-35.5 -108z" />
    <glyph glyph-name="b" unicode="b" horiz-adv-x="581" 
d="M67 672q1 52 53 52q57 0 57 -49q-2 -125 -2 -289q22 39 62 59.5t89 20.5q94 0 154.5 -68.5t60.5 -162.5q0 -103 -65 -173t-164 -70q-45 0 -85 22t-61 58l-1 -36q-7 -41 -53 -39q-46 1 -45 60l3 191zM431 234q0 55 -36 95t-86 40q-56 0 -95 -39t-39 -104q0 -61 37.5 -100
t86.5 -39q53 0 92.5 41.5t39.5 105.5z" />
    <glyph glyph-name="c" unicode="c" horiz-adv-x="449" 
d="M395 433q22 -15 22 -40q0 -19 -12.5 -35.5t-32.5 -16.5q-15 0 -43 14q-25 11 -58 11q-53 0 -88.5 -45t-35.5 -98q0 -57 34.5 -95t86.5 -38q40 0 75 20q30 15 40 15q18 0 31 -17.5t13 -37.5q0 -23 -19 -36q-56 -43 -141 -43q-108 0 -168.5 69t-60.5 153q1 99 67.5 175.5
t169.5 76.5q69 0 120 -32z" />
    <glyph glyph-name="d" unicode="d" horiz-adv-x="575" 
d="M511 674l-2 -231q0 -35 -0.5 -102.5t-0.5 -103.5q0 -13 1 -74t1 -121q0 -48 -52 -48q-41 0 -48 38l-4 45q-52 -85 -148 -85q-98 0 -158 67t-60 157q0 105 66.5 175.5t166.5 70.5q40 0 74.5 -17t53.5 -48l-1 268q0 60 54 60q27 0 42.5 -12t14.5 -39zM150 220q0 -54 36 -93
t87 -39q55 0 92.5 38t37.5 101q0 64 -35 102t-88 38q-55 0 -92.5 -41t-37.5 -106z" />
    <glyph glyph-name="e" unicode="e" horiz-adv-x="511" 
d="M151 200q3 -46 37.5 -78t84.5 -32q52 0 97 27q22 13 39 13q18 0 32 -16t14 -36q0 -26 -30 -46q-62 -40 -161 -40q-93 0 -157.5 64.5t-66.5 155.5q0 106 66.5 179.5t163.5 73.5q85 0 143.5 -56t58.5 -128q0 -43 -14.5 -60.5t-63.5 -18.5q-25 -1 -57 -1t-87 -0.5t-99 -0.5z
M272 376q-48 0 -81.5 -32t-38.5 -74q148 0 204 4q12 2 12 9q0 40 -28.5 66.5t-67.5 26.5z" />
    <glyph glyph-name="f" unicode="f" horiz-adv-x="375" 
d="M322 357l-97 1q0 -47 0.5 -121t0.5 -101q0 -17 0.5 -47t0.5 -48q0 -23 -15 -35t-38 -12q-24 0 -39.5 12.5t-14.5 39.5v89q0 31 -0.5 105.5t-0.5 117.5h-61q-49 0 -49 47q-1 23 12.5 36.5t41.5 13.5h57v55q1 47 11.5 85.5t33.5 70.5t64 50t97 18q36 0 64 -17
q18 -11 18 -40q0 -16 -10 -30t-25 -14q-11 0 -32 3.5t-34 2.5q-39 -1 -60 -36t-22 -85v-63h92q28 0 39.5 -11.5t11.5 -35.5q2 -51 -46 -51z" />
    <glyph glyph-name="g" unicode="g" horiz-adv-x="569" 
d="M261 -130q56 0 95.5 38t39.5 97v59q-22 -32 -58.5 -51.5t-80.5 -19.5q-95 0 -156.5 66.5t-61.5 159.5q0 105 65 175t163 70q84 0 134 -70l1 31q2 16 16 25.5t35 9.5q22 0 36.5 -13.5t14.5 -34.5q0 -56 -1 -154t-1 -158l2 -98q1 -102 -68 -169t-174 -67q-85 0 -141 28
q-38 20 -38 53q0 21 14 37.5t34 16.5q9 0 45 -15q46 -16 85 -16zM149 222q0 -58 35.5 -94.5t87.5 -36.5q53 0 90 36.5t37 100.5q0 68 -35 104t-87 37q-55 0 -91.5 -41t-36.5 -106z" />
    <glyph glyph-name="h" unicode="h" horiz-adv-x="555" 
d="M69 670q0 60 58 60q53 0 53 -54q0 -13 -0.5 -37.5t-1 -93.5t-1.5 -158q19 36 57 57.5t84 21.5q84 0 131 -57t47 -146v-65v-80v-74q-1 -47 -59 -47q-23 0 -39 12t-16 35q5 95 5 211q0 54 -25.5 83.5t-71.5 29.5t-80 -36.5t-34 -92.5q0 -32 1 -104t1 -93q0 -23 -15.5 -35
t-41.5 -12q-24 0 -39 12.5t-15 34.5q0 24 1.5 71t1.5 62z" />
    <glyph glyph-name="i" unicode="i" horiz-adv-x="254" 
d="M72 412q1 26 16.5 38t36.5 12q27 0 42 -13.5t15 -47.5v-114v-113v-125q1 -27 -13.5 -40.5t-42.5 -13.5q-24 0 -39 12t-15 35v370zM123 581q-31 0 -49.5 21.5t-14.5 53.5q4 28 25 43.5t47 15.5q33 0 50.5 -19t17.5 -49q0 -33 -21 -49.5t-55 -16.5z" />
    <glyph glyph-name="j" unicode="j" horiz-adv-x="247" 
d="M69 418q1 20 17.5 32t39.5 12q24 0 39 -11t15 -33q0 -33 -0.5 -114.5t-0.5 -130.5q0 -205 -2 -257q-2 -61 -50.5 -105.5t-118.5 -44.5q-97 -2 -97 59q0 24 12 38.5t28 14.5q9 0 26 -4.5t30 -3.5q60 0 63 96q2 52 1 286q-2 104 -2 166zM118 577q-31 0 -50 18.5t-19 50.5
q0 31 21.5 49.5t53.5 18.5q33 0 52 -19t19 -50q0 -68 -77 -68z" />
    <glyph glyph-name="k" unicode="k" horiz-adv-x="479" 
d="M292 249l152 -169q14 -17 14 -32q0 -18 -17.5 -35.5t-39.5 -17.5q-23 0 -47 31l-136 165q-20 -18 -43 -41l-1 -98q0 -57 -53 -57q-56 0 -54 59l2 110q0 75 -0.5 218.5t-0.5 220.5q0 54 -1 75q0 25 16 38t40 13q55 0 55 -54q0 -9 -3 -408l168 172q25 27 48 27
q19 0 36.5 -17t17.5 -36q0 -16 -20 -38q-10 -11 -133 -126z" />
    <glyph glyph-name="l" unicode="l" horiz-adv-x="251" 
d="M72 669q1 26 17 39.5t41 13.5q56 0 56 -62q-5 -268 -5 -489q0 -26 2 -71t2 -56q-1 -24 -12.5 -36t-38.5 -14q-29 -2 -45 16t-17 61q-3 79 0 598z" />
    <glyph glyph-name="m" unicode="m" horiz-adv-x="823" 
d="M70 246q0 57 -1 95q0 37 -0.5 52.5t-0.5 20.5q0 50 56 50q42 0 48 -42l2 -35q18 37 57 58t79 21q49 0 84.5 -24.5t50.5 -63.5q22 38 62 62.5t87 25.5q87 1 128.5 -52.5t41.5 -142.5v-101q0 -33 -2 -131q-2 -43 -56 -43q-24 0 -39 11.5t-15 32.5q4 208 4 214
q0 116 -81 116q-44 0 -72 -28.5t-29 -79.5q-1 -38 -1 -106v-104q-2 -56 -58 -56q-51 2 -51 46q2 197 2 223q-2 46 -23 76t-61 30q-106 0 -106 -147l1 -185q-1 -43 -57 -43q-22 0 -37.5 11t-15.5 35v54z" />
    <glyph glyph-name="n" unicode="n" horiz-adv-x="559" 
d="M70 310l-1 88q-2 64 56 64q25 0 36 -11.5t13 -37.5l2 -35q17 40 59 63.5t90 23.5q83 0 128 -52t45 -145q0 -17 -0.5 -54.5t-0.5 -74.5v-86q0 -56 -59 -56q-23 0 -37.5 12t-14.5 36q0 28 1.5 94t1.5 98q-1 61 -20 96.5t-71 35.5q-38 0 -63 -12.5t-37 -38t-16.5 -53
t-4.5 -66.5l1 -157q0 -25 -16.5 -36t-38.5 -11q-55 0 -55 48q0 11 1.5 95.5t0.5 171.5z" />
    <glyph glyph-name="o" unicode="o" horiz-adv-x="548" 
d="M294 466q19 0 30 -6q90 -13 137.5 -80t47.5 -152q0 -102 -69 -169.5t-174 -67.5q-93 0 -160 63t-67 160q0 113 68.5 182t186.5 70zM400 232q0 57 -33.5 96t-92.5 42q-58 -3 -92 -44.5t-34 -111.5q0 -55 35.5 -91t80.5 -36q56 0 96 40.5t40 104.5z" />
    <glyph glyph-name="p" unicode="p" horiz-adv-x="577" 
d="M67 414q1 50 55 50q41 0 47 -36l3 -46q22 39 63 61t90 22q96 0 154 -66t58 -166q0 -103 -66 -172.5t-166 -69.5q-87 0 -131 61q0 -9 0.5 -41.5t0.5 -51.5q0 -15 1 -59.5t1 -70.5q0 -54 -61 -53q-49 0 -49 52l1 393zM427 235q0 58 -36 96t-86 38q-54 0 -92.5 -40.5
t-38.5 -102.5q0 -66 33.5 -102.5t89.5 -36.5q55 0 92.5 41.5t37.5 106.5z" />
    <glyph glyph-name="q" unicode="q" horiz-adv-x="571" 
d="M501 34q0 -38 0.5 -110.5t0.5 -109.5q-1 -46 -54 -46q-28 0 -43.5 13t-14.5 39q2 58 2 237q-20 -31 -55.5 -48.5t-78.5 -17.5q-97 0 -158.5 67.5t-61.5 159.5q0 108 66 177.5t168 69.5q38 0 74 -20t57 -52l5 38q9 32 48 32q21 0 35 -12t14 -33q-3 -80 -3 -156zM148 218
q0 -53 36 -93t87 -40q54 0 90 37.5t36 102.5q0 66 -35 104t-84 38q-55 0 -92.5 -41t-37.5 -108z" />
    <glyph glyph-name="r" unicode="r" horiz-adv-x="367" 
d="M72 409q-1 26 13.5 39t40.5 13q36 0 42 -36l4 -55q21 45 58.5 70t77.5 25q53 0 53 -52q0 -22 -11.5 -37t-33.5 -15h-17q-51 0 -86 -42.5t-35 -115.5q0 -15 1 -72t0 -89q-1 -46 -56 -46q-27 0 -40.5 13.5t-12.5 47.5q3 231 3 246q0 17 -0.5 52.5t-0.5 53.5z" />
    <glyph glyph-name="s" unicode="s" horiz-adv-x="455" 
d="M235 464q85 0 134 -23q31 -15 31 -39q0 -47 -43 -47q-11 0 -50 11.5t-71 11.5q-36 0 -60.5 -15.5t-24.5 -40.5q0 -30 48 -40q8 -2 47 -7q81 -11 125 -41t44 -94q0 -70 -51 -109t-139 -39q-67 0 -122.5 19.5t-55.5 45.5q0 54 43 54q14 0 60 -14.5t85 -14.5q35 0 57.5 14.5
t22.5 40.5q0 27 -22.5 38t-74.5 19q-36 5 -61 11.5t-51.5 19.5t-40.5 36t-14 55q0 64 55.5 106t128.5 42z" />
    <glyph glyph-name="t" unicode="t" horiz-adv-x="370" 
d="M53 362q-43 0 -43 46q0 22 13 34.5t34 12.5h51l2 73q2 66 59 66q45 0 45 -50q0 -10 -1 -40.5t-1 -47.5h86q22 1 34 -11t12 -35q0 -47 -42 -47h-90v-176q0 -48 12 -71.5t41 -23.5q13 0 26 4t20 4q18 0 29 -14t11 -32q0 -32 -22 -45q-27 -15 -75 -15q-148 0 -148 179
q0 24 1.5 89.5t0.5 99.5h-55z" />
    <glyph glyph-name="u" unicode="u" horiz-adv-x="565" 
d="M125 459q49 0 49 -56q-2 -118 -2 -181q0 -134 92 -134q65 0 92 46t28 131v140q0 27 16.5 41t40.5 14q54 0 54 -53q0 -1 -0.5 -43.5t-0.5 -85.5v-100q1 -54 5 -138q1 -21 -14.5 -32.5t-38.5 -11.5q-43 0 -49 38q-2 9 -3 26.5t-2 27.5q-49 -96 -149 -96q-91 0 -135.5 57.5
t-44.5 155.5q0 28 0.5 99.5t0.5 97.5q0 57 61 57z" />
    <glyph glyph-name="v" unicode="v" horiz-adv-x="501" 
d="M41 360q-19 43 -18 56q1 21 19 34t40 13q21 0 32.5 -12t21.5 -39l115 -288q66 153 117 294q17 43 51 43q22 0 40 -12t19 -31q0 -22 -11 -47l-147 -324q-25 -52 -71 -52q-25 0 -41 14t-31 46z" />
    <glyph glyph-name="w" unicode="w" horiz-adv-x="750" 
d="M31 407q-2 4 -2 11q0 20 20 32.5t42 12.5q37 0 46 -35q2 -5 32.5 -126t44.5 -168l105 290q14 33 55 33q42 0 59 -43l104 -277l56 212q11 47 21 77q11 32 46 32q22 0 41 -13t20 -32q0 -10 -3 -19q-2 -7 -35 -115t-48 -152q-24 -74 -30 -88q-15 -43 -64 -43q-46 0 -63 46
q-17 39 -59 154.5t-44 119.5l-93 -245q-15 -42 -30.5 -59.5t-47.5 -17.5q-31 0 -44.5 13t-23.5 42z" />
    <glyph glyph-name="x" unicode="x" horiz-adv-x="494" 
d="M53 83l87 95l44 53l-17 19q-95 107 -109 124q-18 21 -18 40q0 17 17.5 31.5t36.5 15.5q24 1 44 -23l110 -136l101 126q29 34 52 34q20 0 38.5 -15.5t18.5 -35.5q0 -8 -2.5 -15t-9 -16t-11 -14.5t-16 -17.5t-17.5 -18l-88 -101l125 -141q23 -25 23 -44q0 -18 -17.5 -33.5
t-38.5 -15.5q-26 0 -50 31l-106 132l-107 -133q-23 -30 -50 -30q-21 0 -38.5 15.5t-17.5 34.5q0 21 16 38z" />
    <glyph glyph-name="y" unicode="y" horiz-adv-x="504" 
d="M254 128q26 56 117 290q17 43 49 43q23 0 41.5 -13t18.5 -32q0 -20 -11 -42q-125 -287 -226 -490q-60 -109 -149 -109q-78 0 -78 54q0 51 53 51q31 0 47 12t37 48q7 11 45 86l-31 65l-125 271q-17 37 -17 54q0 20 18.5 33.5t39.5 13.5q30 0 43 -27q126 -304 128 -308z
" />
    <glyph glyph-name="z" unicode="z" horiz-adv-x="453" 
d="M243 364q-20 0 -73.5 -2t-83.5 -1q-23 1 -34 15t-11 35q0 48 59 48q29 0 89 -1t86 -1q10 0 41 1t49 0q41 -1 47 -30q3 -16 1 -29q-11 -35 -49 -79l-177 -204l-18 -22l144 3q9 0 31 1t32 1q23 0 35 -13t12 -35q0 -51 -53 -52q-7 0 -33 1t-41 1q-16 0 -80 -1.5t-111 -1.5
q-66 0 -66 56q0 32 57 99l185 211h-38z" />
    <glyph glyph-name="braceleft" unicode="{" horiz-adv-x="300" 
d="M16 270q0 6 1 11t2 8.5t4 8t4.5 6.5t6 6t6.5 5.5t7.5 6.5t7.5 6q5 5 17.5 14t19.5 15t13 16t6 21q0 36 -17.5 94.5t-18.5 95.5q0 61 47.5 104.5t115.5 43.5q20 0 32 -13t12 -32t-9.5 -33.5t-25.5 -14.5q-29 0 -49.5 -20.5t-20.5 -48.5q0 -34 17.5 -92t18.5 -93
q0 -73 -92 -115q94 -50 94 -112q0 -34 -18.5 -97t-18.5 -99q0 -27 17.5 -47.5t45.5 -20.5q15 0 25.5 -12.5t10.5 -31.5q0 -20 -11.5 -32.5t-31.5 -12.5q-74 0 -117 45.5t-43 107.5q0 34 18.5 95.5t19.5 95.5q0 12 -7.5 21.5t-25.5 23.5t-23 18q-40 25 -40 58z" />
    <glyph glyph-name="bar" unicode="|" horiz-adv-x="269" 
d="M81 676q1 26 15.5 38.5t35.5 12.5q26 0 39.5 -11t14.5 -43v-137v-226v-136l1 -317q0 -54 -54 -54q-24 0 -38 12.5t-14 36.5l1 326z" />
    <glyph glyph-name="braceright" unicode="}" horiz-adv-x="301" 
d="M285 270q0 -33 -40 -58q-5 -4 -23 -18t-25.5 -23.5t-7.5 -21.5q1 -34 19.5 -95.5t18.5 -95.5q0 -62 -43 -107.5t-117 -45.5q-21 0 -32 12.5t-11 33.5q0 19 10.5 31t25.5 12q28 0 45.5 20.5t17.5 47.5q0 36 -18.5 99t-18.5 97q0 62 94 112q-92 42 -92 115q1 35 18.5 93
t17.5 92q0 28 -20.5 48.5t-49.5 20.5q-16 0 -25.5 14.5t-9.5 33.5q0 20 11.5 32.5t32.5 12.5q68 0 115.5 -43.5t47.5 -104.5q-1 -37 -18.5 -95.5t-17.5 -94.5q0 -11 6 -21t13 -16t19.5 -15t17.5 -14q2 -1 7.5 -6t7.5 -6.5t6.5 -5.5t6 -6t4.5 -6.5t4 -8t2 -8.5t1 -11z" />
    <glyph glyph-name="asciitilde" unicode="~" horiz-adv-x="500" 
d="M124 223q-19 -28 -47 -28q-20 0 -32 15.5t-9 37.5q8 40 43 71t80 31q36 0 67 -18.5t55.5 -37t43.5 -18.5q32 0 50 39q11 26 45 26q20 0 32.5 -14t11.5 -33q-9 -47 -41.5 -77.5t-81.5 -30.5q-40 0 -91 37t-73 37q-32 0 -53 -37z" />
    <glyph glyph-name="uni00A0" unicode="&#xa0;" horiz-adv-x="244" 
 />
    <glyph glyph-name="exclamdown" unicode="&#xa1;" horiz-adv-x="245" 
d="M73 53l7 140q4 49 43 49q42 0 45 -43q10 -195 12 -353q0 -41 -12 -58t-46 -17q-28 0 -43.5 14t-14.5 40zM122 463q31 0 50 -18t19 -49q0 -28 -18.5 -45.5t-47.5 -17.5q-28 0 -47.5 20t-19.5 49q0 27 18.5 44t45.5 17z" />
    <glyph glyph-name="cent" unicode="&#xa2;" horiz-adv-x="479" 
d="M406 537q23 -14 23 -40q0 -19 -13 -36t-33 -17q-15 0 -43 14q-25 11 -59 11q-54 0 -89 -45t-35 -99q0 -57 34.5 -95t87.5 -38q40 0 75 20q26 15 41 15q18 0 31 -17.5t13 -37.5q0 -22 -20 -37q-43 -34 -104 -41v-66q1 -47 -44 -47q-44 0 -44 42v74q-85 16 -132.5 80.5
t-47.5 137.5q1 86 50.5 156.5t130.5 89.5v87q-1 23 11.5 34.5t29.5 11.5q46 0 46 -43l-1 -84q50 -5 92 -30z" />
    <glyph glyph-name="sterling" unicode="&#xa3;" horiz-adv-x="533" 
d="M92 293q-20 0 -31 13.5t-11 33.5q0 46 48 46h43q-4 26 -6 73q-3 102 49 163t142 61q59 0 99 -24q30 -18 24 -52q-3 -18 -15.5 -30t-27.5 -11q-11 0 -34 5.5t-38 5.5q-87 0 -87 -118q0 -41 5 -73q43 1 108 1q46 0 46 -44q0 -28 -13.5 -39t-49.5 -11h-74q20 -121 -12 -175
q93 -29 125 -29q31 0 41 22q15 25 43 25q20 0 35 -14.5t14 -36.5q-4 -48 -34.5 -72t-81.5 -24q-37 0 -127 22t-106 23q-33 0 -48 -19q-1 -2 -4 -5.5t-4 -5.5l-5 -4q-3 -3 -6 -4.5t-7.5 -3t-9.5 -2t-12 -0.5q-22 0 -37 15t-15 37q0 37 26.5 65t61.5 30q5 1 42 -4
q15 21 17 72.5t-6 87.5h-67z" />
    <glyph glyph-name="currency" unicode="&#xa4;" horiz-adv-x="575" 
d="M302 513q45 0 87 -27l51 60q25 29 50 29q19 0 35 -15t16 -36q0 -6 -1.5 -12t-2.5 -9.5t-5 -8.5l-6 -7q-2 -3 -9 -9l-9 -10l-51 -53q32 -51 32 -104q0 -54 -30 -104l57 -58q22 -22 22 -46q0 -19 -17 -35t-37 -16t-48 31l-48 55q-52 -32 -105 -32q-50 0 -100 33l-48 -55
q-22 -28 -46 -28q-21 0 -38 15t-17 35q0 21 14 38l67 67q-24 45 -24 89q0 64 33 114l-64 65q-25 24 -25 48q0 23 15.5 37t35.5 15q25 1 44 -23l63 -73q49 29 109 30zM394 314q0 46 -28.5 77.5t-75.5 31.5q-46 -1 -75 -34t-29 -89q0 -44 29.5 -73t68.5 -30q45 0 77.5 33
t32.5 84z" />
    <glyph glyph-name="yen" unicode="&#xa5;" horiz-adv-x="593" 
d="M145 229q-37 0 -35 41q1 35 43 35q13 0 35.5 -0.5t36.5 -0.5l-190 282q-15 22 -15 39q0 20 17 37t38 17q33 0 52 -31l170 -276l165 268q24 38 53 38q21 0 39 -15t18 -34q0 -20 -21 -49l-187 -276h68q45 0 45 -37q0 -39 -42 -39h-85v-50h83q44 0 44 -37q0 -38 -41 -38h-86
v-53q0 -53 -56 -53t-56 57v50h-90q-40 0 -40 41q0 34 43 34q15 0 43.5 -0.5t45.5 -0.5v50q-24 0 -57 0.5t-38 0.5z" />
    <glyph glyph-name="brokenbar" unicode="&#xa6;" horiz-adv-x="270" 
d="M83 159q1 50 50 50q26 0 39.5 -11t14.5 -43v-163q0 -15 0.5 -60t0.5 -76q1 -27 -13 -41t-40 -14q-24 0 -38 13.5t-14 37.5l1 166zM82 365v169l-1 150q1 23 16.5 35.5t37.5 12.5q52 0 52 -51l-1 -145v-169q1 -26 -13.5 -39t-39.5 -13q-23 0 -37 13t-14 37z" />
    <glyph glyph-name="section" unicode="&#xa7;" horiz-adv-x="497" 
d="M44 305q-1 69 69 124q-40 28 -40 90q-1 73 59 126t134 53q75 0 127 -26q29 -13 30 -41q0 -18 -11 -32.5t-31 -14.5q-12 0 -49.5 11.5t-68.5 11.5q-36 0 -64 -23t-28 -58q0 -23 19 -39t36.5 -21.5t49.5 -13.5q83 -18 128 -54t47 -110q2 -77 -57 -136q23 -36 23 -78
q0 -82 -54.5 -132.5t-134.5 -50.5q-62 0 -118 22q-55 20 -56 54q0 20 12.5 36t30.5 16q15 0 35 -9q50 -21 94 -21q40 0 68 19t28 56q0 15 -6.5 27t-14.5 19.5t-25.5 14.5t-30 10.5t-37.5 9.5q-78 20 -120.5 55.5t-43.5 104.5zM244 368q-39 8 -62 18q-43 -37 -43 -72
q0 -34 24 -52t67 -29l97 -30q30 40 26 78q-3 37 -31 56.5t-78 30.5z" />
    <glyph glyph-name="dieresis" unicode="&#xa8;" horiz-adv-x="360" 
d="M95 554q-25 0 -40.5 16.5t-15.5 41.5t17 42t44 17q25 0 41 -16.5t16 -41.5q0 -26 -17 -42.5t-45 -16.5zM260 556q-24 0 -40 16.5t-16 40.5q0 25 17.5 42t43.5 17q25 0 41 -16.5t16 -41.5q0 -26 -17 -42t-45 -16z" />
    <glyph glyph-name="copyright" unicode="&#xa9;" horiz-adv-x="759" 
d="M382 687q138 0 235 -96.5t97 -243.5q0 -150 -94.5 -253.5t-239.5 -103.5q-85 0 -160.5 39.5t-125 117t-49.5 176.5q0 82 29 151.5t76.5 115.5t108 71.5t123.5 25.5zM637 345q-2 118 -74 193t-188 75q-108 0 -179.5 -80.5t-71.5 -200.5q0 -118 75.5 -191.5t187.5 -73.5
q109 0 180.5 83t69.5 195zM487 493q17 -12 17 -29q0 -36 -32 -36q-5 0 -34 11q-22 11 -48 11q-43 0 -70.5 -35t-27.5 -80q0 -48 30.5 -80t71.5 -32q29 0 57 15q20 12 31 12q14 0 23 -11t9 -25q0 -18 -16 -29q-42 -35 -106 -35q-79 0 -127.5 54.5t-48.5 124.5q0 77 49 134
t125 57q54 0 97 -27z" />
    <glyph glyph-name="ordfeminine" unicode="&#xaa;" horiz-adv-x="399" 
d="M359 453q0 -27 2 -89q0 -34 -41 -34q-23 0 -30 22q0 2 -2 11t-3 14q-32 -49 -103 -49q-69 0 -111.5 45t-42.5 111q0 78 46.5 127t117.5 49q60 0 94 -45q2 12 4 20q8 24 32 24q39 0 39 -45q-1 -18 -1.5 -79t-0.5 -82zM111 488q0 -39 23.5 -64.5t58.5 -25.5q38 0 64 26.5
t26 69.5q0 44 -25.5 69.5t-60.5 25.5q-38 0 -62 -27.5t-24 -73.5z" />
    <glyph glyph-name="guillemotleft" unicode="&#xab;" horiz-adv-x="498" 
d="M233 351l-99 -115l101 -113q16 -16 16 -34q0 -11 -12 -23t-25 -13q-16 -1 -32 13l-128 121q-24 23 -24 49q0 24 21 45q34 37 128 125q14 12 29 12q14 0 27 -11.5t13 -25.5t-15 -30zM450 351l-99 -115l101 -113q16 -16 16 -34q0 -11 -12 -23t-25 -13q-16 -1 -32 13
l-128 121q-24 23 -24 49q0 24 21 45q34 37 128 125q14 12 29 12q14 0 27 -11.5t13 -25.5t-15 -30z" />
    <glyph glyph-name="logicalnot" unicode="&#xac;" 
d="M74 221q-21 0 -33 13t-12 35q0 48 53 48q15 0 156.5 0.5t171.5 0.5q44 0 44 -52q0 -14 0.5 -68t0.5 -94q0 -23 -13.5 -35t-35.5 -11q-22 0 -35 12t-13 33v120q-40 0 -153.5 -1t-130.5 -1z" />
    <glyph glyph-name="uni00AD" unicode="&#xad;" horiz-adv-x="358" 
d="M85 190q-24 0 -36.5 14t-12.5 36q0 50 54 50h183q49 0 49 -49q0 -52 -61 -52q-30 0 -90.5 0.5t-85.5 0.5z" />
    <glyph glyph-name="registered" unicode="&#xae;" horiz-adv-x="759" 
d="M381 688q137 -1 235 -97t98 -243q0 -152 -95 -255t-240 -103q-84 0 -159.5 40t-125 118t-49.5 177q0 162 101 263t235 100zM637 345q-2 119 -74 193.5t-189 74.5q-112 0 -181.5 -78.5t-69.5 -200.5q0 -119 75 -193.5t188 -74.5q109 0 181 83.5t70 195.5zM263 489
q0 37 45 39h77q56 0 91 -31.5t35 -82.5q0 -35 -17 -62t-44 -41q17 -25 68 -91q10 -12 10 -26q0 -12 -10 -21.5t-25 -9.5q-18 0 -30 17l-79 114q-19 0 -33 0.5t-20 0.5q0 -57 1 -97q0 -34 -32 -34q-37 -1 -37 33v54v182v56zM380 467q-7 0 -24 -0.5t-25 -0.5q0 -19 0.5 -56
t0.5 -56h40q71 0 71 57q1 28 -16 42t-47 14z" />
    <glyph glyph-name="macron" unicode="&#xaf;" horiz-adv-x="369" 
d="M86 578q-46 0 -46 43q0 45 53 45q11 0 38 -0.5t41 -0.5q22 0 59 1t52 1q45 0 45 -43q1 -22 -14 -33.5t-44 -11.5h-96q-16 0 -46 -0.5t-42 -0.5z" />
    <glyph glyph-name="degree" unicode="&#xb0;" horiz-adv-x="288" 
d="M146 683q52 0 85.5 -34.5t33.5 -85.5q0 -53 -34.5 -87.5t-88.5 -34.5q-50 0 -85 33t-35 83q0 56 34.5 91t89.5 35zM207 564q0 29 -18 47t-46 18q-27 0 -44.5 -19.5t-17.5 -50.5q0 -27 18 -45t44 -18q27 0 45.5 18.5t18.5 49.5z" />
    <glyph glyph-name="plusminus" unicode="&#xb1;" 
d="M81 310q-23 0 -34 15t-10 38q3 43 54 43h112v127q0 23 14 34.5t34 11.5q46 0 46 -51v-124l121 1q44 0 44 -47q0 -46 -48 -47h-28h-48h-42v-47v-48v-30q0 -42 -51 -42q-21 1 -32 14.5t-11 34.5l1 118q-27 0 -71.5 -0.5t-50.5 -0.5zM70 1q-23 0 -33 15.5t-9 35.5
q2 44 58 44q8 0 55.5 -0.5t76.5 -0.5h188q44 0 44 -47q0 -46 -54 -47h-326z" />
    <glyph glyph-name="twosuperior" unicode="&#xb2;" horiz-adv-x="322" 
d="M152 680q-30 0 -52 -27q-13 -15 -36 -15q-15 0 -25.5 11.5t-10.5 26.5q0 21 30 47q43 34 92 34q58 1 97.5 -32t39.5 -87q0 -27 -13 -52.5t-27 -39.5t-46 -43q-8 -7 -12 -11l-50 -46q39 0 80.5 1t42.5 1q36 0 36 -39t-40 -39q-8 0 -32 0.5t-31 0.5h-129q-18 0 -29 11.5
t-11 29.5q0 28 27 54l92 89q23 21 32 30t18.5 23t9.5 26q0 20 -15 33t-38 13z" />
    <glyph glyph-name="threesuperior" unicode="&#xb3;" horiz-adv-x="318" 
d="M207 495q0 49 -66 49h-23q-15 0 -23.5 10t-8.5 26t18 32q57 57 69 68q-78 0 -102 -1q-40 0 -40 37q0 16 9 26.5t27 10.5h65h116q35 0 35 -35q0 -21 -18 -37l-77 -78q40 -3 69.5 -31t30.5 -73q0 -62 -39.5 -97t-100.5 -35q-54 0 -93 22q-27 14 -27 40q0 16 10.5 27
t23.5 11q12 0 34 -10q26 -14 51 -14q26 0 43 13.5t17 38.5z" />
    <glyph glyph-name="acute" unicode="&#xb4;" horiz-adv-x="254" 
d="M102 542q-14 -11 -29 -11q-12 0 -26.5 12.5t-14.5 26.5q0 11 10 26l90 104q18 21 37 21t35.5 -15.5t16.5 -34.5q0 -14 -16 -32q-46 -49 -103 -97z" />
    <glyph glyph-name="mu" unicode="&#xb5;" horiz-adv-x="566" 
d="M128 459q23 0 35.5 -13.5t12.5 -35.5q0 -20 -0.5 -80t-0.5 -109q0 -133 91 -133q58 0 88 47.5t30 123.5v145q0 56 56 56q54 0 56 -52q0 -4 -0.5 -75t-0.5 -123q0 -87 20 -111q1 -2 6 -7t6.5 -7t5 -7t4.5 -8.5t2.5 -9t1.5 -11.5q0 -21 -13 -37t-36 -16q-34 0 -55 20
q-25 24 -34 71q-45 -94 -157 -94q-23 0 -43.5 12t-28.5 25q0 -72 -9 -132q-13 -111 -79 -111q-59 0 -59 53q0 24 19.5 73.5t20.5 108.5q2 100 2 198q0 22 -0.5 77.5t-0.5 88.5q0 39 14 56t46 17z" />
    <glyph glyph-name="paragraph" unicode="&#xb6;" horiz-adv-x="643" 
d="M467 61l2 522l-112 -1q0 -12 -0.5 -65t-0.5 -172v-288q0 -62 -53 -62q-51 0 -51 51q0 14 1 133.5t0 123.5h-14q-206 0 -207 181q-1 90 54.5 142.5t153.5 52.5h192q10 0 41 0.5t41 0.5q59 -2 59 -55q0 -9 -0.5 -78.5t-0.5 -155.5v-340q0 -54 -52 -54q-53 0 -53 64z" />
    <glyph glyph-name="periodcentered" unicode="&#xb7;" horiz-adv-x="219" 
d="M106 173q-29 0 -47.5 18.5t-18.5 46.5q0 30 20 49.5t51 19.5q29 0 48.5 -19t19.5 -48q0 -31 -20 -49t-53 -18z" />
    <glyph glyph-name="cedilla" unicode="&#xb8;" horiz-adv-x="265" 
d="M78 -52l24 53l60 1l-15 -49q29 0 53.5 -20.5t24.5 -60.5q0 -47 -29.5 -74t-76.5 -27q-31 0 -55 13q-24 11 -24 35q0 14 9.5 23t21.5 9q7 0 23 -7.5t28 -7.5q35 0 35 33q0 29 -38 29l-15 1q-15 0 -23 16t-3 33z" />
    <glyph glyph-name="onesuperior" unicode="&#xb9;" horiz-adv-x="255" 
d="M78 624q-11 -6 -22 -6q-14 0 -24 11.5t-10 24.5q0 21 22 35l74 52q20 13 38 13q15 0 27 -10t12 -22q0 -18 -0.5 -52t-0.5 -53v-216q0 -15 -11.5 -23.5t-28.5 -8.5q-40 0 -40 37q0 22 2 115.5t2 131.5q-13 -11 -40 -29z" />
    <glyph glyph-name="ordmasculine" unicode="&#xba;" horiz-adv-x="395" 
d="M366 492q0 -70 -47.5 -117t-124.5 -47q-70 0 -118 46t-48 111q0 77 48.5 126t119.5 49q75 -1 122.5 -46.5t47.5 -121.5zM111 488q0 -39 25 -64t60 -25q38 0 63 26.5t25 68.5q0 44 -24.5 69.5t-61.5 25.5q-38 0 -62.5 -27.5t-24.5 -73.5z" />
    <glyph glyph-name="guillemotright" unicode="&#xbb;" horiz-adv-x="498" 
d="M146 236l-99 115q-15 16 -15 30t13 25.5t27 11.5q16 0 29 -12q94 -88 128 -125q21 -21 21 -45q0 -26 -24 -49l-128 -121q-16 -14 -32 -13q-13 1 -25 13t-12 23q0 18 16 34zM364 236l-99 115q-15 16 -15 30t13 25.5t27 11.5q16 0 29 -12q94 -88 128 -125q21 -21 21 -45
q0 -26 -24 -49l-128 -121q-16 -14 -32 -13q-13 1 -25 13t-12 23q0 18 16 34z" />
    <glyph glyph-name="onequarter" unicode="&#xbc;" horiz-adv-x="771" 
d="M606 195q0 40 34 40q39 0 40 -29v-63h30q33 0 33 -33q0 -41 -31 -41h-32v-41q0 -31 -38 -32q-36 0 -36 31v42h-132q-18 0 -29.5 14.5t-11.5 30.5q0 24 19 53l105 193q14 25 37 25q17 0 31.5 -11t14.5 -24q0 -9 -6 -21l-107 -188l79 1v53zM501 653q16 27 36 27
q15 0 25.5 -10t10.5 -24t-10 -31q-9 -16 -66.5 -109t-87.5 -145l-201 -343q-13 -22 -33 -22q-13 0 -25 10t-12 26q0 13 11 31zM88 551q-12 -6 -23 -6q-13 0 -23.5 11.5t-10.5 24.5q0 20 22 35l74 52q20 13 38 13q15 0 27 -10t12 -22v-105q0 -35 -0.5 -107.5t-0.5 -108.5
q0 -15 -11 -23.5t-28 -8.5q-40 0 -40 37q0 22 2 115.5t2 131.5q-6 -5 -13.5 -10t-15 -10.5t-11.5 -8.5z" />
    <glyph glyph-name="onehalf" unicode="&#xbd;" horiz-adv-x="771" 
d="M498 653q16 27 36 27q15 0 25.5 -10t10.5 -24t-10 -31q-9 -16 -66.5 -109t-87.5 -145l-201 -343q-13 -22 -33 -22q-13 0 -25 10t-12 26q0 13 11 31zM87 551q-12 -6 -23 -6q-13 0 -23.5 11.5t-10.5 24.5q0 20 22 35l74 52q20 13 38 13q15 0 27 -10t12 -22v-105
q0 -35 -0.5 -107.5t-0.5 -108.5q0 -15 -11 -23.5t-28 -8.5q-40 0 -40 37q0 22 2 115.5t2 131.5q-6 -5 -13.5 -10t-15 -10.5t-11.5 -8.5zM594 308q-28 0 -52 -26q-14 -16 -36 -16q-14 0 -24.5 11.5t-10.5 27.5q0 23 30 46q39 35 91 35q59 1 98.5 -32t39.5 -88q0 -10 -1 -19
t-5.5 -18.5t-6.5 -16t-10.5 -16t-11.5 -14t-14.5 -15.5t-14.5 -14t-17.5 -16t-17.5 -16l-50 -47q27 0 56.5 0.5t45 1t21.5 0.5q36 0 36 -38q0 -39 -40 -39h-63h-128q-18 0 -29 11.5t-11 30.5q0 30 27 54l92 88q23 21 32 30t18.5 23.5t9.5 26.5q0 19 -15.5 32t-38.5 13z" />
    <glyph glyph-name="threequarters" unicode="&#xbe;" horiz-adv-x="801" 
d="M636 195q0 40 34 40q39 0 40 -29v-63h30q33 0 33 -33q0 -41 -31 -41h-32v-41q0 -31 -38 -32q-36 0 -36 31v42h-132q-18 0 -29.5 14.5t-11.5 30.5q0 24 19 53l105 193q14 25 37 25q17 0 31.5 -11t14.5 -24q0 -9 -6 -21l-107 -188l79 1v53zM544 653q16 27 36 27
q15 0 25.5 -10t10.5 -24t-10 -31q-9 -16 -66.5 -109t-87.5 -145l-201 -343q-13 -22 -33 -22q-13 0 -25 10t-12 26q0 13 11 31zM219 422q0 49 -67 49h-23q-31 0 -31 36q0 15 17 32q54 54 70 68q-79 0 -103 -1q-39 0 -39 37q0 15 9 26t26 11h66h116q34 0 34 -35q0 -21 -18 -37
l-77 -78q41 -3 70.5 -31t29.5 -73q1 -62 -38.5 -97t-101.5 -35q-55 0 -92 22q-28 15 -28 40q0 16 11 27t24 11q12 0 34 -10q26 -14 50 -14q27 0 44 13.5t17 38.5z" />
    <glyph glyph-name="questiondown" unicode="&#xbf;" horiz-adv-x="487" 
d="M444 -123q0 -27 -29 -47q-81 -61 -169 -61q-89 0 -152 54.5t-63 138.5q0 32 11.5 59t35.5 48.5t41.5 33.5t47.5 29q47 27 47 62q1 9 -1.5 14.5t-2.5 13.5q0 20 13.5 32t36.5 12q30 0 46.5 -21.5t16.5 -58.5q0 -69 -79 -113q-28 -16 -39 -23t-30.5 -22.5t-27 -31
t-7.5 -34.5q0 -41 31 -67t77 -26q50 0 97 36q29 22 51 22q18 0 33 -16t15 -34zM330 401q0 -28 -20.5 -46.5t-50.5 -18.5t-49 18t-19 46q0 31 20 47.5t50 16.5q31 0 50 -17t19 -46z" />
    <glyph glyph-name="Agrave" unicode="&#xc0;" horiz-adv-x="649" 
d="M21 48q0 21 17 57l99 230l123 307q16 39 62 39q52 0 67 -41q17 -41 65.5 -165.5t66.5 -168.5q1 -2 6.5 -13.5t7.5 -17.5q50 -125 82 -198q9 -20 9 -36q0 -17 -18 -31.5t-43 -14.5q-22 0 -34 8.5t-21 30.5q-50 127 -52 137q-35 1 -173 1h-98q-4 -10 -22.5 -59.5
t-27.5 -70.5q-10 -24 -20.5 -35t-31.5 -11q-26 0 -45 13t-19 39zM324 546q-14 -42 -106 -286q125 0 207 2zM336 735q-62 59 -98 100q-15 16 -15 33q0 16 16.5 30.5t33.5 14.5q24 0 39 -20l83 -107q10 -13 10 -26t-12.5 -24.5t-25.5 -11.5q-16 0 -31 11z" />
    <glyph glyph-name="Aacute" unicode="&#xc1;" horiz-adv-x="649" 
d="M21 48q0 21 17 57l99 230l123 307q16 39 62 39q52 0 67 -41q17 -41 65.5 -165.5t66.5 -168.5q1 -2 6.5 -13.5t7.5 -17.5q50 -125 82 -198q9 -20 9 -36q0 -17 -18 -31.5t-43 -14.5q-22 0 -34 8.5t-21 30.5q-50 127 -52 137q-35 1 -173 1h-98q-4 -10 -22.5 -59.5
t-27.5 -70.5q-10 -24 -20.5 -35t-31.5 -11q-26 0 -45 13t-19 39zM324 546q-14 -42 -106 -286q125 0 207 2zM316 732q-14 -11 -29 -11q-12 0 -26.5 12.5t-14.5 26.5q0 11 10 26l90 104q18 21 37 21t35.5 -15.5t16.5 -34.5q0 -14 -16 -32q-46 -49 -103 -97z" />
    <glyph glyph-name="Acircumflex" unicode="&#xc2;" horiz-adv-x="649" 
d="M21 48q0 21 17 57l99 230l123 307q16 39 62 39q52 0 67 -41q17 -41 65.5 -165.5t66.5 -168.5q1 -2 6.5 -13.5t7.5 -17.5q50 -125 82 -198q9 -20 9 -36q0 -17 -18 -31.5t-43 -14.5q-22 0 -34 8.5t-21 30.5q-50 127 -52 137q-35 1 -173 1h-98q-4 -10 -22.5 -59.5
t-27.5 -70.5q-10 -24 -20.5 -35t-31.5 -11q-26 0 -45 13t-19 39zM324 546q-14 -42 -106 -286q125 0 207 2zM429 719q-15 0 -29 14q-23 21 -75 76q-65 -69 -75 -77q-13 -13 -29 -13q-12 0 -24.5 12t-12.5 24q0 14 12 29l86 95q18 19 43 19q23 0 40 -18q51 -53 87 -97
q13 -15 13 -28q0 -11 -11.5 -23.5t-24.5 -12.5z" />
    <glyph glyph-name="Atilde" unicode="&#xc3;" horiz-adv-x="649" 
d="M21 48q0 21 17 57l99 230l123 307q16 39 62 39q52 0 67 -41q17 -41 65.5 -165.5t66.5 -168.5q1 -2 6.5 -13.5t7.5 -17.5q50 -125 82 -198q9 -20 9 -36q0 -17 -18 -31.5t-43 -14.5q-22 0 -34 8.5t-21 30.5q-50 127 -52 137q-35 1 -173 1h-98q-4 -10 -22.5 -59.5
t-27.5 -70.5q-10 -24 -20.5 -35t-31.5 -11q-26 0 -45 13t-19 39zM324 546q-14 -42 -106 -286q125 0 207 2zM238 767q-2 -26 -37 -26q-16 0 -26.5 12t-11.5 32q3 40 29 64t66 24q27 0 48.5 -14.5t38.5 -29t33 -15.5q24 0 26 32q4 28 38 28q15 0 26 -10t11 -25
q0 -50 -25.5 -75.5t-67.5 -25.5q-34 1 -67.5 29t-51.5 29q-25 0 -29 -29z" />
    <glyph glyph-name="Adieresis" unicode="&#xc4;" horiz-adv-x="649" 
d="M21 48q0 21 17 57l99 230l123 307q16 39 62 39q52 0 67 -41q17 -41 65.5 -165.5t66.5 -168.5q1 -2 6.5 -13.5t7.5 -17.5q50 -125 82 -198q9 -20 9 -36q0 -17 -18 -31.5t-43 -14.5q-22 0 -34 8.5t-21 30.5q-50 127 -52 137q-35 1 -173 1h-98q-4 -10 -22.5 -59.5
t-27.5 -70.5q-10 -24 -20.5 -35t-31.5 -11q-26 0 -45 13t-19 39zM324 546q-14 -42 -106 -286q125 0 207 2zM238 744q-25 0 -40.5 16.5t-15.5 41.5t17 42t44 17q25 0 41 -16.5t16 -41.5q0 -26 -17 -42.5t-45 -16.5zM403 746q-24 0 -40 16.5t-16 40.5q0 25 17.5 42t43.5 17
q25 0 41 -16.5t16 -41.5q0 -26 -17 -42t-45 -16z" />
    <glyph glyph-name="Aring" unicode="&#xc5;" horiz-adv-x="649" 
d="M325 849q47 0 79.5 -29t32.5 -75q0 -30 -15 -55.5t-39 -39.5q6 -10 8 -15q17 -41 64.5 -162.5t65.5 -166.5l14 -31q59 -145 82 -198q9 -20 9 -36q0 -17 -17.5 -31.5t-43.5 -14.5q-22 0 -34 8.5t-21 30.5q-50 127 -52 137q-35 1 -173 1h-98q-4 -10 -22.5 -59.5
t-27.5 -70.5q-10 -24 -20.5 -35t-31.5 -11q-26 0 -45 13t-19 39q0 21 17 57l99 230l121 301q4 8 7 12q-56 28 -56 90q0 50 35.5 80.5t80.5 30.5zM324 546q-14 -42 -106 -286q125 0 207 2zM377 744q-1 22 -16.5 36t-38.5 14q-21 0 -36.5 -14.5t-15.5 -37.5q0 -25 15 -39.5
t39 -14.5q23 0 38 16.5t15 39.5z" />
    <glyph glyph-name="AE" unicode="&#xc6;" horiz-adv-x="911" 
d="M16 56q1 19 27 54q75 103 192.5 282.5t163.5 244.5q29 42 82 40q8 0 158.5 1.5t180.5 1.5q53 0 53 -46q2 -42 -33 -49q-60 -3 -272 -3q-1 -33 -1 -94l-1 -92v-17h40q20 0 78.5 0.5t94.5 0.5q52 0 52 -47t-52 -47h-215q-1 -21 -1 -62v-127q30 0 73.5 0.5t101.5 1.5t89 1
q50 0 50 -48q0 -53 -57 -55h-249q-69 0 -92.5 11.5t-25.5 53.5v107l-230 1q-6 -9 -40.5 -62.5t-49.5 -75.5q-23 -37 -61 -36q-23 0 -40 17t-16 43zM456 542l-184 -282l183 2q0 12 0.5 38t0.5 39l1 75q0 21 -0.5 63.5t-0.5 64.5z" />
    <glyph glyph-name="Ccedilla" unicode="&#xc7;" horiz-adv-x="609" 
d="M310 -52l20 45q-119 12 -202.5 102t-82.5 232q1 81 29.5 150t75.5 113.5t105 69.5t119 25q84 -2 146 -28q50 -22 50 -56q-1 -24 -13 -39.5t-35 -14.5q-18 0 -44 13q-56 24 -112 24q-83 0 -146 -71.5t-64 -181.5q-1 -99 62 -167t152 -68q64 -1 122 33q4 2 10.5 6t10 5.5
t10 3t13.5 1.5q20 0 32 -18t12 -40q-1 -32 -58.5 -60.5t-130.5 -33.5l-12 -40q29 0 53.5 -20.5t24.5 -60.5q0 -47 -29.5 -74t-76.5 -27q-31 0 -55 13q-24 11 -24 35q0 14 9.5 23t21.5 9q7 0 23 -7.5t28 -7.5q35 0 35 33q0 29 -38 29l-15 1q-15 0 -23 16t-3 33z" />
    <glyph glyph-name="Egrave" unicode="&#xc8;" horiz-adv-x="546" 
d="M85 628q3 51 71 51q29 0 44 -1q72 0 152 1t95 1q54 0 54 -45q2 -42 -31 -50q-22 -1 -231 -1h-44v-96l-1 -94v-13h40q48 0 162 3q32 0 47 -9.5t14 -38.5q0 -47 -52 -47q-23 0 -108.5 -0.5t-104.5 -0.5q-1 -20 -1 -64q0 -20 -0.5 -63t-0.5 -64q40 -1 228 1q40 2 49 2
q44 0 44 -49q0 -52 -56 -53h-269q-63 0 -83.5 11.5t-22.5 51.5v37q0 1 0.5 16t1 42t1 60.5t1 79t0.5 89.5q0 40 0.5 121t0.5 122zM315 735q-62 59 -98 100q-15 16 -15 33q0 16 16.5 30.5t33.5 14.5q24 0 39 -20l83 -107q10 -13 10 -26t-12.5 -24.5t-25.5 -11.5q-16 0 -31 11
z" />
    <glyph glyph-name="Eacute" unicode="&#xc9;" horiz-adv-x="546" 
d="M85 628q3 51 71 51q29 0 44 -1q72 0 152 1t95 1q54 0 54 -45q2 -42 -31 -50q-22 -1 -231 -1h-44v-96l-1 -94v-13h40q48 0 162 3q32 0 47 -9.5t14 -38.5q0 -47 -52 -47q-23 0 -108.5 -0.5t-104.5 -0.5q-1 -20 -1 -64q0 -20 -0.5 -63t-0.5 -64q40 -1 228 1q40 2 49 2
q44 0 44 -49q0 -52 -56 -53h-269q-63 0 -83.5 11.5t-22.5 51.5v37q0 1 0.5 16t1 42t1 60.5t1 79t0.5 89.5q0 40 0.5 121t0.5 122zM295 732q-14 -11 -29 -11q-12 0 -26.5 12.5t-14.5 26.5q0 11 10 26l90 104q17 21 37 21q19 0 35.5 -15.5t16.5 -34.5q0 -14 -16 -32
q-46 -49 -103 -97z" />
    <glyph glyph-name="Ecircumflex" unicode="&#xca;" horiz-adv-x="546" 
d="M85 628q3 51 71 51q29 0 44 -1q72 0 152 1t95 1q54 0 54 -45q2 -42 -31 -50q-22 -1 -231 -1h-44v-96l-1 -94v-13h40q48 0 162 3q32 0 47 -9.5t14 -38.5q0 -47 -52 -47q-23 0 -108.5 -0.5t-104.5 -0.5q-1 -20 -1 -64q0 -20 -0.5 -63t-0.5 -64q40 -1 228 1q40 2 49 2
q44 0 44 -49q0 -52 -56 -53h-269q-63 0 -83.5 11.5t-22.5 51.5v37q0 1 0.5 16t1 42t1 60.5t1 79t0.5 89.5q0 40 0.5 121t0.5 122zM408 719q-15 0 -29 14q-23 21 -75 76q-65 -69 -75 -77q-13 -13 -29 -13q-12 0 -24.5 12t-12.5 24q0 14 12 29l86 95q18 19 43 19q24 0 40 -18
q51 -53 87 -97q13 -15 13 -28q0 -11 -11.5 -23.5t-24.5 -12.5z" />
    <glyph glyph-name="Edieresis" unicode="&#xcb;" horiz-adv-x="546" 
d="M85 628q3 51 71 51q29 0 44 -1q72 0 152 1t95 1q54 0 54 -45q2 -42 -31 -50q-22 -1 -231 -1h-44v-96l-1 -94v-13h40q48 0 162 3q32 0 47 -9.5t14 -38.5q0 -47 -52 -47q-23 0 -108.5 -0.5t-104.5 -0.5q-1 -20 -1 -64q0 -20 -0.5 -63t-0.5 -64q40 -1 228 1q40 2 49 2
q44 0 44 -49q0 -52 -56 -53h-269q-63 0 -83.5 11.5t-22.5 51.5v37q0 1 0.5 16t1 42t1 60.5t1 79t0.5 89.5q0 40 0.5 121t0.5 122zM217 744q-25 0 -40.5 16.5t-15.5 41.5t17 42t44 17q25 0 41 -16.5t16 -41.5q0 -26 -17 -42.5t-45 -16.5zM382 746q-24 0 -40 16.5t-16 40.5
q0 25 17.5 42t43.5 17q25 0 41 -16.5t16 -41.5q0 -26 -17 -42t-45 -16z" />
    <glyph glyph-name="Igrave" unicode="&#xcc;" horiz-adv-x="286" 
d="M89 411q0 45 -2 219q0 27 16.5 40t41.5 13q24 0 39 -12.5t15 -35.5v-243q0 -24 -0.5 -82t-0.5 -76l1 -183q1 -28 -14.5 -41.5t-41.5 -13.5q-25 0 -41 13t-16 39q0 12 0.5 42.5t0.5 46.5zM156 735q-62 59 -98 100q-15 16 -15 33q0 16 16.5 30.5t33.5 14.5q24 0 39 -20
l83 -107q10 -13 10 -26t-12.5 -24.5t-25.5 -11.5q-16 0 -31 11z" />
    <glyph glyph-name="Iacute" unicode="&#xcd;" horiz-adv-x="286" 
d="M89 411q0 45 -2 219q0 27 16.5 40t41.5 13q24 0 39 -12.5t15 -35.5v-243q0 -24 -0.5 -82t-0.5 -76l1 -183q1 -28 -14.5 -41.5t-41.5 -13.5q-25 0 -41 13t-16 39q0 12 0.5 42.5t0.5 46.5zM136 732q-14 -11 -29 -11q-12 0 -26.5 12.5t-14.5 26.5q0 11 10 26l90 104
q18 21 37 21t35.5 -15.5t16.5 -34.5q0 -14 -16 -32q-46 -49 -103 -97z" />
    <glyph glyph-name="Icircumflex" unicode="&#xce;" horiz-adv-x="286" 
d="M89 411q0 45 -2 219q0 27 16.5 40t41.5 13q24 0 39 -12.5t15 -35.5v-243q0 -24 -0.5 -82t-0.5 -76l1 -183q1 -28 -14.5 -41.5t-41.5 -13.5q-25 0 -41 13t-16 39q0 12 0.5 42.5t0.5 46.5zM249 719q-15 0 -29 14q-23 21 -75 76q-65 -69 -75 -77q-13 -13 -29 -13
q-12 0 -24.5 12t-12.5 24q0 14 12 29l86 95q18 19 43 19q23 0 40 -18q51 -53 87 -97q13 -15 13 -28q0 -11 -11.5 -23.5t-24.5 -12.5z" />
    <glyph glyph-name="Idieresis" unicode="&#xcf;" horiz-adv-x="286" 
d="M89 411q0 45 -2 219q0 27 16.5 40t41.5 13q24 0 39 -12.5t15 -35.5v-243q0 -24 -0.5 -82t-0.5 -76l1 -183q1 -28 -14.5 -41.5t-41.5 -13.5q-25 0 -41 13t-16 39q0 12 0.5 42.5t0.5 46.5zM58 744q-25 0 -40.5 16.5t-15.5 41.5t17 42t44 17q25 0 41 -16.5t16 -41.5
q0 -26 -17 -42.5t-45 -16.5zM223 746q-24 0 -40 16.5t-16 40.5q0 25 17.5 42t43.5 17q25 0 41 -16.5t16 -41.5q0 -26 -17 -42t-45 -16z" />
    <glyph glyph-name="Eth" unicode="&#xd0;" horiz-adv-x="685" 
d="M78 612q0 69 102 69h33h55h30q149 -5 248 -88t99 -231q0 -359 -380 -362q-100 0 -133 3q-23 2 -38 19.5t-15 43.5l1 215h-29q-47 0 -47 47q0 48 51 48h25zM280 581q-66 0 -89 -2v-203h76q48 0 48 -47q0 -49 -55 -49h-69v-156q0 -17 12 -20t55 -3q277 0 277 250
q0 114 -73 172t-182 58z" />
    <glyph glyph-name="Ntilde" unicode="&#xd1;" horiz-adv-x="713" 
d="M188 58q0 -62 -53 -62q-57 0 -58 50q0 61 1 250v224v110q0 23 20 36.5t47 13.5q22 0 37.5 -12.5t33.5 -37.5l233 -329l80 -114q-2 104 -2 203l-2 220q-1 35 11.5 52.5t45.5 17.5q53 0 53 -64q0 -55 -0.5 -168t-0.5 -167q2 -108 2 -231q0 -24 -19 -38.5t-47 -14.5
q-21 0 -34.5 11t-33.5 38l-318 455q0 -31 4 -443zM270 767q-2 -26 -37 -26q-16 0 -26.5 12t-11.5 32q3 40 29 64t66 24q27 0 48.5 -14.5t38.5 -29t33 -15.5q24 0 26 32q4 28 38 28q15 0 26 -10t11 -25q0 -50 -25.5 -75.5t-67.5 -25.5q-34 1 -67.5 29t-51.5 29q-25 0 -29 -29
z" />
    <glyph glyph-name="Ograve" unicode="&#xd2;" horiz-adv-x="745" 
d="M375 686q135 0 232 -96t97 -243q0 -150 -94.5 -253.5t-237.5 -103.5q-130 0 -228.5 92.5t-98.5 240.5q0 161 100.5 263t229.5 100zM593 345q-1 105 -68 172t-159 67q-86 0 -148 -71.5t-62 -179.5q0 -106 64 -172t158 -66q90 0 153 75t62 175zM384 735q-62 59 -98 100
q-15 16 -15 33q0 16 16.5 30.5t33.5 14.5q24 0 39 -20l83 -107q10 -13 10 -26t-12.5 -24.5t-25.5 -11.5q-16 0 -31 11z" />
    <glyph glyph-name="Oacute" unicode="&#xd3;" horiz-adv-x="745" 
d="M375 686q135 0 232 -96t97 -243q0 -150 -94.5 -253.5t-237.5 -103.5q-130 0 -228.5 92.5t-98.5 240.5q0 161 100.5 263t229.5 100zM593 345q-1 105 -68 172t-159 67q-86 0 -148 -71.5t-62 -179.5q0 -106 64 -172t158 -66q90 0 153 75t62 175zM364 732q-14 -11 -29 -11
q-12 0 -26.5 12.5t-14.5 26.5q0 11 10 26l90 104q18 21 37 21t35.5 -15.5t16.5 -34.5q0 -14 -16 -32q-46 -49 -103 -97z" />
    <glyph glyph-name="Ocircumflex" unicode="&#xd4;" horiz-adv-x="745" 
d="M375 686q135 0 232 -96t97 -243q0 -150 -94.5 -253.5t-237.5 -103.5q-130 0 -228.5 92.5t-98.5 240.5q0 161 100.5 263t229.5 100zM593 345q-1 105 -68 172t-159 67q-86 0 -148 -71.5t-62 -179.5q0 -106 64 -172t158 -66q90 0 153 75t62 175zM477 719q-15 0 -29 14
q-23 21 -75 76q-65 -69 -75 -77q-13 -13 -29 -13q-12 0 -24.5 12t-12.5 24q0 14 12 29l86 95q18 19 43 19q23 0 40 -18q51 -53 87 -97q13 -15 13 -28q0 -11 -11.5 -23.5t-24.5 -12.5z" />
    <glyph glyph-name="Otilde" unicode="&#xd5;" horiz-adv-x="745" 
d="M375 686q135 0 232 -96t97 -243q0 -150 -94.5 -253.5t-237.5 -103.5q-130 0 -228.5 92.5t-98.5 240.5q0 161 100.5 263t229.5 100zM593 345q-1 105 -68 172t-159 67q-86 0 -148 -71.5t-62 -179.5q0 -106 64 -172t158 -66q90 0 153 75t62 175zM286 767q-2 -26 -37 -26
q-16 0 -26.5 12t-11.5 32q3 40 29 64t66 24q27 0 48.5 -14.5t38.5 -29t33 -15.5q24 0 26 32q4 28 38 28q15 0 26 -10t11 -25q0 -50 -25.5 -75.5t-67.5 -25.5q-34 1 -67.5 29t-51.5 29q-25 0 -29 -29z" />
    <glyph glyph-name="Odieresis" unicode="&#xd6;" horiz-adv-x="745" 
d="M375 686q135 0 232 -96t97 -243q0 -150 -94.5 -253.5t-237.5 -103.5q-130 0 -228.5 92.5t-98.5 240.5q0 161 100.5 263t229.5 100zM593 345q-1 105 -68 172t-159 67q-86 0 -148 -71.5t-62 -179.5q0 -106 64 -172t158 -66q90 0 153 75t62 175zM286 744q-25 0 -40.5 16.5
t-15.5 41.5t17 42t44 17q25 0 41 -16.5t16 -41.5q0 -26 -17 -42.5t-45 -16.5zM451 746q-24 0 -40 16.5t-16 40.5q0 25 17.5 42t43.5 17q25 0 41 -16.5t16 -41.5q0 -26 -17 -42t-45 -16z" />
    <glyph glyph-name="multiply" unicode="&#xd7;" 
d="M60 145l83 84l39 42l-118 121q-15 16 -15 35q0 16 16 31t33 15q22 1 43 -22l104 -117l95 108q28 32 48 32q19 0 36 -15t17 -33q0 -7 -2 -13t-8 -14t-10 -12l-15 -15q-11 -11 -15 -16l-83 -89l114 -114q20 -20 20 -41q0 -17 -16 -32.5t-36 -15.5t-46 30l-99 108l-100 -111
q-25 -28 -45 -28t-37 15.5t-17 32.5q0 20 14 34z" />
    <glyph glyph-name="Oslash" unicode="&#xd8;" horiz-adv-x="745" 
d="M375 686q83 0 153 -38l24 37q10 16 28 16q12 0 23.5 -10t11.5 -22q0 -11 -6 -18l-26 -40q56 -46 88.5 -114.5t32.5 -149.5q0 -150 -94.5 -253.5t-237.5 -103.5q-87 0 -166 45l-31 -48q-10 -16 -25 -16q-13 0 -24.5 9.5t-11.5 21.5q0 10 8 22l31 49q-108 95 -108 250
q0 161 100.5 263t229.5 100zM593 345q-1 105 -71 173l-256 -392q51 -31 112 -31q90 0 153 75t62 175zM156 333q0 -100 60 -166l253 390q-51 27 -103 27q-86 0 -148 -71.5t-62 -179.5z" />
    <glyph glyph-name="Ugrave" unicode="&#xd9;" horiz-adv-x="688" 
d="M76 279q0 67 1 186v157q0 55 53 55q32 0 45 -13.5t13 -43.5q-1 -61 -1 -340q0 -92 42 -137.5t119 -45.5q70 0 112.5 52t43.5 132q2 12 0.5 171t-1.5 174q0 53 57 53q29 0 42 -15t13 -49l2 -311q0 -144 -73 -227t-203 -83q-122 0 -193.5 75t-71.5 210zM361 735
q-62 59 -98 100q-15 16 -15 33q0 16 16.5 30.5t33.5 14.5q24 0 39 -20l83 -107q10 -13 10 -26t-12.5 -24.5t-25.5 -11.5q-16 0 -31 11z" />
    <glyph glyph-name="Uacute" unicode="&#xda;" horiz-adv-x="688" 
d="M76 279q0 67 1 186v157q0 55 53 55q32 0 45 -13.5t13 -43.5q-1 -61 -1 -340q0 -92 42 -137.5t119 -45.5q70 0 112.5 52t43.5 132q2 12 0.5 171t-1.5 174q0 53 57 53q29 0 42 -15t13 -49l2 -311q0 -144 -73 -227t-203 -83q-122 0 -193.5 75t-71.5 210zM341 732
q-14 -11 -29 -11q-12 0 -26.5 12.5t-14.5 26.5q0 11 10 26l90 104q17 21 37 21q19 0 35.5 -15.5t16.5 -34.5q0 -14 -16 -32q-46 -49 -103 -97z" />
    <glyph glyph-name="Ucircumflex" unicode="&#xdb;" horiz-adv-x="688" 
d="M76 279q0 67 1 186v157q0 55 53 55q32 0 45 -13.5t13 -43.5q-1 -61 -1 -340q0 -92 42 -137.5t119 -45.5q70 0 112.5 52t43.5 132q2 12 0.5 171t-1.5 174q0 53 57 53q29 0 42 -15t13 -49l2 -311q0 -144 -73 -227t-203 -83q-122 0 -193.5 75t-71.5 210zM454 719
q-15 0 -29 14q-23 21 -75 76q-65 -69 -75 -77q-13 -13 -29 -13q-12 0 -24.5 12t-12.5 24q0 14 12 29l86 95q18 19 43 19q24 0 40 -18q51 -53 87 -97q13 -15 13 -28q0 -11 -11.5 -23.5t-24.5 -12.5z" />
    <glyph glyph-name="Udieresis" unicode="&#xdc;" horiz-adv-x="688" 
d="M76 279q0 67 1 186v157q0 55 53 55q32 0 45 -13.5t13 -43.5q-1 -61 -1 -340q0 -92 42 -137.5t119 -45.5q70 0 112.5 52t43.5 132q2 12 0.5 171t-1.5 174q0 53 57 53q29 0 42 -15t13 -49l2 -311q0 -144 -73 -227t-203 -83q-122 0 -193.5 75t-71.5 210zM263 744
q-25 0 -40.5 16.5t-15.5 41.5t17 42t44 17q25 0 41 -16.5t16 -41.5q0 -26 -17 -42.5t-45 -16.5zM428 746q-24 0 -40 16.5t-16 40.5q0 25 17.5 42t43.5 17q25 0 41 -16.5t16 -41.5q0 -26 -17 -42t-45 -16z" />
    <glyph glyph-name="Yacute" unicode="&#xdd;" horiz-adv-x="607" 
d="M248 264l-11 18l-201 307q-16 24 -16 39q0 22 18 37.5t41 15.5q26 0 47 -32l179 -286q6 9 18 28t57.5 93t102.5 166q20 32 49 32q21 0 38.5 -15t17.5 -34q0 -18 -15 -40l-215 -327v-222q0 -22 -16.5 -34.5t-39.5 -12.5q-25 0 -40.5 14.5t-15.5 39.5q0 11 0.5 36t0.5 37
q0 34 0.5 77t0.5 63zM297 732q-14 -11 -29 -11q-12 0 -26.5 12.5t-14.5 26.5q0 11 10 26l90 104q17 21 37 21q19 0 35.5 -15.5t16.5 -34.5q0 -14 -16 -32q-46 -49 -103 -97z" />
    <glyph glyph-name="Thorn" unicode="&#xde;" horiz-adv-x="574" 
d="M79 277l-1 331q1 39 14 57.5t44 18.5q57 0 57 -65v-67l99 2q118 2 188.5 -49t67.5 -163q-2 -72 -49 -127t-122 -71q-33 -7 -170 -7h-18v-85q0 -55 -55 -57q-56 0 -56 56q0 29 0.5 108t0.5 118zM192 457v-224q101 -1 141 3q103 12 104 110q1 66 -41 89.5t-114 23.5
q-48 0 -90 -2z" />
    <glyph glyph-name="germandbls" unicode="&#xdf;" horiz-adv-x="584" 
d="M280 335q0 31 23.5 60t47 55t23.5 51q0 79 -95 79q-48 0 -75 -38t-28 -109q0 -14 1.5 -160t0.5 -209q0 -38 -13.5 -53t-45.5 -16q-49 0 -51 63v47q0 36 0.5 114t0.5 195q0 131 59.5 198t159.5 67q86 0 137.5 -46.5t51.5 -125.5q0 -35 -24.5 -67.5t-48.5 -57t-24 -37.5
q0 -6 1.5 -11t4.5 -9.5t5.5 -8t8.5 -7.5t9.5 -6t11 -5.5t11 -5t12 -5t11.5 -4.5q98 -42 98 -133q0 -72 -45.5 -115t-127.5 -43q-59 0 -96 15t-37 41q0 53 43 53q12 0 41 -7.5t56 -7.5q30 0 48 15.5t18 42.5q0 29 -20 47t-60 32q-43 15 -68 40t-25 72z" />
    <glyph glyph-name="agrave" unicode="&#xe0;" horiz-adv-x="572" 
d="M507 322l-1 -152q0 -71 4 -128q0 -46 -57 -46q-23 0 -33 17.5t-16 59.5q-46 -80 -147 -80q-97 0 -157 64t-60 158q0 108 65.5 177.5t164.5 69.5q89 0 136 -70q0 2 2.5 17t3.5 20q11 31 44 31q52 0 52 -61zM151 218q0 -57 34.5 -94t85.5 -37q56 0 93.5 39t37.5 102
q0 65 -37 102.5t-89 37.5q-54 0 -89.5 -42t-35.5 -108zM289 545q-62 59 -98 100q-15 16 -15 33q0 16 16.5 30.5t33.5 14.5q24 0 39 -20l83 -107q10 -13 10 -26t-12.5 -24.5t-25.5 -11.5q-16 0 -31 11z" />
    <glyph glyph-name="aacute" unicode="&#xe1;" horiz-adv-x="572" 
d="M507 322l-1 -152q0 -71 4 -128q0 -46 -57 -46q-23 0 -33 17.5t-16 59.5q-46 -80 -147 -80q-97 0 -157 64t-60 158q0 108 65.5 177.5t164.5 69.5q89 0 136 -70q0 2 2.5 17t3.5 20q11 31 44 31q52 0 52 -61zM151 218q0 -57 34.5 -94t85.5 -37q56 0 93.5 39t37.5 102
q0 65 -37 102.5t-89 37.5q-54 0 -89.5 -42t-35.5 -108zM269 542q-14 -11 -29 -11q-12 0 -26.5 12.5t-14.5 26.5q0 11 10 26l90 104q17 21 37 21q19 0 35.5 -15.5t16.5 -34.5q0 -14 -16 -32q-46 -49 -103 -97z" />
    <glyph glyph-name="acircumflex" unicode="&#xe2;" horiz-adv-x="572" 
d="M507 322l-1 -152q0 -71 4 -128q0 -46 -57 -46q-23 0 -33 17.5t-16 59.5q-46 -80 -147 -80q-97 0 -157 64t-60 158q0 108 65.5 177.5t164.5 69.5q89 0 136 -70q0 2 2.5 17t3.5 20q11 31 44 31q52 0 52 -61zM151 218q0 -57 34.5 -94t85.5 -37q56 0 93.5 39t37.5 102
q0 65 -37 102.5t-89 37.5q-54 0 -89.5 -42t-35.5 -108zM382 529q-15 0 -29 14q-23 21 -75 76q-65 -69 -75 -77q-13 -13 -29 -13q-12 0 -24.5 12t-12.5 24q0 14 12 29l86 95q18 19 43 19q24 0 40 -18q51 -53 87 -97q13 -15 13 -28q0 -11 -11.5 -23.5t-24.5 -12.5z" />
    <glyph glyph-name="atilde" unicode="&#xe3;" horiz-adv-x="572" 
d="M507 322l-1 -152q0 -71 4 -128q0 -46 -57 -46q-23 0 -33 17.5t-16 59.5q-46 -80 -147 -80q-97 0 -157 64t-60 158q0 108 65.5 177.5t164.5 69.5q89 0 136 -70q0 2 2.5 17t3.5 20q11 31 44 31q52 0 52 -61zM151 218q0 -57 34.5 -94t85.5 -37q56 0 93.5 39t37.5 102
q0 65 -37 102.5t-89 37.5q-54 0 -89.5 -42t-35.5 -108zM191 577q-2 -26 -37 -26q-16 0 -26.5 12t-11.5 32q3 40 29 64t66 24q27 0 48.5 -14.5t38.5 -29t33 -15.5q24 0 26 32q4 28 38 28q15 0 26 -10t11 -25q0 -50 -25.5 -75.5t-67.5 -25.5q-34 1 -67.5 29t-51.5 29
q-25 0 -29 -29z" />
    <glyph glyph-name="adieresis" unicode="&#xe4;" horiz-adv-x="572" 
d="M507 322l-1 -152q0 -71 4 -128q0 -46 -57 -46q-23 0 -33 17.5t-16 59.5q-46 -80 -147 -80q-97 0 -157 64t-60 158q0 108 65.5 177.5t164.5 69.5q89 0 136 -70q0 2 2.5 17t3.5 20q11 31 44 31q52 0 52 -61zM151 218q0 -57 34.5 -94t85.5 -37q56 0 93.5 39t37.5 102
q0 65 -37 102.5t-89 37.5q-54 0 -89.5 -42t-35.5 -108zM191 554q-25 0 -40.5 16.5t-15.5 41.5t17 42t44 17q25 0 41 -16.5t16 -41.5q0 -26 -17 -42.5t-45 -16.5zM356 556q-24 0 -40 16.5t-16 40.5q0 25 17.5 42t43.5 17q25 0 41 -16.5t16 -41.5q0 -26 -17 -42t-45 -16z" />
    <glyph glyph-name="aring" unicode="&#xe5;" horiz-adv-x="572" 
d="M507 322l-1 -152q0 -71 4 -128q0 -46 -57 -46q-23 0 -33 17.5t-16 59.5q-46 -80 -147 -80q-97 0 -157 64t-60 158q0 108 65.5 177.5t164.5 69.5q89 0 136 -70q0 2 2.5 17t3.5 20q11 31 44 31q52 0 52 -61zM151 218q0 -57 34.5 -94t85.5 -37q56 0 93.5 39t37.5 102
q0 65 -37 102.5t-89 37.5q-54 0 -89.5 -42t-35.5 -108zM277 735q47 0 79.5 -29t32.5 -75q0 -47 -33 -80t-81 -33q-45 0 -79 30t-34 77q0 49 35.5 79.5t79.5 30.5zM327 630q0 22 -14.5 35.5t-38.5 13.5q-20 0 -35.5 -15t-15.5 -37q0 -24 14.5 -37.5t38.5 -13.5q23 0 37.5 16
t13.5 38z" />
    <glyph glyph-name="ae" unicode="&#xe6;" horiz-adv-x="813" 
d="M534 201h-71q2 -45 35 -77.5t83 -32.5q55 0 97 26q32 13 40 13q17 0 30.5 -16t13.5 -36q0 -34 -54 -59.5t-136 -25.5q-51 0 -99 27.5t-70 67.5q-58 -96 -170 -96q-86 0 -139.5 36.5t-53.5 104.5q0 65 50 101.5t136 37.5q41 0 122 -4q-2 47 -33.5 74t-79.5 27
q-26 0 -66.5 -12t-45.5 -13q-21 -3 -36 10t-15 34q0 26 24 42q58 35 148 34q54 0 98 -25t67 -67q26 41 72 66.5t97 25.5q85 0 142 -57.5t57 -129.5q0 -43 -14 -59t-64 -17h-165zM580 373q-48 0 -81.5 -31.5t-37.5 -74.5q20 1 87 1h92q34 0 34 7q0 42 -27.5 70t-66.5 28z
M236 82q42 0 74 27.5t36 68.5l3 22q-46 3 -116 3q-90 0 -90 -61q0 -29 26 -44.5t67 -15.5z" />
    <glyph glyph-name="ccedilla" unicode="&#xe7;" horiz-adv-x="449" 
d="M200 -52l20 47q-86 15 -134 79.5t-48 138.5q1 99 67.5 175.5t169.5 76.5q69 0 120 -32q22 -15 22 -40q0 -19 -12.5 -35.5t-32.5 -16.5q-15 0 -43 14q-25 11 -58 11q-53 0 -88.5 -45t-35.5 -98q0 -57 34.5 -95t86.5 -38q40 0 75 20q30 15 40 15q18 0 31 -17.5t13 -37.5
q0 -23 -19 -36q-51 -40 -127 -43l-12 -38q29 0 53.5 -20.5t24.5 -60.5q0 -47 -29.5 -74t-76.5 -27q-31 0 -55 13q-24 11 -24 35q0 14 9.5 23t21.5 9q7 0 23 -7.5t28 -7.5q35 0 35 33q0 29 -38 29l-15 1q-15 0 -23 16t-3 33z" />
    <glyph glyph-name="egrave" unicode="&#xe8;" horiz-adv-x="511" 
d="M151 200q3 -46 37.5 -78t84.5 -32q52 0 97 27q22 13 39 13q18 0 32 -16t14 -36q0 -26 -30 -46q-62 -40 -161 -40q-93 0 -157.5 64.5t-66.5 155.5q0 106 66.5 179.5t163.5 73.5q85 0 143.5 -56t58.5 -128q0 -43 -14.5 -60.5t-63.5 -18.5q-25 -1 -57 -1t-87 -0.5t-99 -0.5z
M272 376q-48 0 -81.5 -32t-38.5 -74q148 0 204 4q12 2 12 9q0 40 -28.5 66.5t-67.5 26.5zM277 545q-62 59 -98 100q-15 16 -15 33q0 16 16.5 30.5t33.5 14.5q24 0 39 -20l83 -107q10 -13 10 -26t-12.5 -24.5t-25.5 -11.5q-16 0 -31 11z" />
    <glyph glyph-name="eacute" unicode="&#xe9;" horiz-adv-x="511" 
d="M151 200q3 -46 37.5 -78t84.5 -32q52 0 97 27q22 13 39 13q18 0 32 -16t14 -36q0 -26 -30 -46q-62 -40 -161 -40q-93 0 -157.5 64.5t-66.5 155.5q0 106 66.5 179.5t163.5 73.5q85 0 143.5 -56t58.5 -128q0 -43 -14.5 -60.5t-63.5 -18.5q-25 -1 -57 -1t-87 -0.5t-99 -0.5z
M272 376q-48 0 -81.5 -32t-38.5 -74q148 0 204 4q12 2 12 9q0 40 -28.5 66.5t-67.5 26.5zM257 542q-14 -11 -29 -11q-12 0 -26.5 12.5t-14.5 26.5q0 11 10 26l90 104q17 21 37 21q19 0 35.5 -15.5t16.5 -34.5q0 -14 -16 -32q-46 -49 -103 -97z" />
    <glyph glyph-name="ecircumflex" unicode="&#xea;" horiz-adv-x="511" 
d="M151 200q3 -46 37.5 -78t84.5 -32q52 0 97 27q22 13 39 13q18 0 32 -16t14 -36q0 -26 -30 -46q-62 -40 -161 -40q-93 0 -157.5 64.5t-66.5 155.5q0 106 66.5 179.5t163.5 73.5q85 0 143.5 -56t58.5 -128q0 -43 -14.5 -60.5t-63.5 -18.5q-25 -1 -57 -1t-87 -0.5t-99 -0.5z
M272 376q-48 0 -81.5 -32t-38.5 -74q148 0 204 4q12 2 12 9q0 40 -28.5 66.5t-67.5 26.5zM370 529q-15 0 -29 14q-23 21 -75 76q-65 -69 -75 -77q-13 -13 -29 -13q-12 0 -24.5 12t-12.5 24q0 14 12 29l86 95q18 19 43 19q24 0 40 -18q51 -53 87 -97q13 -15 13 -28
q0 -11 -11.5 -23.5t-24.5 -12.5z" />
    <glyph glyph-name="edieresis" unicode="&#xeb;" horiz-adv-x="511" 
d="M151 200q3 -46 37.5 -78t84.5 -32q52 0 97 27q22 13 39 13q18 0 32 -16t14 -36q0 -26 -30 -46q-62 -40 -161 -40q-93 0 -157.5 64.5t-66.5 155.5q0 106 66.5 179.5t163.5 73.5q85 0 143.5 -56t58.5 -128q0 -43 -14.5 -60.5t-63.5 -18.5q-25 -1 -57 -1t-87 -0.5t-99 -0.5z
M272 376q-48 0 -81.5 -32t-38.5 -74q148 0 204 4q12 2 12 9q0 40 -28.5 66.5t-67.5 26.5zM179 554q-25 0 -40.5 16.5t-15.5 41.5t17 42t44 17q25 0 41 -16.5t16 -41.5q0 -26 -17 -42.5t-45 -16.5zM344 556q-24 0 -40 16.5t-16 40.5q0 25 17.5 42t43.5 17q25 0 41 -16.5
t16 -41.5q0 -26 -17 -42t-45 -16z" />
    <glyph glyph-name="igrave" unicode="&#xec;" horiz-adv-x="252" 
d="M71 412q1 26 16.5 38t36.5 12q27 0 42 -13.5t15 -47.5q1 -38 0 -114t0 -113v-125q1 -27 -13.5 -40.5t-42.5 -13.5q-24 0 -39 12t-15 35v370zM139 545q-62 59 -98 100q-15 16 -15 33q0 16 16.5 30.5t33.5 14.5q24 0 39 -20l83 -107q10 -13 10 -26t-12.5 -24.5t-25.5 -11.5
q-16 0 -31 11z" />
    <glyph glyph-name="iacute" unicode="&#xed;" horiz-adv-x="252" 
d="M71 412q1 26 16.5 38t36.5 12q27 0 42 -13.5t15 -47.5q1 -38 0 -114t0 -113v-125q1 -27 -13.5 -40.5t-42.5 -13.5q-24 0 -39 12t-15 35v370zM119 542q-14 -11 -29 -11q-12 0 -26.5 12.5t-14.5 26.5q0 11 10 26l90 104q17 21 37 21q19 0 35.5 -15.5t16.5 -34.5
q0 -14 -16 -32q-46 -49 -103 -97z" />
    <glyph glyph-name="icircumflex" unicode="&#xee;" horiz-adv-x="252" 
d="M71 412q1 26 16.5 38t36.5 12q27 0 42 -13.5t15 -47.5q1 -38 0 -114t0 -113v-125q1 -27 -13.5 -40.5t-42.5 -13.5q-24 0 -39 12t-15 35v370zM232 529q-15 0 -29 14q-23 21 -75 76q-65 -69 -75 -77q-13 -13 -29 -13q-12 0 -24.5 12t-12.5 24q0 14 12 29l86 95q18 19 43 19
q24 0 40 -18q51 -53 87 -97q13 -15 13 -28q0 -11 -11.5 -23.5t-24.5 -12.5z" />
    <glyph glyph-name="idieresis" unicode="&#xef;" horiz-adv-x="252" 
d="M71 412q1 26 16.5 38t36.5 12q27 0 42 -13.5t15 -47.5q1 -38 0 -114t0 -113v-125q1 -27 -13.5 -40.5t-42.5 -13.5q-24 0 -39 12t-15 35v370zM41 554q-25 0 -40.5 16.5t-15.5 41.5t17 42t44 17q25 0 41 -16.5t16 -41.5q0 -26 -17 -42.5t-45 -16.5zM206 556q-24 0 -40 16.5
t-16 40.5q0 25 17.5 42t43.5 17q25 0 41 -16.5t16 -41.5q0 -26 -17 -42t-45 -16z" />
    <glyph glyph-name="eth" unicode="&#xf0;" horiz-adv-x="558" 
d="M446 615l-30 -22q95 -117 95 -294q0 -61 -4 -90q-12 -104 -75 -160t-159 -56q-99 0 -166.5 63t-67.5 163q0 101 65.5 163t153.5 64q83 3 135 -71q-2 90 -66 161l-56 -38q-10 -7 -20 -7q-11 0 -21 11t-10 22q0 17 20 29l37 26q-44 33 -95 45q-22 7 -31 25.5t-1 37.5
q22 50 82 32q78 -23 140 -79l49 34q11 8 20 8q12 0 21.5 -11.5t9.5 -24.5q0 -12 -26 -31zM270 350q-52 0 -87.5 -36t-35.5 -90q0 -60 34.5 -96.5t84.5 -36.5q53 0 90 37t37 93q-1 55 -35.5 92t-87.5 37z" />
    <glyph glyph-name="ntilde" unicode="&#xf1;" horiz-adv-x="559" 
d="M70 310l-1 88q-2 64 56 64q25 0 36 -11.5t13 -37.5l2 -35q17 40 59 63.5t90 23.5q83 0 128 -52t45 -145q0 -17 -0.5 -54.5t-0.5 -74.5v-86q0 -56 -59 -56q-23 0 -37.5 12t-14.5 36q0 28 1.5 94t1.5 98q-1 61 -20 96.5t-71 35.5q-38 0 -63 -12.5t-37 -38t-16.5 -53
t-4.5 -66.5l1 -157q0 -25 -16.5 -36t-38.5 -11q-55 0 -55 48q0 11 1.5 95.5t0.5 171.5zM199 577q-2 -26 -37 -26q-16 0 -26.5 12t-11.5 32q3 40 29 64t66 24q27 0 48.5 -14.5t38.5 -29t33 -15.5q24 0 26 32q4 28 38 28q15 0 26 -10t11 -25q0 -50 -25.5 -75.5t-67.5 -25.5
q-34 1 -67.5 29t-51.5 29q-25 0 -29 -29z" />
    <glyph glyph-name="ograve" unicode="&#xf2;" horiz-adv-x="548" 
d="M294 466q19 0 30 -6q90 -13 137.5 -80t47.5 -152q0 -102 -69 -169.5t-174 -67.5q-93 0 -160 63t-67 160q0 113 68.5 182t186.5 70zM400 232q0 57 -33.5 96t-92.5 42q-58 -3 -92 -44.5t-34 -111.5q0 -55 35.5 -91t80.5 -36q56 0 96 40.5t40 104.5zM283 545q-62 59 -98 100
q-15 16 -15 33q0 16 16.5 30.5t33.5 14.5q24 0 39 -20l83 -107q10 -13 10 -26t-12.5 -24.5t-25.5 -11.5q-16 0 -31 11z" />
    <glyph glyph-name="oacute" unicode="&#xf3;" horiz-adv-x="548" 
d="M294 466q19 0 30 -6q90 -13 137.5 -80t47.5 -152q0 -102 -69 -169.5t-174 -67.5q-93 0 -160 63t-67 160q0 113 68.5 182t186.5 70zM400 232q0 57 -33.5 96t-92.5 42q-58 -3 -92 -44.5t-34 -111.5q0 -55 35.5 -91t80.5 -36q56 0 96 40.5t40 104.5zM263 542
q-14 -11 -29 -11q-12 0 -26.5 12.5t-14.5 26.5q0 11 10 26l90 104q17 21 37 21q19 0 35.5 -15.5t16.5 -34.5q0 -14 -16 -32q-46 -49 -103 -97z" />
    <glyph glyph-name="ocircumflex" unicode="&#xf4;" horiz-adv-x="548" 
d="M294 466q19 0 30 -6q90 -13 137.5 -80t47.5 -152q0 -102 -69 -169.5t-174 -67.5q-93 0 -160 63t-67 160q0 113 68.5 182t186.5 70zM400 232q0 57 -33.5 96t-92.5 42q-58 -3 -92 -44.5t-34 -111.5q0 -55 35.5 -91t80.5 -36q56 0 96 40.5t40 104.5zM376 529q-15 0 -29 14
q-23 21 -75 76q-65 -69 -75 -77q-13 -13 -29 -13q-12 0 -24.5 12t-12.5 24q0 14 12 29l86 95q18 19 43 19q24 0 40 -18q51 -53 87 -97q13 -15 13 -28q0 -11 -11.5 -23.5t-24.5 -12.5z" />
    <glyph glyph-name="otilde" unicode="&#xf5;" horiz-adv-x="548" 
d="M294 466q19 0 30 -6q90 -13 137.5 -80t47.5 -152q0 -102 -69 -169.5t-174 -67.5q-93 0 -160 63t-67 160q0 113 68.5 182t186.5 70zM400 232q0 57 -33.5 96t-92.5 42q-58 -3 -92 -44.5t-34 -111.5q0 -55 35.5 -91t80.5 -36q56 0 96 40.5t40 104.5zM185 577q-2 -26 -37 -26
q-16 0 -26.5 12t-11.5 32q3 40 29 64t66 24q27 0 48.5 -14.5t38.5 -29t33 -15.5q24 0 26 32q4 28 38 28q15 0 26 -10t11 -25q0 -50 -25.5 -75.5t-67.5 -25.5q-34 1 -67.5 29t-51.5 29q-25 0 -29 -29z" />
    <glyph glyph-name="odieresis" unicode="&#xf6;" horiz-adv-x="548" 
d="M294 466q19 0 30 -6q90 -13 137.5 -80t47.5 -152q0 -102 -69 -169.5t-174 -67.5q-93 0 -160 63t-67 160q0 113 68.5 182t186.5 70zM400 232q0 57 -33.5 96t-92.5 42q-58 -3 -92 -44.5t-34 -111.5q0 -55 35.5 -91t80.5 -36q56 0 96 40.5t40 104.5zM185 554
q-25 0 -40.5 16.5t-15.5 41.5t17 42t44 17q25 0 41 -16.5t16 -41.5q0 -26 -17 -42.5t-45 -16.5zM350 556q-24 0 -40 16.5t-16 40.5q0 25 17.5 42t43.5 17q25 0 41 -16.5t16 -41.5q0 -26 -17 -42t-45 -16z" />
    <glyph glyph-name="divide" unicode="&#xf7;" 
d="M72 226q-21 -1 -31 14t-9 35q2 43 52 41l331 -1q22 0 32.5 -13t10.5 -31q0 -45 -53 -46q-29 -1 -168 0t-165 1zM248 390q-26 0 -43.5 17t-17.5 43q0 27 19 45t47 18q27 0 44.5 -17.5t17.5 -44.5q0 -28 -18.5 -44.5t-48.5 -16.5zM244 31q-25 0 -42 17t-17 43
q0 27 18.5 44.5t46.5 17.5q26 0 43.5 -17t17.5 -44q0 -28 -18.5 -44.5t-48.5 -16.5z" />
    <glyph glyph-name="oslash" unicode="&#xf8;" horiz-adv-x="548" 
d="M294 466q16 0 30 -6q29 -4 54 -17l18 28q10 18 26 18q10 0 21 -8t11 -18t-12 -30l-13 -21q80 -68 80 -183q0 -103 -69 -170.5t-173 -67.5q-41 0 -88 19l-20 -34q-10 -16 -24 -16q-11 0 -21.5 9t-10.5 20q0 10 9 23l16 26q-89 65 -89 178q0 112 68.5 180.5t186.5 69.5z
M148 216q0 -51 36 -87l142 229q-22 10 -51 12q-58 -2 -92.5 -43t-34.5 -111zM400 232q0 53 -30 86l-137 -223q16 -8 32 -8q55 0 95 40t40 105z" />
    <glyph glyph-name="ugrave" unicode="&#xf9;" horiz-adv-x="565" 
d="M125 459q49 0 49 -56q-2 -118 -2 -181q0 -134 92 -134q65 0 92 46t28 131v140q0 27 16.5 41t40.5 14q54 0 54 -53q0 -1 -0.5 -43.5t-0.5 -85.5v-100q1 -54 5 -138q1 -21 -14.5 -32.5t-38.5 -11.5q-43 0 -49 38q-2 9 -3 26.5t-2 27.5q-49 -96 -149 -96q-91 0 -135.5 57.5
t-44.5 155.5q0 28 0.5 99.5t0.5 97.5q0 57 61 57zM292 545q-62 59 -98 100q-15 16 -15 33q0 16 16.5 30.5t33.5 14.5q24 0 39 -20l83 -107q10 -13 10 -26t-12.5 -24.5t-25.5 -11.5q-16 0 -31 11z" />
    <glyph glyph-name="uacute" unicode="&#xfa;" horiz-adv-x="565" 
d="M125 459q49 0 49 -56q-2 -118 -2 -181q0 -134 92 -134q65 0 92 46t28 131v140q0 27 16.5 41t40.5 14q54 0 54 -53q0 -1 -0.5 -43.5t-0.5 -85.5v-100q1 -54 5 -138q1 -21 -14.5 -32.5t-38.5 -11.5q-43 0 -49 38q-2 9 -3 26.5t-2 27.5q-49 -96 -149 -96q-91 0 -135.5 57.5
t-44.5 155.5q0 28 0.5 99.5t0.5 97.5q0 57 61 57zM272 542q-14 -11 -29 -11q-12 0 -26.5 12.5t-14.5 26.5q0 11 10 26l90 104q18 21 37 21t35.5 -15.5t16.5 -34.5q0 -14 -16 -32q-46 -49 -103 -97z" />
    <glyph glyph-name="ucircumflex" unicode="&#xfb;" horiz-adv-x="565" 
d="M125 459q49 0 49 -56q-2 -118 -2 -181q0 -134 92 -134q65 0 92 46t28 131v140q0 27 16.5 41t40.5 14q54 0 54 -53q0 -1 -0.5 -43.5t-0.5 -85.5v-100q1 -54 5 -138q1 -21 -14.5 -32.5t-38.5 -11.5q-43 0 -49 38q-2 9 -3 26.5t-2 27.5q-49 -96 -149 -96q-91 0 -135.5 57.5
t-44.5 155.5q0 28 0.5 99.5t0.5 97.5q0 57 61 57zM385 529q-15 0 -29 14q-23 21 -75 76q-65 -69 -75 -77q-13 -13 -29 -13q-12 0 -24.5 12t-12.5 24q0 14 12 29l86 95q18 19 43 19q23 0 40 -18q51 -53 87 -97q13 -15 13 -28q0 -11 -11.5 -23.5t-24.5 -12.5z" />
    <glyph glyph-name="udieresis" unicode="&#xfc;" horiz-adv-x="565" 
d="M125 459q49 0 49 -56q-2 -118 -2 -181q0 -134 92 -134q65 0 92 46t28 131v140q0 27 16.5 41t40.5 14q54 0 54 -53q0 -1 -0.5 -43.5t-0.5 -85.5v-100q1 -54 5 -138q1 -21 -14.5 -32.5t-38.5 -11.5q-43 0 -49 38q-2 9 -3 26.5t-2 27.5q-49 -96 -149 -96q-91 0 -135.5 57.5
t-44.5 155.5q0 28 0.5 99.5t0.5 97.5q0 57 61 57zM194 554q-25 0 -40.5 16.5t-15.5 41.5t17 42t44 17q25 0 41 -16.5t16 -41.5q0 -26 -17 -42.5t-45 -16.5zM359 556q-24 0 -40 16.5t-16 40.5q0 25 17.5 42t43.5 17q25 0 41 -16.5t16 -41.5q0 -26 -17 -42t-45 -16z" />
    <glyph glyph-name="yacute" unicode="&#xfd;" horiz-adv-x="504" 
d="M254 128q26 56 117 290q17 43 49 43q23 0 41.5 -13t18.5 -32q0 -20 -11 -42q-125 -287 -226 -490q-60 -109 -149 -109q-78 0 -78 54q0 51 53 51q31 0 47 12t37 48q7 11 45 86l-31 65l-125 271q-17 37 -17 54q0 20 18.5 33.5t39.5 13.5q30 0 43 -27q126 -304 128 -308z
M237 542q-14 -11 -29 -11q-12 0 -26.5 12.5t-14.5 26.5q0 11 10 26l90 104q17 21 37 21q19 0 35.5 -15.5t16.5 -34.5q0 -14 -16 -32q-46 -49 -103 -97z" />
    <glyph glyph-name="thorn" unicode="&#xfe;" horiz-adv-x="577" 
d="M171 -168q0 -50 -55 -50q-30 0 -42.5 14.5t-11.5 46.5l2 405l-3 419q1 27 15.5 40t36.5 13q58 0 58 -49q0 -97 -0.5 -165t-0.5 -92l-1 -25q43 77 150 77q94 0 155 -68.5t61 -162.5q0 -102 -65.5 -173t-161.5 -71q-95 0 -138 76q0 -37 1 -117t0 -118zM425 234
q0 59 -36 97.5t-87 38.5q-60 0 -97 -37.5t-37 -106.5q0 -66 35 -103t90 -37t93.5 41t38.5 107z" />
    <glyph glyph-name="ydieresis" unicode="&#xff;" horiz-adv-x="504" 
d="M254 128q26 56 117 290q17 43 49 43q23 0 41.5 -13t18.5 -32q0 -20 -11 -42q-125 -287 -226 -490q-60 -109 -149 -109q-78 0 -78 54q0 51 53 51q31 0 47 12t37 48q7 11 45 86l-31 65l-125 271q-17 37 -17 54q0 20 18.5 33.5t39.5 13.5q30 0 43 -27q126 -304 128 -308z
M159 554q-25 0 -40.5 16.5t-15.5 41.5t17 42t44 17q25 0 41 -16.5t16 -41.5q0 -26 -17 -42.5t-45 -16.5zM324 556q-24 0 -40 16.5t-16 40.5q0 25 17.5 42t43.5 17q25 0 41 -16.5t16 -41.5q0 -26 -17 -42t-45 -16z" />
    <glyph glyph-name="Amacron" unicode="&#x100;" horiz-adv-x="649" 
d="M21 48q0 21 17 57l99 230l123 307q16 39 62 39q52 0 67 -41q17 -41 65.5 -165.5t66.5 -168.5q1 -2 6.5 -13.5t7.5 -17.5q50 -125 82 -198q9 -20 9 -36q0 -17 -18 -31.5t-43 -14.5q-22 0 -34 8.5t-21 30.5q-50 127 -52 137q-35 1 -173 1h-98q-4 -10 -22.5 -59.5
t-27.5 -70.5q-10 -24 -20.5 -35t-31.5 -11q-26 0 -45 13t-19 39zM324 546q-14 -42 -106 -286q125 0 207 2zM228 768q-46 0 -46 43q0 45 53 45q10 0 37.5 -0.5t41.5 -0.5q22 0 59 1t52 1q45 0 45 -43q1 -22 -14 -33.5t-44 -11.5h-96q-16 0 -46 -0.5t-42 -0.5z" />
    <glyph glyph-name="amacron" unicode="&#x101;" horiz-adv-x="572" 
d="M507 322l-1 -152q0 -71 4 -128q0 -46 -57 -46q-23 0 -33 17.5t-16 59.5q-46 -80 -147 -80q-97 0 -157 64t-60 158q0 108 65.5 177.5t164.5 69.5q89 0 136 -70q0 2 2.5 17t3.5 20q11 31 44 31q52 0 52 -61zM151 218q0 -57 34.5 -94t85.5 -37q56 0 93.5 39t37.5 102
q0 65 -37 102.5t-89 37.5q-54 0 -89.5 -42t-35.5 -108zM181 578q-46 0 -46 43q0 45 53 45q10 0 37.5 -0.5t41.5 -0.5q22 0 59 1t52 1q45 0 45 -43q1 -22 -14 -33.5t-44 -11.5h-96q-16 0 -46 -0.5t-42 -0.5z" />
    <glyph glyph-name="Abreve" unicode="&#x102;" horiz-adv-x="649" 
d="M21 48q0 21 17 57l99 230l123 307q16 39 62 39q52 0 67 -41q17 -41 65.5 -165.5t66.5 -168.5q1 -2 6.5 -13.5t7.5 -17.5q50 -125 82 -198q9 -20 9 -36q0 -17 -18 -31.5t-43 -14.5q-22 0 -34 8.5t-21 30.5q-50 127 -52 137q-35 1 -173 1h-98q-4 -10 -22.5 -59.5
t-27.5 -70.5q-10 -24 -20.5 -35t-31.5 -11q-26 0 -45 13t-19 39zM324 546q-14 -42 -106 -286q125 0 207 2zM425 884q16 0 26 -10.5t10 -24.5q0 -56 -38.5 -94t-98.5 -38q-54 0 -93.5 35.5t-41.5 89.5q0 17 10.5 28.5t27.5 11.5q15 0 24.5 -8.5t11.5 -22.5q2 -27 18.5 -43
t43.5 -16t44 18t19 42q2 32 37 32z" />
    <glyph glyph-name="abreve" unicode="&#x103;" horiz-adv-x="572" 
d="M507 322l-1 -152q0 -71 4 -128q0 -46 -57 -46q-23 0 -33 17.5t-16 59.5q-46 -80 -147 -80q-97 0 -157 64t-60 158q0 108 65.5 177.5t164.5 69.5q89 0 136 -70q0 2 2.5 17t3.5 20q11 31 44 31q52 0 52 -61zM151 218q0 -57 34.5 -94t85.5 -37q56 0 93.5 39t37.5 102
q0 65 -37 102.5t-89 37.5q-54 0 -89.5 -42t-35.5 -108zM378 694q16 0 26 -10.5t10 -24.5q0 -56 -38.5 -94t-98.5 -38q-54 0 -93.5 35.5t-41.5 89.5q0 17 10.5 28.5t27.5 11.5q15 0 24.5 -8.5t11.5 -22.5q2 -27 18.5 -43t43.5 -16t44 18t19 42q2 32 37 32z" />
    <glyph glyph-name="Aogonek" unicode="&#x104;" horiz-adv-x="649" 
d="M526 -104q0 -17 9 -27t24 -10q9 0 19.5 2.5t18.5 2.5q13 0 21.5 -11.5t8.5 -28.5q0 -47 -72 -47q-46 0 -77 25.5t-31 74.5q0 68 85 128q-13 9 -22 29q-50 127 -52 137q-35 1 -173 1h-98q-4 -10 -22.5 -59.5t-27.5 -70.5q-10 -24 -20.5 -35t-31.5 -11q-26 0 -45 13t-19 39
q0 21 17 57l99 230l123 307q16 39 62 39q52 0 67 -41q17 -41 65.5 -165.5t66.5 -168.5l14 -31q59 -145 82 -198q9 -20 9 -36q0 -20 -25 -37q-75 -64 -75 -108zM324 546q-14 -42 -106 -286q125 0 207 2z" />
    <glyph glyph-name="aogonek" unicode="&#x105;" horiz-adv-x="572" 
d="M507 322l-1 -152q0 -61 3 -124q0 -30 -25 -44q-77 -59 -77 -106q0 -17 9 -27t24 -10q9 0 20 2t18 2q14 0 22.5 -11t8.5 -28q0 -47 -72 -47q-46 0 -77.5 26t-31.5 75q0 70 93 133q-14 17 -17 62q-46 -80 -147 -80q-97 0 -157 64t-60 158q0 108 65.5 177.5t164.5 69.5
q89 0 136 -70q0 6 0.5 16.5t1.5 15.5q7 36 48 36q52 0 52 -56zM151 218q0 -57 34.5 -94t85.5 -37q57 0 94 39t37 102q0 65 -37 102.5t-88 37.5q-55 0 -90.5 -42t-35.5 -108z" />
    <glyph glyph-name="Cacute" unicode="&#x106;" horiz-adv-x="609" 
d="M520 657q50 -22 50 -56q-1 -24 -13 -39.5t-35 -14.5q-18 0 -44 13q-56 24 -112 24q-83 0 -146 -71.5t-64 -181.5q-1 -99 62 -167t152 -68q64 -1 122 33q4 2 10.5 6t10 5.5t10 3t13.5 1.5q20 0 32 -18t12 -40q-1 -36 -71 -66.5t-150 -29.5q-128 2 -221.5 93.5t-92.5 242.5
q1 81 29.5 150t75.5 113.5t105 69.5t119 25q84 -2 146 -28zM357 732q-14 -11 -29 -11q-12 0 -26.5 12.5t-14.5 26.5q0 11 10 26l90 104q17 21 37 21q19 0 35.5 -15.5t16.5 -34.5q0 -14 -16 -32q-46 -49 -103 -97z" />
    <glyph glyph-name="cacute" unicode="&#x107;" horiz-adv-x="449" 
d="M395 433q22 -15 22 -40q0 -19 -12.5 -35.5t-32.5 -16.5q-15 0 -43 14q-25 11 -58 11q-53 0 -88.5 -45t-35.5 -98q0 -57 34.5 -95t86.5 -38q40 0 75 20q30 15 40 15q18 0 31 -17.5t13 -37.5q0 -23 -19 -36q-56 -43 -141 -43q-108 0 -168.5 69t-60.5 153q1 99 67.5 175.5
t169.5 76.5q69 0 120 -32zM260 542q-14 -11 -29 -11q-12 0 -26.5 12.5t-14.5 26.5q0 11 10 26l90 104q18 21 37 21t35.5 -15.5t16.5 -34.5q0 -14 -16 -32q-46 -49 -103 -97z" />
    <glyph glyph-name="Ccircumflex" unicode="&#x108;" horiz-adv-x="609" 
d="M520 657q50 -22 50 -56q-1 -24 -13 -39.5t-35 -14.5q-18 0 -44 13q-56 24 -112 24q-83 0 -146 -71.5t-64 -181.5q-1 -99 62 -167t152 -68q64 -1 122 33q4 2 10.5 6t10 5.5t10 3t13.5 1.5q20 0 32 -18t12 -40q-1 -36 -71 -66.5t-150 -29.5q-128 2 -221.5 93.5t-92.5 242.5
q1 81 29.5 150t75.5 113.5t105 69.5t119 25q84 -2 146 -28zM470 719q-15 0 -29 14q-23 21 -75 76q-65 -69 -75 -77q-13 -13 -29 -13q-12 0 -24.5 12t-12.5 24q0 14 12 29l86 95q18 19 43 19q24 0 40 -18q51 -53 87 -97q13 -15 13 -28q0 -11 -11.5 -23.5t-24.5 -12.5z" />
    <glyph glyph-name="ccircumflex" unicode="&#x109;" horiz-adv-x="449" 
d="M395 433q22 -15 22 -40q0 -19 -12.5 -35.5t-32.5 -16.5q-15 0 -43 14q-25 11 -58 11q-53 0 -88.5 -45t-35.5 -98q0 -57 34.5 -95t86.5 -38q40 0 75 20q30 15 40 15q18 0 31 -17.5t13 -37.5q0 -23 -19 -36q-56 -43 -141 -43q-108 0 -168.5 69t-60.5 153q1 99 67.5 175.5
t169.5 76.5q69 0 120 -32zM373 529q-15 0 -29 14q-23 21 -75 76q-65 -69 -75 -77q-13 -13 -29 -13q-12 0 -24.5 12t-12.5 24q0 14 12 29l86 95q18 19 43 19q23 0 40 -18q51 -53 87 -97q13 -15 13 -28q0 -11 -11.5 -23.5t-24.5 -12.5z" />
    <glyph glyph-name="Cdotaccent" unicode="&#x10a;" horiz-adv-x="609" 
d="M520 657q50 -22 50 -56q-1 -24 -13 -39.5t-35 -14.5q-18 0 -44 13q-56 24 -112 24q-83 0 -146 -71.5t-64 -181.5q-1 -99 62 -167t152 -68q64 -1 122 33q4 2 10.5 6t10 5.5t10 3t13.5 1.5q20 0 32 -18t12 -40q-1 -36 -71 -66.5t-150 -29.5q-128 2 -221.5 93.5t-92.5 242.5
q1 81 29.5 150t75.5 113.5t105 69.5t119 25q84 -2 146 -28zM361 749q-29 0 -47 20.5t-16 50.5q4 27 23.5 42.5t46.5 15.5q30 0 47 -18t17 -46q0 -31 -19.5 -48t-51.5 -17z" />
    <glyph glyph-name="cdotaccent" unicode="&#x10b;" horiz-adv-x="449" 
d="M395 433q22 -15 22 -40q0 -19 -12.5 -35.5t-32.5 -16.5q-15 0 -43 14q-25 11 -58 11q-53 0 -88.5 -45t-35.5 -98q0 -57 34.5 -95t86.5 -38q40 0 75 20q30 15 40 15q18 0 31 -17.5t13 -37.5q0 -23 -19 -36q-56 -43 -141 -43q-108 0 -168.5 69t-60.5 153q1 99 67.5 175.5
t169.5 76.5q69 0 120 -32zM264 559q-29 0 -47 20.5t-16 50.5q4 27 23.5 42.5t46.5 15.5q30 0 47 -18t17 -46q0 -31 -19.5 -48t-51.5 -17z" />
    <glyph glyph-name="Ccaron" unicode="&#x10c;" horiz-adv-x="609" 
d="M520 657q50 -22 50 -56q-1 -24 -13 -39.5t-35 -14.5q-18 0 -44 13q-56 24 -112 24q-83 0 -146 -71.5t-64 -181.5q-1 -99 62 -167t152 -68q64 -1 122 33q4 2 10.5 6t10 5.5t10 3t13.5 1.5q20 0 32 -18t12 -40q-1 -36 -71 -66.5t-150 -29.5q-128 2 -221.5 93.5t-92.5 242.5
q1 81 29.5 150t75.5 113.5t105 69.5t119 25q84 -2 146 -28zM262 897q13 0 29 -14q15 -14 75 -76q56 60 74 77q13 13 30 13q12 0 24 -12t12 -24q0 -15 -12 -29q-8 -10 -85 -95q-18 -19 -44 -19q-23 0 -40 18q-56 61 -87 97q-13 15 -13 29q0 12 11.5 23.5t25.5 11.5z" />
    <glyph glyph-name="ccaron" unicode="&#x10d;" horiz-adv-x="449" 
d="M395 433q22 -15 22 -40q0 -19 -12.5 -35.5t-32.5 -16.5q-15 0 -43 14q-25 11 -58 11q-53 0 -88.5 -45t-35.5 -98q0 -57 34.5 -95t86.5 -38q40 0 75 20q30 15 40 15q18 0 31 -17.5t13 -37.5q0 -23 -19 -36q-56 -43 -141 -43q-108 0 -168.5 69t-60.5 153q1 99 67.5 175.5
t169.5 76.5q69 0 120 -32zM165 707q13 0 29 -14q15 -14 75 -76q56 60 74 77q13 13 30 13q12 0 24 -12t12 -24q0 -15 -12 -29q-8 -10 -85 -95q-18 -19 -44 -19q-23 0 -40 18q-56 61 -87 97q-13 15 -13 29q0 12 11.5 23.5t25.5 11.5z" />
    <glyph glyph-name="Dcaron" unicode="&#x10e;" horiz-adv-x="681" 
d="M74 612q0 69 102 69h118q149 -5 248 -88t99 -231q0 -359 -380 -362q-100 0 -133 3q-23 2 -38 19.5t-15 43.5l2 241zM276 581q-66 0 -89 -2v-455q0 -17 12 -20t55 -3q277 0 277 250q0 114 -73 172t-182 58zM229 897q13 0 29 -14q15 -14 75 -76q56 60 74 77q13 13 30 13
q12 0 24 -12t12 -24q0 -15 -12 -29q-8 -10 -85 -95q-18 -19 -44 -19q-24 0 -40 18q-56 61 -87 97q-13 15 -13 29q0 12 11.5 23.5t25.5 11.5z" />
    <glyph glyph-name="dcaron" unicode="&#x10f;" horiz-adv-x="695" 
d="M615 616h-1q-16 2 -28.5 15.5t-12.5 35.5q-1 24 17 41.5t41 17.5q30 0 48.5 -19.5t18.5 -53.5q0 -35 -22.5 -70.5t-55.5 -55.5q-9 -6 -19 -6q-11 0 -19.5 7.5t-8.5 18.5q0 13 11 22q31 24 31 44v3zM511 674l-2 -231q0 -35 -0.5 -102.5t-0.5 -103.5q0 -13 1 -74t1 -121
q0 -48 -52 -48q-41 0 -48 38l-4 45q-52 -85 -148 -85q-98 0 -158 67t-60 157q0 105 66.5 175.5t166.5 70.5q40 0 74.5 -17t53.5 -48l-1 268q0 60 54 60q27 0 42.5 -12t14.5 -39zM150 220q0 -54 36 -93t87 -39q55 0 92.5 38t37.5 101q0 64 -35 102t-88 38q-55 0 -92.5 -41
t-37.5 -106z" />
    <glyph glyph-name="Dcroat" unicode="&#x110;" horiz-adv-x="685" 
d="M78 612q0 69 102 69h33h55h30q149 -5 248 -88t99 -231q0 -359 -380 -362q-100 0 -133 3q-23 2 -38 19.5t-15 43.5l1 215h-29q-47 0 -47 47q0 48 51 48h25zM280 581q-66 0 -89 -2v-203h76q48 0 48 -47q0 -49 -55 -49h-69v-156q0 -17 12 -20t55 -3q277 0 277 250
q0 114 -73 172t-182 58z" />
    <glyph glyph-name="dcroat" unicode="&#x111;" horiz-adv-x="575" 
d="M509 675v-57h35q46 0 46 -44t-50 -44h-31v-72q0 -34 -0.5 -102t-0.5 -103v-28q0 -13 1 -71t1 -112q0 -48 -52 -48q-41 0 -48 38l-4 45q-52 -85 -148 -85q-98 0 -158 67t-60 157q0 105 66.5 175.5t166.5 70.5q85 0 128 -65v133h-77q-48 0 -48 44t48 44h77v51q0 54 56 54
q52 0 52 -48zM150 220q0 -54 36 -93t87 -39q55 0 92.5 38t37.5 101q0 64 -35 102t-88 38q-55 0 -92.5 -41t-37.5 -106z" />
    <glyph glyph-name="Emacron" unicode="&#x112;" horiz-adv-x="546" 
d="M85 628q3 51 71 51q29 0 44 -1q72 0 152 1t95 1q54 0 54 -45q2 -42 -31 -50q-22 -1 -231 -1h-44v-96l-1 -94v-13h40q48 0 162 3q32 0 47 -9.5t14 -38.5q0 -47 -52 -47q-23 0 -108.5 -0.5t-104.5 -0.5q-1 -20 -1 -64q0 -20 -0.5 -63t-0.5 -64q40 -1 228 1q40 2 49 2
q44 0 44 -49q0 -52 -56 -53h-269q-63 0 -83.5 11.5t-22.5 51.5v37q0 1 0.5 16t1 42t1 60.5t1 79t0.5 89.5q0 40 0.5 121t0.5 122zM207 768q-46 0 -46 43q0 45 53 45q11 0 38.5 -0.5t40.5 -0.5q22 0 59 1t52 1q45 0 45 -43q1 -22 -14 -33.5t-44 -11.5h-96q-16 0 -46 -0.5
t-42 -0.5z" />
    <glyph glyph-name="emacron" unicode="&#x113;" horiz-adv-x="511" 
d="M151 200q3 -46 37.5 -78t84.5 -32q52 0 97 27q22 13 39 13q18 0 32 -16t14 -36q0 -26 -30 -46q-62 -40 -161 -40q-93 0 -157.5 64.5t-66.5 155.5q0 106 66.5 179.5t163.5 73.5q85 0 143.5 -56t58.5 -128q0 -43 -14.5 -60.5t-63.5 -18.5q-25 -1 -57 -1t-87 -0.5t-99 -0.5z
M272 376q-48 0 -81.5 -32t-38.5 -74q148 0 204 4q12 2 12 9q0 40 -28.5 66.5t-67.5 26.5zM169 578q-46 0 -46 43q0 45 53 45q10 0 38 -0.5t41 -0.5q22 0 59 1t52 1q45 0 45 -43q1 -22 -14 -33.5t-44 -11.5h-96q-16 0 -46 -0.5t-42 -0.5z" />
    <glyph glyph-name="Ebreve" unicode="&#x114;" horiz-adv-x="546" 
d="M85 628q3 51 71 51q29 0 44 -1q72 0 152 1t95 1q54 0 54 -45q2 -42 -31 -50q-22 -1 -231 -1h-44v-96l-1 -94v-13h40q48 0 162 3q32 0 47 -9.5t14 -38.5q0 -47 -52 -47q-23 0 -108.5 -0.5t-104.5 -0.5q-1 -20 -1 -64q0 -20 -0.5 -63t-0.5 -64q40 -1 228 1q40 2 49 2
q44 0 44 -49q0 -52 -56 -53h-269q-63 0 -83.5 11.5t-22.5 51.5v37q0 1 0.5 16t1 42t1 60.5t1 79t0.5 89.5q0 40 0.5 121t0.5 122zM404 884q16 0 26 -10.5t10 -24.5q0 -56 -38.5 -94t-98.5 -38q-54 0 -93.5 35.5t-41.5 89.5q0 17 10.5 28.5t27.5 11.5q15 0 24.5 -8.5
t11.5 -22.5q2 -27 18.5 -43t43.5 -16t44 18t19 42q2 32 37 32z" />
    <glyph glyph-name="ebreve" unicode="&#x115;" horiz-adv-x="511" 
d="M151 200q3 -46 37.5 -78t84.5 -32q52 0 97 27q22 13 39 13q18 0 32 -16t14 -36q0 -26 -30 -46q-62 -40 -161 -40q-93 0 -157.5 64.5t-66.5 155.5q0 106 66.5 179.5t163.5 73.5q85 0 143.5 -56t58.5 -128q0 -43 -14.5 -60.5t-63.5 -18.5q-25 -1 -57 -1t-87 -0.5t-99 -0.5z
M272 376q-48 0 -81.5 -32t-38.5 -74q148 0 204 4q12 2 12 9q0 40 -28.5 66.5t-67.5 26.5zM366 694q16 0 26 -10.5t10 -24.5q0 -56 -38.5 -94t-98.5 -38q-54 0 -93.5 35.5t-41.5 89.5q0 17 10.5 28.5t27.5 11.5q15 0 24.5 -8.5t11.5 -22.5q2 -27 18.5 -43t43.5 -16t44 18
t19 42q2 32 37 32z" />
    <glyph glyph-name="Edotaccent" unicode="&#x116;" horiz-adv-x="546" 
d="M85 628q3 51 71 51q29 0 44 -1q72 0 152 1t95 1q54 0 54 -45q2 -42 -31 -50q-22 -1 -231 -1h-44v-96l-1 -94v-13h40q48 0 162 3q32 0 47 -9.5t14 -38.5q0 -47 -52 -47q-23 0 -108.5 -0.5t-104.5 -0.5q-1 -20 -1 -64q0 -20 -0.5 -63t-0.5 -64q40 -1 228 1q40 2 49 2
q44 0 44 -49q0 -52 -56 -53h-269q-63 0 -83.5 11.5t-22.5 51.5v37q0 1 0.5 16t1 42t1 60.5t1 79t0.5 89.5q0 40 0.5 121t0.5 122zM299 749q-29 0 -47 20.5t-16 50.5q4 27 23.5 42.5t46.5 15.5q30 0 47 -18t17 -46q0 -31 -19.5 -48t-51.5 -17z" />
    <glyph glyph-name="edotaccent" unicode="&#x117;" horiz-adv-x="511" 
d="M151 200q3 -46 37.5 -78t84.5 -32q52 0 97 27q22 13 39 13q18 0 32 -16t14 -36q0 -26 -30 -46q-62 -40 -161 -40q-93 0 -157.5 64.5t-66.5 155.5q0 106 66.5 179.5t163.5 73.5q85 0 143.5 -56t58.5 -128q0 -43 -14.5 -60.5t-63.5 -18.5q-25 -1 -57 -1t-87 -0.5t-99 -0.5z
M272 376q-48 0 -81.5 -32t-38.5 -74q148 0 204 4q12 2 12 9q0 40 -28.5 66.5t-67.5 26.5zM261 559q-29 0 -47 20.5t-16 50.5q4 27 23.5 42.5t46.5 15.5q30 0 47 -18t17 -46q0 -31 -19.5 -48t-51.5 -17z" />
    <glyph glyph-name="Eogonek" unicode="&#x118;" horiz-adv-x="546" 
d="M399 -104q0 -17 9 -27t24 -10q9 0 20 2t19 2q30 0 30 -39q0 -38 -56 -45q-13 -2 -33 1q-40 5 -66 29t-26 68q0 68 72 121h-206q-63 0 -83.5 11.5t-22.5 51.5v11v14v14q0 3 1 44.5t2 108.5t1 132q0 37 0.5 112t0.5 112q1 41 16.5 55.5t54.5 14.5q30 0 44 -1q72 0 152 1
t95 1q54 0 54 -45q2 -42 -31 -50q-22 -1 -232 -1h-43q-1 -33 -1 -187v-16h40q30 0 89 1.5t87 1.5q48 0 48 -48q0 -25 -13.5 -36.5t-48.5 -11.5h-204q0 -31 -0.5 -95t-0.5 -96q44 0 135.5 0.5t140.5 0.5q44 0 44 -47q0 -44 -38 -52q-30 -15 -52 -45.5t-22 -57.5z" />
    <glyph glyph-name="eogonek" unicode="&#x119;" horiz-adv-x="511" 
d="M151 200q3 -46 37.5 -78t84.5 -32q52 0 97 27q22 13 39 13q18 0 32 -16t14 -36q0 -25 -30 -45q-30 -19 -49 -34.5t-37 -43t-18 -57.5q0 -18 9.5 -28.5t24.5 -10.5q10 0 21 2.5t18 2.5q14 0 22.5 -11t8.5 -29q0 -23 -21 -35t-53 -12q-46 0 -77.5 25.5t-31.5 75.5
q0 64 60 116q-24 -2 -38 -2q-93 0 -157.5 64.5t-66.5 155.5q0 106 66.5 179.5t163.5 73.5q85 0 143.5 -56t58.5 -128q0 -43 -14.5 -60.5t-63.5 -18.5q-25 -1 -57 -1t-87 -0.5t-99 -0.5zM272 376q-48 0 -81.5 -32t-38.5 -74q148 0 204 4q12 2 12 9q0 40 -28.5 66.5
t-67.5 26.5z" />
    <glyph glyph-name="Ecaron" unicode="&#x11a;" horiz-adv-x="546" 
d="M85 628q3 51 71 51q29 0 44 -1q72 0 152 1t95 1q54 0 54 -45q2 -42 -31 -50q-22 -1 -231 -1h-44v-96l-1 -94v-13h40q48 0 162 3q32 0 47 -9.5t14 -38.5q0 -47 -52 -47q-23 0 -108.5 -0.5t-104.5 -0.5q-1 -20 -1 -64q0 -20 -0.5 -63t-0.5 -64q40 -1 228 1q40 2 49 2
q44 0 44 -49q0 -52 -56 -53h-269q-63 0 -83.5 11.5t-22.5 51.5v37q0 1 0.5 16t1 42t1 60.5t1 79t0.5 89.5q0 40 0.5 121t0.5 122zM200 897q13 0 29 -14q15 -14 75 -76q56 60 74 77q13 13 30 13q12 0 24 -12t12 -24q0 -15 -12 -29q-8 -10 -85 -95q-18 -19 -44 -19
q-23 0 -40 18q-56 61 -87 97q-13 15 -13 29q0 12 11.5 23.5t25.5 11.5z" />
    <glyph glyph-name="ecaron" unicode="&#x11b;" horiz-adv-x="511" 
d="M151 200q3 -46 37.5 -78t84.5 -32q52 0 97 27q22 13 39 13q18 0 32 -16t14 -36q0 -26 -30 -46q-62 -40 -161 -40q-93 0 -157.5 64.5t-66.5 155.5q0 106 66.5 179.5t163.5 73.5q85 0 143.5 -56t58.5 -128q0 -43 -14.5 -60.5t-63.5 -18.5q-25 -1 -57 -1t-87 -0.5t-99 -0.5z
M272 376q-48 0 -81.5 -32t-38.5 -74q148 0 204 4q12 2 12 9q0 40 -28.5 66.5t-67.5 26.5zM162 707q13 0 29 -14q15 -14 75 -76q56 60 74 77q13 13 30 13q12 0 24 -12t12 -24q0 -15 -12 -29q-8 -10 -85 -95q-18 -19 -44 -19q-23 0 -40 18q-56 61 -87 97q-13 15 -13 29
q0 12 11.5 23.5t25.5 11.5z" />
    <glyph glyph-name="Gcircumflex" unicode="&#x11c;" horiz-adv-x="713" 
d="M388 687q108 0 192 -52q35 -21 35 -47q0 -20 -13 -36.5t-33 -16.5t-53 19q-58 35 -132 35q-87 0 -156.5 -71.5t-69.5 -171.5q0 -117 61.5 -184.5t163.5 -67.5q81 0 130.5 55t51.5 129h-113q-21 1 -32.5 14.5t-11.5 33.5q0 46 47 47h156q37 0 50.5 -19t13.5 -57
q-1 -134 -83.5 -219.5t-219.5 -85.5q-140 0 -232.5 96.5t-92.5 250.5q0 147 101.5 247.5t239.5 100.5zM487 719q-15 0 -29 14q-23 21 -75 76q-65 -69 -75 -77q-13 -13 -29 -13q-12 0 -24.5 12t-12.5 24q0 14 12 29l86 95q18 19 43 19q23 0 40 -18q51 -53 87 -97
q13 -15 13 -28q0 -11 -11.5 -23.5t-24.5 -12.5z" />
    <glyph glyph-name="gcircumflex" unicode="&#x11d;" horiz-adv-x="569" 
d="M261 -130q56 0 95.5 38t39.5 97v59q-22 -32 -58.5 -51.5t-80.5 -19.5q-95 0 -156.5 66.5t-61.5 159.5q0 105 65 175t163 70q84 0 134 -70l1 31q2 16 16 25.5t35 9.5q22 0 36.5 -13.5t14.5 -34.5q0 -56 -1 -154t-1 -158l2 -98q1 -102 -68 -169t-174 -67q-85 0 -141 28
q-38 20 -38 53q0 21 14 37.5t34 16.5q9 0 45 -15q46 -16 85 -16zM149 222q0 -58 35.5 -94.5t87.5 -36.5q53 0 90 36.5t37 100.5q0 68 -35 104t-87 37q-55 0 -91.5 -41t-36.5 -106zM387 529q-15 0 -29 14q-23 21 -75 76q-65 -69 -75 -77q-13 -13 -29 -13q-12 0 -24.5 12
t-12.5 24q0 14 12 29l86 95q18 19 43 19q23 0 40 -18q51 -53 87 -97q13 -15 13 -28q0 -11 -11.5 -23.5t-24.5 -12.5z" />
    <glyph glyph-name="Gbreve" unicode="&#x11e;" horiz-adv-x="713" 
d="M388 687q108 0 192 -52q35 -21 35 -47q0 -20 -13 -36.5t-33 -16.5t-53 19q-58 35 -132 35q-87 0 -156.5 -71.5t-69.5 -171.5q0 -117 61.5 -184.5t163.5 -67.5q81 0 130.5 55t51.5 129h-113q-21 1 -32.5 14.5t-11.5 33.5q0 46 47 47h156q37 0 50.5 -19t13.5 -57
q-1 -134 -83.5 -219.5t-219.5 -85.5q-140 0 -232.5 96.5t-92.5 250.5q0 147 101.5 247.5t239.5 100.5zM483 884q16 0 26 -10.5t10 -24.5q0 -56 -38.5 -94t-98.5 -38q-54 0 -93.5 35.5t-41.5 89.5q0 17 10.5 28.5t27.5 11.5q15 0 24.5 -8.5t11.5 -22.5q2 -27 18.5 -43
t43.5 -16t44 18t19 42q2 32 37 32z" />
    <glyph glyph-name="gbreve" unicode="&#x11f;" horiz-adv-x="569" 
d="M261 -130q56 0 95.5 38t39.5 97v59q-22 -32 -58.5 -51.5t-80.5 -19.5q-95 0 -156.5 66.5t-61.5 159.5q0 105 65 175t163 70q84 0 134 -70l1 31q2 16 16 25.5t35 9.5q22 0 36.5 -13.5t14.5 -34.5q0 -56 -1 -154t-1 -158l2 -98q1 -102 -68 -169t-174 -67q-85 0 -141 28
q-38 20 -38 53q0 21 14 37.5t34 16.5q9 0 45 -15q46 -16 85 -16zM149 222q0 -58 35.5 -94.5t87.5 -36.5q53 0 90 36.5t37 100.5q0 68 -35 104t-87 37q-55 0 -91.5 -41t-36.5 -106zM383 694q16 0 26 -10.5t10 -24.5q0 -56 -38.5 -94t-98.5 -38q-54 0 -93.5 35.5t-41.5 89.5
q0 17 10.5 28.5t27.5 11.5q15 0 24.5 -8.5t11.5 -22.5q2 -27 18.5 -43t43.5 -16t44 18t19 42q2 32 37 32z" />
    <glyph glyph-name="Gdotaccent" unicode="&#x120;" horiz-adv-x="713" 
d="M388 687q108 0 192 -52q35 -21 35 -47q0 -20 -13 -36.5t-33 -16.5t-53 19q-58 35 -132 35q-87 0 -156.5 -71.5t-69.5 -171.5q0 -117 61.5 -184.5t163.5 -67.5q81 0 130.5 55t51.5 129h-113q-21 1 -32.5 14.5t-11.5 33.5q0 46 47 47h156q37 0 50.5 -19t13.5 -57
q-1 -134 -83.5 -219.5t-219.5 -85.5q-140 0 -232.5 96.5t-92.5 250.5q0 147 101.5 247.5t239.5 100.5zM378 749q-29 0 -47 20.5t-16 50.5q4 27 23.5 42.5t46.5 15.5q30 0 47 -18t17 -46q0 -31 -19.5 -48t-51.5 -17z" />
    <glyph glyph-name="gdotaccent" unicode="&#x121;" horiz-adv-x="569" 
d="M261 -130q56 0 95.5 38t39.5 97v59q-22 -32 -58.5 -51.5t-80.5 -19.5q-95 0 -156.5 66.5t-61.5 159.5q0 105 65 175t163 70q84 0 134 -70l1 31q2 16 16 25.5t35 9.5q22 0 36.5 -13.5t14.5 -34.5q0 -56 -1 -154t-1 -158l2 -98q1 -102 -68 -169t-174 -67q-85 0 -141 28
q-38 20 -38 53q0 21 14 37.5t34 16.5q9 0 45 -15q46 -16 85 -16zM149 222q0 -58 35.5 -94.5t87.5 -36.5q53 0 90 36.5t37 100.5q0 68 -35 104t-87 37q-55 0 -91.5 -41t-36.5 -106zM277 559q-29 0 -47 20.5t-16 50.5q4 27 23.5 42.5t46.5 15.5q30 0 47 -18t17 -46
q0 -31 -19.5 -48t-51.5 -17z" />
    <glyph glyph-name="Gcommaaccent" unicode="&#x122;" horiz-adv-x="713" 
d="M388 687q108 0 192 -52q35 -21 35 -47q0 -20 -13 -36.5t-33 -16.5t-53 19q-58 35 -132 35q-87 0 -156.5 -71.5t-69.5 -171.5q0 -117 61.5 -184.5t163.5 -67.5q81 0 130.5 55t51.5 129h-113q-21 1 -32.5 14.5t-11.5 33.5q0 46 47 47h156q37 0 50.5 -19t13.5 -57
q-1 -134 -83.5 -219.5t-219.5 -85.5q-140 0 -232.5 96.5t-92.5 250.5q0 147 101.5 247.5t239.5 100.5zM300 -199q0 8 14 22.5t18 23.5q4 7 -9.5 21.5t-13.5 29.5q0 21 15 35.5t38 14.5t39 -14.5t16 -38.5q0 -60 -67 -110q-16 -8 -26 -8t-17 6.5t-7 17.5z" />
    <glyph glyph-name="gcommaaccent" unicode="&#x123;" horiz-adv-x="569" 
d="M329 674q0 -7 -14.5 -23t-14.5 -29q0 -3 11 -16t11 -30q0 -21 -15 -35.5t-38 -14.5t-39.5 15t-16.5 39q0 59 68 109q10 8 25 8q10 0 16.5 -6t6.5 -17zM261 -130q56 0 95.5 38t39.5 97v59q-22 -32 -58.5 -51.5t-80.5 -19.5q-95 0 -156.5 66.5t-61.5 159.5q0 105 65 175
t163 70q84 0 134 -70l1 31q2 16 16 25.5t35 9.5q22 0 36.5 -13.5t14.5 -34.5q0 -56 -1 -154t-1 -158l2 -98q1 -102 -68 -169t-174 -67q-85 0 -141 28q-38 20 -38 53q0 21 14 37.5t34 16.5q9 0 45 -15q46 -16 85 -16zM149 222q0 -58 35.5 -94.5t87.5 -36.5q53 0 90 36.5
t37 100.5q0 68 -35 104t-87 37q-55 0 -91.5 -41t-36.5 -106z" />
    <glyph glyph-name="Hcircumflex" unicode="&#x124;" horiz-adv-x="702" 
d="M620 334l4 -290q0 -49 -58 -49q-56 0 -56 49v84l-1 149q-50 0 -156.5 -1t-161.5 -1l2 -234q0 -46 -59 -46q-55 0 -55 47q0 40 1.5 165t0.5 193l-4 229q0 51 59 51q54 0 54 -43v-106q0 -75 1 -154q1 0 31.5 -0.5t64.5 -0.5q26 0 85.5 0.5t86.5 0.5l51 1q0 45 -0.5 134
t-0.5 116q1 55 57 55q55 0 55 -54q0 -164 -1 -295zM455 719q-15 0 -29 14q-23 21 -75 76q-65 -69 -75 -77q-13 -13 -29 -13q-12 0 -24.5 12t-12.5 24q0 14 12 29l86 95q18 19 43 19q23 0 40 -18q51 -53 87 -97q13 -15 13 -28q0 -11 -11.5 -23.5t-24.5 -12.5z" />
    <glyph glyph-name="hcircumflex" unicode="&#x125;" horiz-adv-x="555" 
d="M69 670q0 60 58 60q53 0 53 -54q0 -13 -0.5 -37.5t-1 -93.5t-1.5 -158q19 36 57 57.5t84 21.5q84 0 131 -57t47 -146v-65v-80v-74q-1 -47 -59 -47q-23 0 -39 12t-16 35q5 95 5 211q0 54 -25.5 83.5t-71.5 29.5t-80 -36.5t-34 -92.5q0 -32 1 -104t1 -93q0 -23 -15.5 -35
t-41.5 -12q-24 0 -39 12.5t-15 34.5q0 24 1.5 71t1.5 62zM229 737q-15 0 -29 14q-23 21 -75 76q-65 -69 -75 -77q-13 -13 -29 -13q-12 0 -24.5 12t-12.5 24q0 14 12 29l86 95q18 19 43 19q23 0 40 -18q51 -53 87 -97q13 -15 13 -28q0 -11 -11.5 -23.5t-24.5 -12.5z" />
    <glyph glyph-name="Hbar" unicode="&#x126;" horiz-adv-x="702" 
d="M620 334l4 -290q0 -49 -58 -49t-56 66v67q0 25 -0.5 74.5t-0.5 74.5q-52 0 -156.5 -0.5t-161.5 -0.5q0 -39 0.5 -117.5t1.5 -117.5q0 -46 -59 -46q-55 0 -55 47q0 61 0.5 185t0.5 186v66h-33q-39 0 -39 39t45 39h27v72q0 52 56 52q55 0 55 -46v-78h320v73q0 53 55 53
q54 0 54 -54v-72h30q41 0 41 -37q0 -41 -44 -41h-27v-145zM191 377h319v102h-319v-102z" />
    <glyph glyph-name="hbar" unicode="&#x127;" horiz-adv-x="555" 
d="M69 671q0 59 58 59q53 0 53 -53l-1 -64h67q43 0 45 -39q0 -43 -52 -43h-61q-1 -35 -1 -144q19 36 57 57.5t84 21.5q84 0 131 -57t47 -146v-219q-1 -47 -59 -47q-23 0 -39 12t-16 35q5 95 5 211q0 54 -25.5 83.5t-71.5 29.5t-80 -36.5t-34 -92.5q0 -32 1 -104t1 -93
q0 -23 -15.5 -35t-41.5 -12q-24 0 -39 12.5t-15 34.5q0 24 1.5 71t1.5 62l-1 356h-38q-42 0 -42 39q0 43 47 43h33v58z" />
    <glyph glyph-name="Itilde" unicode="&#x128;" horiz-adv-x="286" 
d="M89 411q0 45 -2 219q0 27 16.5 40t41.5 13q24 0 39 -12.5t15 -35.5v-243q0 -24 -0.5 -82t-0.5 -76l1 -183q1 -28 -14.5 -41.5t-41.5 -13.5q-25 0 -41 13t-16 39q0 12 0.5 42.5t0.5 46.5zM58 767q-2 -26 -37 -26q-16 0 -26.5 12t-11.5 32q3 40 29 64t66 24
q27 0 48.5 -14.5t38.5 -29t33 -15.5q24 0 26 32q4 28 38 28q15 0 26 -10t11 -25q0 -50 -25.5 -75.5t-67.5 -25.5q-34 1 -67.5 29t-51.5 29q-25 0 -29 -29z" />
    <glyph glyph-name="itilde" unicode="&#x129;" horiz-adv-x="252" 
d="M71 412q1 26 16.5 38t36.5 12q27 0 42 -13.5t15 -47.5q1 -38 0 -114t0 -113v-125q1 -27 -13.5 -40.5t-42.5 -13.5q-24 0 -39 12t-15 35v370zM41 577q-2 -26 -37 -26q-16 0 -26.5 12t-11.5 32q3 40 29 64t66 24q27 0 48.5 -14.5t38.5 -29t33 -15.5q24 0 26 32q4 28 38 28
q15 0 26 -10t11 -25q0 -50 -25.5 -75.5t-67.5 -25.5q-34 1 -67.5 29t-51.5 29q-25 0 -29 -29z" />
    <glyph glyph-name="Imacron" unicode="&#x12a;" horiz-adv-x="286" 
d="M89 411q0 45 -2 219q0 27 16.5 40t41.5 13q24 0 39 -12.5t15 -35.5v-243q0 -24 -0.5 -82t-0.5 -76l1 -183q1 -28 -14.5 -41.5t-41.5 -13.5q-25 0 -41 13t-16 39q0 12 0.5 42.5t0.5 46.5zM48 768q-46 0 -46 43q0 45 53 45q11 0 38 -0.5t41 -0.5q22 0 59 1t52 1
q45 0 45 -43q1 -22 -14 -33.5t-44 -11.5h-96q-16 0 -46 -0.5t-42 -0.5z" />
    <glyph glyph-name="imacron" unicode="&#x12b;" horiz-adv-x="252" 
d="M71 412q1 26 16.5 38t36.5 12q27 0 42 -13.5t15 -47.5q1 -38 0 -114t0 -113v-125q1 -27 -13.5 -40.5t-42.5 -13.5q-24 0 -39 12t-15 35v370zM31 578q-46 0 -46 43q0 45 53 45q10 0 38 -0.5t41 -0.5q22 0 59 1t52 1q45 0 45 -43q1 -22 -14 -33.5t-44 -11.5h-96
q-16 0 -46 -0.5t-42 -0.5z" />
    <glyph glyph-name="Ibreve" unicode="&#x12c;" horiz-adv-x="286" 
d="M89 411q0 45 -2 219q0 27 16.5 40t41.5 13q24 0 39 -12.5t15 -35.5v-243q0 -24 -0.5 -82t-0.5 -76l1 -183q1 -28 -14.5 -41.5t-41.5 -13.5q-25 0 -41 13t-16 39q0 12 0.5 42.5t0.5 46.5zM245 884q16 0 26 -10.5t10 -24.5q0 -56 -38.5 -94t-98.5 -38q-54 0 -93.5 35.5
t-41.5 89.5q0 17 10.5 28.5t27.5 11.5q15 0 24.5 -8.5t11.5 -22.5q2 -27 18.5 -43t43.5 -16t44 18t19 42q2 32 37 32z" />
    <glyph glyph-name="ibreve" unicode="&#x12d;" horiz-adv-x="252" 
d="M71 412q1 26 16.5 38t36.5 12q27 0 42 -13.5t15 -47.5q1 -38 0 -114t0 -113v-125q1 -27 -13.5 -40.5t-42.5 -13.5q-24 0 -39 12t-15 35v370zM228 694q16 0 26 -10.5t10 -24.5q0 -56 -38.5 -94t-98.5 -38q-54 0 -93.5 35.5t-41.5 89.5q0 17 10.5 28.5t27.5 11.5
q15 0 24.5 -8.5t11.5 -22.5q2 -27 18.5 -43t43.5 -16t44 18t19 42q2 32 37 32z" />
    <glyph glyph-name="Iogonek" unicode="&#x12e;" horiz-adv-x="286" 
d="M89 411q0 88 -2 216q0 56 57 56q23 0 39 -12t16 -36v-219v-40q0 -24 -0.5 -75t-0.5 -67q0 -30 0.5 -91t0.5 -92q0 -39 -24 -49q-74 -60 -74 -106q0 -17 9 -27t24 -10q9 0 20 2t18 2q13 0 21.5 -11.5t8.5 -28.5q0 -23 -20.5 -34.5t-52.5 -11.5q-46 0 -76.5 25t-30.5 75
q0 71 85 130q-21 13 -21 55q0 3 0.5 31.5t0.5 61.5q0 42 1 127.5t1 128.5z" />
    <glyph glyph-name="iogonek" unicode="&#x12f;" horiz-adv-x="254" 
d="M72 412q1 26 16.5 38t36.5 12q27 0 42 -13.5t15 -47.5v-114v-113v-125q0 -33 -23 -47q-64 -56 -64 -106q0 -17 9 -27t24 -10q9 0 20 2.5t18 2.5q14 0 22.5 -11t8.5 -29q0 -47 -72 -47q-46 0 -77.5 25.5t-31.5 74.5q0 67 77 126q-21 12 -21 39v370zM123 581
q-31 0 -49.5 21.5t-14.5 53.5q4 28 25 43.5t47 15.5q33 0 50.5 -19t17.5 -49q0 -33 -21 -49.5t-55 -16.5z" />
    <glyph glyph-name="Idotaccent" unicode="&#x130;" horiz-adv-x="286" 
d="M89 411q0 45 -2 219q0 27 16.5 40t41.5 13q24 0 39 -12.5t15 -35.5v-243q0 -24 -0.5 -82t-0.5 -76l1 -183q1 -28 -14.5 -41.5t-41.5 -13.5q-25 0 -41 13t-16 39q0 12 0.5 42.5t0.5 46.5zM140 749q-29 0 -47 20.5t-16 50.5q4 27 23.5 42.5t46.5 15.5q30 0 47 -18t17 -46
q0 -31 -19.5 -48t-51.5 -17z" />
    <glyph glyph-name="dotlessi" unicode="&#x131;" horiz-adv-x="252" 
d="M71 412q1 26 16.5 38t36.5 12q27 0 42 -13.5t15 -47.5q1 -38 0 -114t0 -113v-125q1 -27 -13.5 -40.5t-42.5 -13.5q-24 0 -39 12t-15 35v370z" />
    <glyph glyph-name="IJ" unicode="&#x132;" horiz-adv-x="774" 
d="M89 411q0 45 -2 219q0 27 16.5 40t41.5 13q24 0 39 -12.5t15 -35.5v-243q0 -24 -0.5 -82t-0.5 -76l1 -183q1 -28 -14.5 -41.5t-41.5 -13.5q-25 0 -41 13t-16 39q0 12 0.5 42.5t0.5 46.5zM581 329l-6 301q-1 25 14.5 40t40.5 15q60 0 60 -53q0 -42 2 -129.5t2 -133.5
q0 -81 -1 -119q-7 -257 -226 -257q-41 0 -78.5 16t-58.5 34q-28 25 -28 53q0 22 13.5 37t34.5 15q19 0 56 -28q29 -23 65 -23q67 0 88.5 57t21.5 175z" />
    <glyph glyph-name="ij" unicode="&#x133;" horiz-adv-x="501" 
d="M72 412q1 26 16.5 38t36.5 12q27 0 42 -13.5t15 -47.5v-114v-113v-125q1 -27 -13.5 -40.5t-42.5 -13.5q-24 0 -39 12t-15 35v370zM123 581q-31 0 -49.5 21.5t-14.5 53.5q4 28 25 43.5t47 15.5q33 0 50.5 -19t17.5 -49q0 -33 -21 -49.5t-55 -16.5zM323 418q1 20 17.5 32
t39.5 12q24 0 39 -11t15 -33q0 -33 -0.5 -114.5t-0.5 -130.5q0 -205 -2 -257q-2 -61 -50.5 -105.5t-118.5 -44.5q-97 -2 -97 59q0 24 12 38.5t28 14.5q9 0 26 -4.5t30 -3.5q60 0 63 96q2 52 1 286q-2 104 -2 166zM372 577q-31 0 -50 18.5t-19 50.5q0 31 21.5 49.5t53.5 18.5
q33 0 52 -19t19 -50q0 -68 -77 -68z" />
    <glyph glyph-name="Jcircumflex" unicode="&#x134;" horiz-adv-x="487" 
d="M295 329l-6 301q-1 25 14.5 40t40.5 15q60 0 60 -53q0 -42 2 -129.5t2 -133.5q0 -81 -1 -119q-7 -257 -226 -257q-41 0 -78.5 16t-58.5 34q-28 25 -28 53q0 22 13.5 37t34.5 15q19 0 56 -28q29 -23 65 -23q67 0 88.5 57t21.5 175zM450 719q-15 0 -29 14q-23 21 -75 76
q-65 -69 -75 -77q-13 -13 -29 -13q-12 0 -24.5 12t-12.5 24q0 14 12 29l86 95q18 19 43 19q24 0 40 -18q51 -53 87 -97q13 -15 13 -28q0 -11 -11.5 -23.5t-24.5 -12.5z" />
    <glyph glyph-name="jcircumflex" unicode="&#x135;" horiz-adv-x="245" 
d="M68 418q1 20 17.5 32t39.5 12q24 0 39 -11t15 -33q0 -33 -0.5 -114.5t-0.5 -130.5q0 -205 -2 -257q-2 -61 -50.5 -105.5t-118.5 -44.5q-97 -2 -97 59q0 24 12 38.5t28 14.5q9 0 26 -4.5t30 -3.5q60 0 63 96q2 52 1 286q-2 104 -2 166zM229 529q-15 0 -29 14
q-23 21 -75 76q-65 -69 -75 -77q-13 -13 -29 -13q-12 0 -24.5 12t-12.5 24q0 14 12 29l86 95q18 19 43 19q23 0 40 -18q51 -53 87 -97q13 -15 13 -28q0 -11 -11.5 -23.5t-24.5 -12.5z" />
    <glyph glyph-name="Kcommaaccent" unicode="&#x136;" horiz-adv-x="616" 
d="M191 351q150 165 262 301q26 31 52 31q22 0 40 -16.5t18 -35.5q0 -22 -19 -44q-41 -47 -170 -183l-35 -39l143 -171l84 -97q23 -23 23 -48q0 -23 -19 -39.5t-42 -16.5q-27 0 -47 26q-2 2 -30 38l-186 240q-13 -15 -40 -42t-36 -37l1 -176q0 -46 -56 -48q-26 0 -41.5 13
t-15.5 36q0 9 0.5 33.5t0.5 42.5q0 93 1 253t1 257q0 54 57 54q55 0 55 -50q0 -49 -0.5 -144t-0.5 -138zM248 -199q0 8 14 22.5t18 23.5q4 7 -9.5 21.5t-13.5 29.5q0 21 15 35.5t38 14.5t39 -14.5t16 -38.5q0 -60 -67 -110q-16 -8 -26 -8t-17 6.5t-7 17.5z" />
    <glyph glyph-name="kcommaaccent" unicode="&#x137;" horiz-adv-x="479" 
d="M292 249l152 -169q14 -17 14 -32q0 -18 -17.5 -35.5t-39.5 -17.5q-23 0 -47 31l-136 165q-20 -18 -43 -41l-1 -98q0 -57 -53 -57q-56 0 -54 59l2 110q0 75 -0.5 218.5t-0.5 220.5q0 54 -1 75q0 25 16 38t40 13q55 0 55 -54q0 -9 -3 -408l168 172q25 27 48 27
q19 0 36.5 -17t17.5 -36q0 -16 -20 -38q-10 -11 -133 -126zM195 -199q0 8 14 22.5t18 23.5q4 7 -9.5 21.5t-13.5 29.5q0 21 15 35.5t38 14.5t39 -14.5t16 -38.5q0 -60 -67 -110q-16 -8 -26 -8t-17 6.5t-7 17.5z" />
    <glyph glyph-name="kgreenlandic" unicode="&#x138;" horiz-adv-x="479" 
d="M298 235l143 -153q17 -19 17 -35q0 -18 -17.5 -35t-39.5 -17q-23 0 -47 31l-136 162l-43 -1l-1 -135q0 -57 -53 -57q-56 0 -54 59l1 113l-1 243q0 26 16 40t40 14q53 0 53 -57l-1 -123h32q24 2 44.5 33.5t42.5 71t46 54.5q27 19 60 19q20 0 34.5 -15.5t13.5 -36.5
q0 -31 -35 -45q-32 -13 -64.5 -65.5t-50.5 -64.5z" />
    <glyph glyph-name="Lacute" unicode="&#x139;" horiz-adv-x="502" 
d="M81 631q1 24 18 37.5t42 13.5q51 0 52 -51q0 -29 -0.5 -64t-1.5 -78.5t-1 -68.5q0 -31 -0.5 -94t-0.5 -93q0 -48 -0.5 -79t-0.5 -43v-13q82 0 106 1l143 5q49 0 49 -47q0 -57 -52 -57l-114 1q-100 0 -141 -2q-57 -2 -77.5 10.5t-24.5 53.5v38q0 42 2.5 126.5t2.5 119.5
q0 48 -0.5 150t-0.5 134zM132 732q-14 -11 -29 -11q-12 0 -26.5 12.5t-14.5 26.5q0 11 10 26l90 104q18 21 37 21t35.5 -15.5t16.5 -34.5q0 -14 -16 -32q-46 -49 -103 -97z" />
    <glyph glyph-name="lacute" unicode="&#x13a;" horiz-adv-x="251" 
d="M234 843l-84 -82q-14 -12 -31 -12q-13 0 -27 12.5t-14 26.5t10 27l72 89q18 21 38 21q19 0 35.5 -15.5t16.5 -34.5q0 -14 -16 -32zM72 669q1 26 17 39.5t41 13.5q56 0 56 -62q-5 -268 -5 -489q0 -26 2 -71t2 -56q-1 -24 -12.5 -36t-38.5 -14q-29 -2 -45 16t-17 61
q-3 79 0 598z" />
    <glyph glyph-name="Lcommaaccent" unicode="&#x13b;" horiz-adv-x="502" 
d="M81 631q1 24 18 37.5t42 13.5q51 0 52 -51q0 -29 -0.5 -64t-1.5 -78.5t-1 -68.5q0 -31 -0.5 -94t-0.5 -93q0 -48 -0.5 -79t-0.5 -43v-13q82 0 106 1l143 5q49 0 49 -47q0 -57 -52 -57l-114 1q-100 0 -141 -2q-57 -2 -77.5 10.5t-24.5 53.5v38q0 42 2.5 126.5t2.5 119.5
q0 48 -0.5 150t-0.5 134zM215 -199q0 8 14 22.5t18 23.5q4 7 -9.5 21.5t-13.5 29.5q0 21 15 35.5t38 14.5t39 -14.5t16 -38.5q0 -60 -67 -110q-16 -8 -26 -8t-17 6.5t-7 17.5z" />
    <glyph glyph-name="lcommaaccent" unicode="&#x13c;" horiz-adv-x="251" 
d="M72 669q1 26 17 39.5t41 13.5q56 0 56 -62q-5 -268 -5 -489q0 -26 2 -71t2 -56q-1 -24 -12.5 -36t-38.5 -14q-29 -2 -45 16t-17 61q-3 79 0 598zM67 -199q0 8 14 22.5t18 23.5q4 7 -9.5 21.5t-13.5 29.5q0 21 15 35.5t38 14.5t39 -14.5t16 -38.5q0 -60 -67 -110
q-16 -8 -26 -8t-17 6.5t-7 17.5z" />
    <glyph glyph-name="Lcaron" unicode="&#x13d;" horiz-adv-x="512" 
d="M419 566h-1q-17 2 -30 15.5t-14 36.5q0 26 18.5 44.5t43.5 18.5q31 0 50 -20.5t19 -56.5q0 -37 -23 -73t-57 -57q-11 -7 -20 -7q-12 0 -21 8t-9 19q0 14 12 24q32 24 32 44v4zM81 631q1 24 18 37.5t42 13.5q51 0 52 -51q0 -29 -0.5 -64t-1.5 -78.5t-1 -68.5
q0 -31 -0.5 -94t-0.5 -93q0 -48 -0.5 -79t-0.5 -43v-13q82 0 106 1l143 5q49 0 49 -47q0 -57 -52 -57l-114 1q-100 0 -141 -2q-57 -2 -77.5 10.5t-24.5 53.5v38q0 42 2.5 126.5t2.5 119.5q0 48 -0.5 150t-0.5 134z" />
    <glyph glyph-name="lcaron" unicode="&#x13e;" horiz-adv-x="367" 
d="M287 616h-1q-16 2 -28.5 15.5t-12.5 35.5q-1 24 17 41.5t41 17.5q30 0 48.5 -19.5t18.5 -53.5q0 -35 -22.5 -70.5t-55.5 -55.5q-9 -6 -19 -6q-11 0 -19.5 7.5t-8.5 18.5q0 13 11 22q31 24 31 44v3zM72 669q1 26 17 39.5t41 13.5q56 0 56 -62q-5 -268 -5 -489q0 -26 2 -71
t2 -56q-1 -24 -12.5 -36t-38.5 -14q-29 -2 -45 16t-17 61q-3 79 0 598z" />
    <glyph glyph-name="Ldot" unicode="&#x13f;" horiz-adv-x="502" 
d="M81 631q1 24 18 37.5t42 13.5q51 0 52 -51q0 -29 -0.5 -64t-1.5 -78.5t-1 -68.5q0 -31 -0.5 -94t-0.5 -93q0 -48 -0.5 -79t-0.5 -43v-13q82 0 106 1l143 5q49 0 49 -47q0 -57 -52 -57l-114 1q-100 0 -141 -2q-57 -2 -77.5 10.5t-24.5 53.5v38q0 42 2.5 126.5t2.5 119.5
q0 48 -0.5 150t-0.5 134zM394 291q-29 0 -47.5 18.5t-18.5 46.5q0 30 20 49.5t51 19.5q29 0 48.5 -19t19.5 -48q0 -31 -20 -49t-53 -18z" />
    <glyph glyph-name="ldot" unicode="&#x140;" horiz-adv-x="398" 
d="M72 669q1 26 17 39.5t41 13.5q56 0 56 -62q-5 -268 -5 -489q0 -26 2 -71t2 -56q-1 -24 -12.5 -36t-38.5 -14q-29 -2 -45 16t-17 61q-3 79 0 598zM317 232q-29 0 -47.5 18.5t-18.5 46.5q0 30 20 49.5t51 19.5q29 0 48.5 -19t19.5 -48q0 -31 -20 -49t-53 -18z" />
    <glyph glyph-name="Lslash" unicode="&#x141;" horiz-adv-x="502" 
d="M81 631q1 24 18 37.5t42 13.5q52 0 52 -52l-2 -189v-46l57 33q17 11 37 11q16 0 28 -16t12 -34q0 -25 -36 -45l-98 -55v-56l-1 -135q80 0 104 1l143 4q49 1 49 -46q0 -57 -52 -57l-257 -1q-56 -2 -78 13t-21 56l3 134v28l-27 -15q-12 -6 -21 -6q-17 0 -29.5 16t-12.5 33
q1 26 32 43l58 33v297z" />
    <glyph glyph-name="lslash" unicode="&#x142;" horiz-adv-x="271" 
d="M82 72v176l-21 -13q-18 -12 -31 -12q-17 0 -29 15t-12 32q0 27 31 46l62 39q0 47 0.5 148.5t0.5 148.5q0 68 57 68q55 0 55 -56q-2 -144 -2 -243l23 15q11 7 23 7q17 0 29.5 -14.5t12.5 -33.5q0 -27 -36 -48l-53 -34v-150q0 -17 2 -58.5t2 -53.5q0 -56 -50 -56
q-34 0 -49 18.5t-15 58.5z" />
    <glyph glyph-name="Nacute" unicode="&#x143;" horiz-adv-x="713" 
d="M188 58q0 -62 -53 -62q-57 0 -58 50q0 61 1 250v224v110q0 23 20 36.5t47 13.5q22 0 37.5 -12.5t33.5 -37.5l233 -329l80 -114q-2 104 -2 203l-2 220q-1 35 11.5 52.5t45.5 17.5q53 0 53 -64q0 -55 -0.5 -168t-0.5 -167q2 -108 2 -231q0 -24 -19 -38.5t-47 -14.5
q-21 0 -34.5 11t-33.5 38l-318 455q0 -31 4 -443zM348 732q-14 -11 -29 -11q-12 0 -26.5 12.5t-14.5 26.5q0 11 10 26l90 104q18 21 37 21t35.5 -15.5t16.5 -34.5q0 -14 -16 -32q-46 -49 -103 -97z" />
    <glyph glyph-name="nacute" unicode="&#x144;" horiz-adv-x="559" 
d="M70 310l-1 88q-2 64 56 64q25 0 36 -11.5t13 -37.5l2 -35q17 40 59 63.5t90 23.5q83 0 128 -52t45 -145q0 -17 -0.5 -54.5t-0.5 -74.5v-86q0 -56 -59 -56q-23 0 -37.5 12t-14.5 36q0 28 1.5 94t1.5 98q-1 61 -20 96.5t-71 35.5q-38 0 -63 -12.5t-37 -38t-16.5 -53
t-4.5 -66.5l1 -157q0 -25 -16.5 -36t-38.5 -11q-55 0 -55 48q0 11 1.5 95.5t0.5 171.5zM277 542q-14 -11 -29 -11q-12 0 -26.5 12.5t-14.5 26.5q0 11 10 26l90 104q17 21 37 21q19 0 35.5 -15.5t16.5 -34.5q0 -14 -16 -32q-46 -49 -103 -97z" />
    <glyph glyph-name="Ncommaaccent" unicode="&#x145;" horiz-adv-x="713" 
d="M188 58q0 -62 -53 -62q-57 0 -58 50q0 61 1 250v224v110q0 23 20 36.5t47 13.5q22 0 37.5 -12.5t33.5 -37.5l233 -329l80 -114q-2 104 -2 203l-2 220q-1 35 11.5 52.5t45.5 17.5q53 0 53 -64q0 -55 -0.5 -168t-0.5 -167q2 -108 2 -231q0 -24 -19 -38.5t-47 -14.5
q-21 0 -34.5 11t-33.5 38l-318 455q0 -31 4 -443zM295 -199q0 8 14 22.5t18 23.5q4 7 -9.5 21.5t-13.5 29.5q0 21 15 35.5t38 14.5t39 -14.5t16 -38.5q0 -60 -67 -110q-16 -8 -26 -8t-17 6.5t-7 17.5z" />
    <glyph glyph-name="ncommaaccent" unicode="&#x146;" horiz-adv-x="559" 
d="M70 310l-1 88q-2 64 56 64q25 0 36 -11.5t13 -37.5l2 -35q17 40 59 63.5t90 23.5q83 0 128 -52t45 -145q0 -17 -0.5 -54.5t-0.5 -74.5v-86q0 -56 -59 -56q-23 0 -37.5 12t-14.5 36q0 28 1.5 94t1.5 98q-1 61 -20 96.5t-71 35.5q-38 0 -63 -12.5t-37 -38t-16.5 -53
t-4.5 -66.5l1 -157q0 -25 -16.5 -36t-38.5 -11q-55 0 -55 48q0 11 1.5 95.5t0.5 171.5zM220 -199q0 8 14 22.5t18 23.5q4 7 -9.5 21.5t-13.5 29.5q0 21 15 35.5t38 14.5t39 -14.5t16 -38.5q0 -60 -67 -110q-16 -8 -26 -8t-17 6.5t-7 17.5z" />
    <glyph glyph-name="Ncaron" unicode="&#x147;" horiz-adv-x="713" 
d="M188 58q0 -62 -53 -62q-57 0 -58 50q0 61 1 250v224v110q0 23 20 36.5t47 13.5q22 0 37.5 -12.5t33.5 -37.5l233 -329l80 -114q-2 104 -2 203l-2 220q-1 35 11.5 52.5t45.5 17.5q53 0 53 -64q0 -55 -0.5 -168t-0.5 -167q2 -108 2 -231q0 -24 -19 -38.5t-47 -14.5
q-21 0 -34.5 11t-33.5 38l-318 455q0 -31 4 -443zM253 897q13 0 29 -14q15 -14 75 -76q56 60 74 77q13 13 30 13q12 0 24 -12t12 -24q0 -15 -12 -29q-8 -10 -85 -95q-18 -19 -44 -19q-24 0 -40 18q-56 61 -87 97q-13 15 -13 29q0 12 11.5 23.5t25.5 11.5z" />
    <glyph glyph-name="ncaron" unicode="&#x148;" horiz-adv-x="559" 
d="M70 310l-1 88q-2 64 56 64q25 0 36 -11.5t13 -37.5l2 -35q17 40 59 63.5t90 23.5q83 0 128 -52t45 -145q0 -17 -0.5 -54.5t-0.5 -74.5v-86q0 -56 -59 -56q-23 0 -37.5 12t-14.5 36q0 28 1.5 94t1.5 98q-1 61 -20 96.5t-71 35.5q-38 0 -63 -12.5t-37 -38t-16.5 -53
t-4.5 -66.5l1 -157q0 -25 -16.5 -36t-38.5 -11q-55 0 -55 48q0 11 1.5 95.5t0.5 171.5zM182 707q13 0 29 -14q15 -14 75 -76q56 60 74 77q13 13 30 13q12 0 24 -12t12 -24q0 -15 -12 -29q-8 -10 -85 -95q-18 -19 -44 -19q-23 0 -40 18q-56 61 -87 97q-13 15 -13 29
q0 12 11.5 23.5t25.5 11.5z" />
    <glyph glyph-name="napostrophe" unicode="&#x149;" horiz-adv-x="559" 
d="M46 616h-1q-16 2 -28.5 15.5t-12.5 35.5q-1 24 16.5 41.5t41.5 17.5q30 0 48.5 -19.5t18.5 -53.5q0 -35 -22.5 -70.5t-55.5 -55.5q-9 -6 -19 -6q-11 0 -19.5 7.5t-8.5 18.5q0 13 11 22q31 24 31 44v3zM70 310l-1 88q-2 64 56 64q25 0 36 -11.5t13 -37.5l2 -35
q17 40 59 63.5t90 23.5q83 0 128 -52t45 -145q0 -17 -0.5 -54.5t-0.5 -74.5v-86q0 -56 -59 -56q-23 0 -37.5 12t-14.5 36q0 28 1.5 94t1.5 98q-1 61 -20 96.5t-71 35.5q-38 0 -63 -12.5t-37 -38t-16.5 -53t-4.5 -66.5l1 -157q0 -25 -16.5 -36t-38.5 -11q-55 0 -55 48
q0 11 1.5 95.5t0.5 171.5z" />
    <glyph glyph-name="Eng" unicode="&#x14a;" horiz-adv-x="713" 
d="M188 58q0 -62 -53 -62q-57 0 -58 50q0 61 1 250v224v110q0 23 20 36.5t47 13.5q22 0 37.5 -12.5t33.5 -37.5l233 -329l78 -113v202l-2 220q-1 35 11.5 52.5t45.5 17.5q53 0 53 -64v-666q0 -79 -42.5 -133t-117.5 -55q-96 0 -96 58q0 24 12 38t29 14q9 0 23.5 -3t27.5 -3
q58 1 58 103v42l-345 490q0 -31 4 -443z" />
    <glyph glyph-name="eng" unicode="&#x14b;" horiz-adv-x="559" 
d="M389 237q0 132 -91 132q-38 0 -63 -12.5t-37 -38t-16.5 -53t-4.5 -66.5l1 -157q0 -25 -16.5 -36t-38.5 -11q-55 0 -55 48q0 11 1.5 95.5t0.5 171.5l-1 88q-2 64 56 64q25 0 36 -11.5t13 -37.5l2 -35q17 40 59 63.5t90 23.5q83 0 128 -52t45 -145v-334q0 -77 -48.5 -122
t-121.5 -45q-95 -2 -95 57q0 24 11.5 38.5t27.5 14.5q9 0 24 -3.5t29 -2.5q64 0 64 98v268z" />
    <glyph glyph-name="Omacron" unicode="&#x14c;" horiz-adv-x="745" 
d="M375 686q135 0 232 -96t97 -243q0 -150 -94.5 -253.5t-237.5 -103.5q-130 0 -228.5 92.5t-98.5 240.5q0 161 100.5 263t229.5 100zM593 345q-1 105 -68 172t-159 67q-86 0 -148 -71.5t-62 -179.5q0 -106 64 -172t158 -66q90 0 153 75t62 175zM276 768q-46 0 -46 43
q0 45 53 45q11 0 38 -0.5t41 -0.5q22 0 59 1t52 1q45 0 45 -43q1 -22 -14 -33.5t-44 -11.5h-96q-16 0 -46 -0.5t-42 -0.5z" />
    <glyph glyph-name="omacron" unicode="&#x14d;" horiz-adv-x="548" 
d="M294 466q19 0 30 -6q90 -13 137.5 -80t47.5 -152q0 -102 -69 -169.5t-174 -67.5q-93 0 -160 63t-67 160q0 113 68.5 182t186.5 70zM400 232q0 57 -33.5 96t-92.5 42q-58 -3 -92 -44.5t-34 -111.5q0 -55 35.5 -91t80.5 -36q56 0 96 40.5t40 104.5zM175 578q-46 0 -46 43
q0 45 53 45q10 0 38 -0.5t41 -0.5q22 0 59 1t52 1q45 0 45 -43q1 -22 -14 -33.5t-44 -11.5h-96q-16 0 -46 -0.5t-42 -0.5z" />
    <glyph glyph-name="Obreve" unicode="&#x14e;" horiz-adv-x="745" 
d="M375 686q135 0 232 -96t97 -243q0 -150 -94.5 -253.5t-237.5 -103.5q-130 0 -228.5 92.5t-98.5 240.5q0 161 100.5 263t229.5 100zM593 345q-1 105 -68 172t-159 67q-86 0 -148 -71.5t-62 -179.5q0 -106 64 -172t158 -66q90 0 153 75t62 175zM473 884q16 0 26 -10.5
t10 -24.5q0 -56 -38.5 -94t-98.5 -38q-54 0 -93.5 35.5t-41.5 89.5q0 17 10.5 28.5t27.5 11.5q15 0 24.5 -8.5t11.5 -22.5q2 -27 18.5 -43t43.5 -16t44 18t19 42q2 32 37 32z" />
    <glyph glyph-name="obreve" unicode="&#x14f;" horiz-adv-x="548" 
d="M294 466q19 0 30 -6q90 -13 137.5 -80t47.5 -152q0 -102 -69 -169.5t-174 -67.5q-93 0 -160 63t-67 160q0 113 68.5 182t186.5 70zM400 232q0 57 -33.5 96t-92.5 42q-58 -3 -92 -44.5t-34 -111.5q0 -55 35.5 -91t80.5 -36q56 0 96 40.5t40 104.5zM372 694q16 0 26 -10.5
t10 -24.5q0 -56 -38.5 -94t-98.5 -38q-54 0 -93.5 35.5t-41.5 89.5q0 17 10.5 28.5t27.5 11.5q15 0 24.5 -8.5t11.5 -22.5q2 -27 18.5 -43t43.5 -16t44 18t19 42q2 32 37 32z" />
    <glyph glyph-name="Ohungarumlaut" unicode="&#x150;" horiz-adv-x="745" 
d="M375 686q135 0 232 -96t97 -243q0 -150 -94.5 -253.5t-237.5 -103.5q-130 0 -228.5 92.5t-98.5 240.5q0 161 100.5 263t229.5 100zM593 345q-1 105 -68 172t-159 67q-86 0 -148 -71.5t-62 -179.5q0 -106 64 -172t158 -66q90 0 153 75t62 175zM403 831l-81 -99
q-14 -15 -28 -15q-15 0 -26.5 10t-11.5 25q0 12 8 23l67 102q16 25 36 25q18 0 32 -12t14 -30q0 -15 -10 -29zM564 824l-87 -97q-13 -15 -25 -15q-15 0 -27.5 9.5t-12.5 24.5q0 10 9 24l73 102q15 25 35 25q18 0 32.5 -11.5t14.5 -27.5q0 -18 -12 -34z" />
    <glyph glyph-name="ohungarumlaut" unicode="&#x151;" horiz-adv-x="548" 
d="M294 466q19 0 30 -6q90 -13 137.5 -80t47.5 -152q0 -102 -69 -169.5t-174 -67.5q-93 0 -160 63t-67 160q0 113 68.5 182t186.5 70zM400 232q0 57 -33.5 96t-92.5 42q-58 -3 -92 -44.5t-34 -111.5q0 -55 35.5 -91t80.5 -36q56 0 96 40.5t40 104.5zM295 641l-81 -99
q-13 -15 -28 -15t-26.5 10t-11.5 25q0 12 8 23l67 102q16 25 36 25q18 0 32 -12t14 -30q0 -15 -10 -29zM456 634l-87 -97q-13 -15 -25 -15q-15 0 -27.5 9.5t-12.5 24.5q0 10 9 24l73 102q15 25 35 25q18 0 32.5 -11.5t14.5 -27.5q0 -18 -12 -34z" />
    <glyph glyph-name="OE" unicode="&#x152;" horiz-adv-x="1071" 
d="M381 687q80 0 140.5 -31.5t92.5 -80.5q0 26 2 46q5 31 20.5 44.5t47.5 13.5q18 0 84 -1q52 0 125 1t91 1q24 0 37.5 -12.5t13.5 -32.5q0 -53 -47 -53h-267q-2 -66 -2 -94v-48v-30v-18v-9v-4h42h189q21 -2 31 -12.5t10 -33.5q-2 -47 -53 -47h-220q-1 -9 -1 -27v-162
q31 0 74.5 0.5t102 1.5t92.5 1q50 0 50 -48q0 -29 -16 -41t-49 -12q-180 0 -259 -1q-49 0 -70 14.5t-26 53.5q-3 16 -3 46q-83 -121 -239 -121q-133 0 -231 92t-98 241q0 82 29 152t76.5 115.5t107.5 71t123 24.5zM614 350q-1 107 -69 170.5t-168 63.5q-89 0 -154.5 -71.5
t-65.5 -178.5q0 -105 68 -172t164 -66q102 0 164 74.5t61 179.5z" />
    <glyph glyph-name="oe" unicode="&#x153;" horiz-adv-x="855" 
d="M300 458q47 -2 88.5 -28t62.5 -67q23 45 70.5 73t100.5 28q87 0 144 -55.5t57 -129.5q0 -42 -13.5 -57.5t-62.5 -16.5q-188 -4 -240 -4q4 -45 37.5 -77t80.5 -32q35 0 80 20t59 20q18 0 31 -16.5t13 -36.5q0 -21 -26 -42q-59 -44 -164 -44q-53 0 -100 28t-71 71
q-68 -99 -189 -99q-91 0 -157.5 64.5t-66.5 157.5q0 108 69 179t172 71q14 0 25 -7zM394 231q0 59 -33.5 97.5t-91.5 40.5q-58 -2 -91.5 -42.5t-33.5 -111.5q0 -54 36 -90.5t81 -36.5q57 0 95 38.5t38 104.5zM623 376q-46 0 -79.5 -32.5t-37.5 -75.5q204 4 216 9
q0 44 -28 71.5t-71 27.5z" />
    <glyph glyph-name="Racute" unicode="&#x154;" horiz-adv-x="609" 
d="M80 613q0 62 79 65q50 2 87 2q47 0 75 -1q103 -4 165.5 -60t62.5 -152q0 -68 -36.5 -119t-95.5 -71l142 -193q15 -20 15 -37q0 -21 -17.5 -36t-40.5 -15q-24 -1 -48 28l-154 225h-124q0 -28 0.5 -99t0.5 -94q0 -57 -47 -59q-36 -1 -50 12.5t-13 47.5q1 64 1 455
q0 16 -1 50.5t-1 50.5zM297 585q-56 0 -108 -2l1 -240h100q67 0 107.5 29.5t41.5 93.5q1 57 -36.5 88t-105.5 31zM291 732q-14 -11 -29 -11q-12 0 -26.5 12.5t-14.5 26.5q0 11 10 26l90 104q17 21 37 21q19 0 35.5 -15.5t16.5 -34.5q0 -14 -16 -32q-46 -49 -103 -97z" />
    <glyph glyph-name="racute" unicode="&#x155;" horiz-adv-x="367" 
d="M72 409q-1 26 13.5 39t40.5 13q36 0 42 -36l4 -55q21 45 58.5 70t77.5 25q53 0 53 -52q0 -22 -11.5 -37t-33.5 -15h-17q-51 0 -86 -42.5t-35 -115.5q0 -15 1 -72t0 -89q-1 -46 -56 -46q-27 0 -40.5 13.5t-12.5 47.5q3 231 3 246q0 17 -0.5 52.5t-0.5 53.5zM205 542
q-14 -11 -29 -11q-12 0 -26.5 12.5t-14.5 26.5q0 11 10 26l90 104q17 21 37 21q19 0 35.5 -15.5t16.5 -34.5q0 -14 -16 -32q-46 -49 -103 -97z" />
    <glyph glyph-name="Rcommaaccent" unicode="&#x156;" horiz-adv-x="609" 
d="M80 613q0 62 79 65q50 2 87 2q47 0 75 -1q103 -4 165.5 -60t62.5 -152q0 -68 -36.5 -119t-95.5 -71l142 -193q15 -20 15 -37q0 -21 -17.5 -36t-40.5 -15q-24 -1 -48 28l-154 225h-124q0 -28 0.5 -99t0.5 -94q0 -57 -47 -59q-36 -1 -50 12.5t-13 47.5q1 64 1 455
q0 16 -1 50.5t-1 50.5zM297 585q-56 0 -108 -2l1 -240h100q67 0 107.5 29.5t41.5 93.5q1 57 -36.5 88t-105.5 31zM257 -199q0 8 14 22.5t18 23.5q4 7 -9.5 21.5t-13.5 29.5q0 21 15 35.5t38 14.5t39 -14.5t16 -38.5q0 -60 -67 -110q-16 -8 -26 -8t-17 6.5t-7 17.5z" />
    <glyph glyph-name="rcommaaccent" unicode="&#x157;" horiz-adv-x="367" 
d="M72 409q-1 26 13.5 39t40.5 13q36 0 42 -36l4 -55q21 45 58.5 70t77.5 25q53 0 53 -52q0 -22 -11.5 -37t-33.5 -15h-17q-51 0 -86 -42.5t-35 -115.5q0 -15 1 -72t0 -89q-1 -46 -56 -46q-27 0 -40.5 13.5t-12.5 47.5q3 231 3 246q0 17 -0.5 52.5t-0.5 53.5zM60 -199
q0 8 14 22.5t18 23.5q4 7 -9.5 21.5t-13.5 29.5q0 21 15 35.5t38 14.5t39 -14.5t16 -38.5q0 -60 -67 -110q-16 -8 -26 -8t-17 6.5t-7 17.5z" />
    <glyph glyph-name="Rcaron" unicode="&#x158;" horiz-adv-x="609" 
d="M80 613q0 62 79 65q50 2 87 2q47 0 75 -1q103 -4 165.5 -60t62.5 -152q0 -68 -36.5 -119t-95.5 -71l142 -193q15 -20 15 -37q0 -21 -17.5 -36t-40.5 -15q-24 -1 -48 28l-154 225h-124q0 -28 0.5 -99t0.5 -94q0 -57 -47 -59q-36 -1 -50 12.5t-13 47.5q1 64 1 455
q0 16 -1 50.5t-1 50.5zM297 585q-56 0 -108 -2l1 -240h100q67 0 107.5 29.5t41.5 93.5q1 57 -36.5 88t-105.5 31zM196 897q13 0 29 -14q15 -14 75 -76q56 60 74 77q13 13 30 13q12 0 24 -12t12 -24q0 -15 -12 -29q-8 -10 -85 -95q-18 -19 -44 -19q-23 0 -40 18
q-56 61 -87 97q-13 15 -13 29q0 12 11.5 23.5t25.5 11.5z" />
    <glyph glyph-name="rcaron" unicode="&#x159;" horiz-adv-x="367" 
d="M72 409q-1 26 13.5 39t40.5 13q36 0 42 -36l4 -55q21 45 58.5 70t77.5 25q53 0 53 -52q0 -22 -11.5 -37t-33.5 -15h-17q-51 0 -86 -42.5t-35 -115.5q0 -15 1 -72t0 -89q-1 -46 -56 -46q-27 0 -40.5 13.5t-12.5 47.5q3 231 3 246q0 17 -0.5 52.5t-0.5 53.5zM110 707
q13 0 29 -14q15 -14 75 -76q56 60 74 77q13 13 30 13q12 0 24 -12t12 -24q0 -15 -12 -29q-8 -10 -85 -95q-18 -19 -44 -19q-23 0 -40 18q-56 61 -87 97q-13 15 -13 29q0 12 11.5 23.5t25.5 11.5z" />
    <glyph glyph-name="Sacute" unicode="&#x15a;" horiz-adv-x="568" 
d="M469 651q33 -16 33 -50q0 -18 -14 -34.5t-34 -16.5q-14 0 -48 13q-52 24 -112 24q-52 0 -88.5 -29t-36.5 -72q0 -18 8.5 -31.5t18 -21.5t32 -16t35 -11t42.5 -10q105 -23 161.5 -64.5t56.5 -128.5q0 -95 -68 -152.5t-175 -58.5q-108 0 -190 40q-41 20 -41 55q0 22 14 39
t35 17q14 0 45 -11q72 -36 136 -36q58 0 95 28t37 75q0 44 -36.5 66.5t-102.5 35.5q-47 10 -82 22t-67 32t-49 51.5t-17 72.5q0 88 71.5 148t168.5 60t172 -36zM287 732q-14 -11 -29 -11q-12 0 -26.5 12.5t-14.5 26.5q0 11 10 26l90 104q17 21 37 21q19 0 35.5 -15.5
t16.5 -34.5q0 -14 -16 -32q-46 -49 -103 -97z" />
    <glyph glyph-name="sacute" unicode="&#x15b;" horiz-adv-x="455" 
d="M235 464q85 0 134 -23q31 -15 31 -39q0 -47 -43 -47q-11 0 -50 11.5t-71 11.5q-36 0 -60.5 -15.5t-24.5 -40.5q0 -30 48 -40q8 -2 47 -7q81 -11 125 -41t44 -94q0 -70 -51 -109t-139 -39q-67 0 -122.5 19.5t-55.5 45.5q0 54 43 54q14 0 60 -14.5t85 -14.5q35 0 57.5 14.5
t22.5 40.5q0 27 -22.5 38t-74.5 19q-36 5 -61 11.5t-51.5 19.5t-40.5 36t-14 55q0 64 55.5 106t128.5 42zM227 542q-14 -11 -29 -11q-12 0 -26.5 12.5t-14.5 26.5q0 11 10 26l90 104q17 21 37 21q19 0 35.5 -15.5t16.5 -34.5q0 -14 -16 -32q-46 -49 -103 -97z" />
    <glyph glyph-name="Scircumflex" unicode="&#x15c;" horiz-adv-x="568" 
d="M469 651q33 -16 33 -50q0 -18 -14 -34.5t-34 -16.5q-14 0 -48 13q-52 24 -112 24q-52 0 -88.5 -29t-36.5 -72q0 -18 8.5 -31.5t18 -21.5t32 -16t35 -11t42.5 -10q105 -23 161.5 -64.5t56.5 -128.5q0 -95 -68 -152.5t-175 -58.5q-108 0 -190 40q-41 20 -41 55q0 22 14 39
t35 17q14 0 45 -11q72 -36 136 -36q58 0 95 28t37 75q0 44 -36.5 66.5t-102.5 35.5q-47 10 -82 22t-67 32t-49 51.5t-17 72.5q0 88 71.5 148t168.5 60t172 -36zM400 719q-15 0 -29 14q-23 21 -75 76q-65 -69 -75 -77q-13 -13 -29 -13q-12 0 -24.5 12t-12.5 24q0 14 12 29
l86 95q18 19 43 19q24 0 40 -18q51 -53 87 -97q13 -15 13 -28q0 -11 -11.5 -23.5t-24.5 -12.5z" />
    <glyph glyph-name="scircumflex" unicode="&#x15d;" horiz-adv-x="455" 
d="M235 464q85 0 134 -23q31 -15 31 -39q0 -47 -43 -47q-11 0 -50 11.5t-71 11.5q-36 0 -60.5 -15.5t-24.5 -40.5q0 -30 48 -40q8 -2 47 -7q81 -11 125 -41t44 -94q0 -70 -51 -109t-139 -39q-67 0 -122.5 19.5t-55.5 45.5q0 54 43 54q14 0 60 -14.5t85 -14.5q35 0 57.5 14.5
t22.5 40.5q0 27 -22.5 38t-74.5 19q-36 5 -61 11.5t-51.5 19.5t-40.5 36t-14 55q0 64 55.5 106t128.5 42zM340 529q-15 0 -29 14q-23 21 -75 76q-65 -69 -75 -77q-13 -13 -29 -13q-12 0 -24.5 12t-12.5 24q0 14 12 29l86 95q18 19 43 19q24 0 40 -18q51 -53 87 -97
q13 -15 13 -28q0 -11 -11.5 -23.5t-24.5 -12.5z" />
    <glyph glyph-name="Scedilla" unicode="&#x15e;" horiz-adv-x="568" 
d="M233 -52l20 45q-91 4 -163 39q-41 20 -41 55q0 22 14 39t35 17q14 0 45 -11q72 -36 136 -36q58 0 95 28t37 75q0 44 -36.5 66.5t-102.5 35.5q-47 10 -82 22t-67 32t-49 51.5t-17 72.5q0 88 71.5 148t168.5 60t172 -36q33 -16 33 -50q0 -18 -14 -34.5t-34 -16.5
q-14 0 -48 13q-52 24 -112 24q-52 0 -88.5 -29t-36.5 -72q0 -18 8.5 -31.5t18 -21.5t32 -16t35 -11t42.5 -10q105 -23 161.5 -64.5t56.5 -128.5t-57.5 -143t-151.5 -65l-13 -42q29 0 53.5 -20.5t24.5 -60.5q0 -47 -29.5 -74t-75.5 -27q-31 0 -55 13q-25 11 -25 35
q0 14 9.5 23t22.5 9q7 0 23 -7.5t28 -7.5q34 0 34 33q0 29 -37 29l-15 1q-16 0 -24 16t-2 33z" />
    <glyph glyph-name="scedilla" unicode="&#x15f;" horiz-adv-x="455" 
d="M178 -52l20 45q-60 4 -105.5 22.5t-45.5 41.5q0 54 43 54q14 0 60 -14.5t85 -14.5q35 0 57.5 14.5t22.5 40.5q0 27 -22.5 38t-74.5 19q-36 5 -61 11.5t-51.5 19.5t-40.5 36t-14 55q0 64 55.5 106t128.5 42q85 0 134 -23q31 -15 31 -39q0 -47 -43 -47q-11 0 -50 11.5
t-71 11.5q-36 0 -60.5 -15.5t-24.5 -40.5q0 -30 48 -40q8 -2 47 -7q81 -11 125 -41t44 -94q0 -63 -41.5 -100.5t-113.5 -45.5l-13 -41q29 0 53.5 -20.5t24.5 -60.5q0 -47 -29.5 -74t-76.5 -27q-26 0 -54 13q-25 11 -25 32q0 13 9.5 23.5t20.5 10.5q7 0 23.5 -7t28.5 -7
q35 0 35 33q0 29 -38 29l-15 1q-15 0 -23 16t-3 33z" />
    <glyph glyph-name="Scaron" unicode="&#x160;" horiz-adv-x="568" 
d="M469 651q33 -16 33 -50q0 -18 -14 -34.5t-34 -16.5q-14 0 -48 13q-52 24 -112 24q-52 0 -88.5 -29t-36.5 -72q0 -18 8.5 -31.5t18 -21.5t32 -16t35 -11t42.5 -10q105 -23 161.5 -64.5t56.5 -128.5q0 -95 -68 -152.5t-175 -58.5q-108 0 -190 40q-41 20 -41 55q0 22 14 39
t35 17q14 0 45 -11q72 -36 136 -36q58 0 95 28t37 75q0 44 -36.5 66.5t-102.5 35.5q-47 10 -82 22t-67 32t-49 51.5t-17 72.5q0 88 71.5 148t168.5 60t172 -36zM192 897q13 0 29 -14q15 -14 75 -76q56 60 74 77q13 13 30 13q12 0 24 -12t12 -24q0 -15 -12 -29
q-8 -10 -85 -95q-18 -19 -44 -19q-23 0 -40 18q-56 61 -87 97q-13 15 -13 29q0 12 11.5 23.5t25.5 11.5z" />
    <glyph glyph-name="scaron" unicode="&#x161;" horiz-adv-x="455" 
d="M235 464q85 0 134 -23q31 -15 31 -39q0 -47 -43 -47q-11 0 -50 11.5t-71 11.5q-36 0 -60.5 -15.5t-24.5 -40.5q0 -30 48 -40q8 -2 47 -7q81 -11 125 -41t44 -94q0 -70 -51 -109t-139 -39q-67 0 -122.5 19.5t-55.5 45.5q0 54 43 54q14 0 60 -14.5t85 -14.5q35 0 57.5 14.5
t22.5 40.5q0 27 -22.5 38t-74.5 19q-36 5 -61 11.5t-51.5 19.5t-40.5 36t-14 55q0 64 55.5 106t128.5 42zM132 707q13 0 29 -14q15 -14 75 -76q56 60 74 77q13 13 30 13q12 0 24 -12t12 -24q0 -15 -12 -29q-8 -10 -85 -95q-18 -19 -44 -19q-23 0 -40 18q-56 61 -87 97
q-13 15 -13 29q0 12 11.5 23.5t25.5 11.5z" />
    <glyph glyph-name="uni0162" unicode="&#x162;" horiz-adv-x="574" 
d="M295 678q16 0 104.5 1t111.5 1q50 0 50 -46q0 -54 -53 -54h-166v-50q0 -99 4 -475q0 -47 -36 -56l-13 -46q29 0 53.5 -20.5t24.5 -60.5q0 -47 -29.5 -74t-76.5 -27q-31 0 -55 13q-24 11 -24 35q0 14 9.5 23t21.5 9q7 0 23 -7.5t28 -7.5q35 0 35 33q0 29 -38 29l-15 1
q-15 0 -22.5 16t-2.5 33l24 58q-20 13 -19 45l2 368q0 43 -2 161q-39 -1 -174 -1q-47 0 -47 51q0 21 12 34.5t37 14.5q7 0 30.5 -0.5t75.5 -0.5h127z" />
    <glyph glyph-name="uni0163" unicode="&#x163;" horiz-adv-x="370" 
d="M53 362q-43 0 -43 46q0 22 13 34.5t34 12.5h51l2 73q2 66 59 66q45 0 45 -50q0 -10 -1 -40.5t-1 -47.5h86q22 1 34 -11t12 -35q0 -47 -42 -47h-90v-176q0 -48 12 -71.5t41 -23.5q13 0 26 4t20 4q18 0 29 -14t11 -32q0 -32 -22 -45q-29 -15 -72 -15l-15 -41
q29 0 53.5 -20.5t24.5 -60.5q0 -47 -29.5 -74t-75.5 -27q-31 0 -55 13q-25 11 -25 35q0 14 9.5 23t22.5 9q7 0 23 -7.5t28 -7.5q34 0 34 33q0 29 -37 29l-15 1q-16 0 -24 16t-2 33l22 54q-90 27 -90 171q0 24 1.5 89.5t0.5 99.5h-55z" />
    <glyph glyph-name="Tcaron" unicode="&#x164;" horiz-adv-x="574" 
d="M295 678q16 0 104.5 1t111.5 1q50 0 50 -46q0 -54 -53 -54h-166v-50q0 -99 4 -475q0 -59 -60 -59q-53 0 -52 55l2 368q0 43 -2 161q-39 -1 -174 -1q-47 0 -47 51q0 21 12 34.5t37 14.5q7 0 30.5 -0.5t75.5 -0.5h127zM183 897q13 0 29 -14q15 -14 75 -76q56 60 74 77
q13 13 30 13q12 0 24 -12t12 -24q0 -15 -12 -29q-8 -10 -85 -95q-18 -19 -44 -19q-24 0 -40 18q-56 61 -87 97q-13 15 -13 29q0 12 11.5 23.5t25.5 11.5z" />
    <glyph glyph-name="tcaron" unicode="&#x165;" horiz-adv-x="482" 
d="M401 596h-1q-16 2 -28.5 15.5t-12.5 35.5q-1 25 17 42.5t42 17.5q30 0 48 -20t18 -54q0 -35 -22 -70.5t-55 -55.5q-9 -6 -20 -6q-10 0 -19 7.5t-9 18.5q0 13 11 22q31 24 31 44v3zM53 362q-43 0 -43 46q0 22 13 34.5t34 12.5h51l2 73q2 66 59 66q45 0 45 -50
q0 -10 -1 -40.5t-1 -47.5h86q22 1 34 -11t12 -35q0 -47 -42 -47h-90v-176q0 -48 12 -71.5t41 -23.5q13 0 26 4t20 4q18 0 29 -14t11 -32q0 -32 -22 -45q-27 -15 -75 -15q-148 0 -148 179q0 24 1.5 89.5t0.5 99.5h-55z" />
    <glyph glyph-name="Tbar" unicode="&#x166;" horiz-adv-x="570" 
d="M293 678q16 0 103.5 1.5t110.5 1.5q50 0 50 -47q0 -54 -53 -54l-163 1v-207h87q47 0 47 -47q0 -46 -55 -46h-79l2 -225q1 -59 -59 -59q-53 0 -52 55l1 229h-86q-49 0 -49 44q0 49 52 49h83l-1 206q-88 0 -172 -1q-47 0 -47 51q0 49 49 49q7 0 30 -0.5t74 -0.5h127z" />
    <glyph glyph-name="tbar" unicode="&#x167;" horiz-adv-x="370" 
d="M53 362q-43 0 -43 46q0 22 13 34.5t34 12.5h51l2 73q2 66 59 66q45 0 45 -50q0 -10 -1 -40.5t-1 -47.5h86q22 1 34 -11t12 -35q0 -47 -42 -47h-90v-85h70q43 0 43 -40q0 -41 -50 -41l-63 -1v-19q0 -45 11.5 -65t41.5 -20q13 0 26 4t20 4q18 0 29 -14t11 -32
q0 -32 -22 -45q-27 -15 -75 -15q-73 0 -109.5 41.5t-36.5 132.5v28h-45q-43 0 -43 40q0 41 48 41h40v85h-55z" />
    <glyph glyph-name="Utilde" unicode="&#x168;" horiz-adv-x="688" 
d="M76 279q0 67 1 186v157q0 55 53 55q32 0 45 -13.5t13 -43.5q-1 -61 -1 -340q0 -92 42 -137.5t119 -45.5q70 0 112.5 52t43.5 132q2 12 0.5 171t-1.5 174q0 53 57 53q29 0 42 -15t13 -49l2 -311q0 -144 -73 -227t-203 -83q-122 0 -193.5 75t-71.5 210zM263 767
q-2 -26 -37 -26q-16 0 -26.5 12t-11.5 32q3 40 29 64t66 24q27 0 48.5 -14.5t38.5 -29t33 -15.5q24 0 26 32q4 28 38 28q15 0 26 -10t11 -25q0 -50 -25.5 -75.5t-67.5 -25.5q-34 1 -67.5 29t-51.5 29q-25 0 -29 -29z" />
    <glyph glyph-name="utilde" unicode="&#x169;" horiz-adv-x="565" 
d="M125 459q49 0 49 -56q-2 -118 -2 -181q0 -134 92 -134q65 0 92 46t28 131v140q0 27 16.5 41t40.5 14q54 0 54 -53q0 -1 -0.5 -43.5t-0.5 -85.5v-100q1 -54 5 -138q1 -21 -14.5 -32.5t-38.5 -11.5q-43 0 -49 38q-2 9 -3 26.5t-2 27.5q-49 -96 -149 -96q-91 0 -135.5 57.5
t-44.5 155.5q0 28 0.5 99.5t0.5 97.5q0 57 61 57zM194 577q-2 -26 -37 -26q-16 0 -26.5 12t-11.5 32q3 40 29 64t66 24q27 0 48.5 -14.5t38.5 -29t33 -15.5q24 0 26 32q4 28 38 28q15 0 26 -10t11 -25q0 -50 -25.5 -75.5t-67.5 -25.5q-34 1 -67.5 29t-51.5 29q-25 0 -29 -29
z" />
    <glyph glyph-name="Umacron" unicode="&#x16a;" horiz-adv-x="688" 
d="M76 279q0 67 1 186v157q0 55 53 55q32 0 45 -13.5t13 -43.5q-1 -61 -1 -340q0 -92 42 -137.5t119 -45.5q70 0 112.5 52t43.5 132q2 12 0.5 171t-1.5 174q0 53 57 53q29 0 42 -15t13 -49l2 -311q0 -144 -73 -227t-203 -83q-122 0 -193.5 75t-71.5 210zM253 768
q-46 0 -46 43q0 45 53 45q10 0 38 -0.5t41 -0.5q22 0 59 1t52 1q45 0 45 -43q1 -22 -14 -33.5t-44 -11.5h-96q-16 0 -46 -0.5t-42 -0.5z" />
    <glyph glyph-name="umacron" unicode="&#x16b;" horiz-adv-x="565" 
d="M125 459q49 0 49 -56q-2 -118 -2 -181q0 -134 92 -134q65 0 92 46t28 131v140q0 27 16.5 41t40.5 14q54 0 54 -53q0 -1 -0.5 -43.5t-0.5 -85.5v-100q1 -54 5 -138q1 -21 -14.5 -32.5t-38.5 -11.5q-43 0 -49 38q-2 9 -3 26.5t-2 27.5q-49 -96 -149 -96q-91 0 -135.5 57.5
t-44.5 155.5q0 28 0.5 99.5t0.5 97.5q0 57 61 57zM184 578q-46 0 -46 43q0 45 53 45q10 0 37.5 -0.5t41.5 -0.5q22 0 59 1t52 1q45 0 45 -43q1 -22 -14 -33.5t-44 -11.5h-96q-16 0 -46 -0.5t-42 -0.5z" />
    <glyph glyph-name="Ubreve" unicode="&#x16c;" horiz-adv-x="688" 
d="M76 279q0 67 1 186v157q0 55 53 55q32 0 45 -13.5t13 -43.5q-1 -61 -1 -340q0 -92 42 -137.5t119 -45.5q70 0 112.5 52t43.5 132q2 12 0.5 171t-1.5 174q0 53 57 53q29 0 42 -15t13 -49l2 -311q0 -144 -73 -227t-203 -83q-122 0 -193.5 75t-71.5 210zM450 884
q16 0 26 -10.5t10 -24.5q0 -56 -38.5 -94t-98.5 -38q-54 0 -93.5 35.5t-41.5 89.5q0 17 10.5 28.5t27.5 11.5q15 0 24.5 -8.5t11.5 -22.5q2 -27 18.5 -43t43.5 -16t44 18t19 42q2 32 37 32z" />
    <glyph glyph-name="ubreve" unicode="&#x16d;" horiz-adv-x="565" 
d="M125 459q49 0 49 -56q-2 -118 -2 -181q0 -134 92 -134q65 0 92 46t28 131v140q0 27 16.5 41t40.5 14q54 0 54 -53q0 -1 -0.5 -43.5t-0.5 -85.5v-100q1 -54 5 -138q1 -21 -14.5 -32.5t-38.5 -11.5q-43 0 -49 38q-2 9 -3 26.5t-2 27.5q-49 -96 -149 -96q-91 0 -135.5 57.5
t-44.5 155.5q0 28 0.5 99.5t0.5 97.5q0 57 61 57zM381 694q16 0 26 -10.5t10 -24.5q0 -56 -38.5 -94t-98.5 -38q-54 0 -93.5 35.5t-41.5 89.5q0 17 10.5 28.5t27.5 11.5q15 0 24.5 -8.5t11.5 -22.5q2 -27 18.5 -43t43.5 -16t44 18t19 42q2 32 37 32z" />
    <glyph glyph-name="Uring" unicode="&#x16e;" horiz-adv-x="688" 
d="M76 279q0 67 1 186v157q0 55 53 55q32 0 45 -13.5t13 -43.5q-1 -61 -1 -340q0 -92 42 -137.5t119 -45.5q70 0 112.5 52t43.5 132q2 12 0.5 171t-1.5 174q0 53 57 53q29 0 42 -15t13 -49l2 -311q0 -144 -73 -227t-203 -83q-122 0 -193.5 75t-71.5 210zM348 905
q47 0 79.5 -29t32.5 -75q0 -47 -33 -80t-81 -33q-45 0 -79 30t-34 77q0 49 35.5 79.5t79.5 30.5zM398 800q0 22 -14.5 35.5t-38.5 13.5q-20 0 -35.5 -15t-15.5 -37q0 -24 14.5 -37.5t38.5 -13.5q23 0 37.5 16t13.5 38z" />
    <glyph glyph-name="uring" unicode="&#x16f;" horiz-adv-x="565" 
d="M125 459q49 0 49 -56q-2 -118 -2 -181q0 -134 92 -134q65 0 92 46t28 131v140q0 27 16.5 41t40.5 14q54 0 54 -53q0 -1 -0.5 -43.5t-0.5 -85.5v-100q1 -54 5 -138q1 -21 -14.5 -32.5t-38.5 -11.5q-43 0 -49 38q-2 9 -3 26.5t-2 27.5q-49 -96 -149 -96q-91 0 -135.5 57.5
t-44.5 155.5q0 28 0.5 99.5t0.5 97.5q0 57 61 57zM280 735q47 0 79.5 -29t32.5 -75q0 -47 -33 -80t-81 -33q-45 0 -79 30t-34 77q0 49 35.5 79.5t79.5 30.5zM330 630q0 22 -14.5 35.5t-38.5 13.5q-20 0 -35.5 -15t-15.5 -37q0 -24 14.5 -37.5t38.5 -13.5q23 0 37.5 16
t13.5 38z" />
    <glyph glyph-name="Uhungarumlaut" unicode="&#x170;" horiz-adv-x="688" 
d="M76 279q0 67 1 186v157q0 55 53 55q32 0 45 -13.5t13 -43.5q-1 -61 -1 -340q0 -92 42 -137.5t119 -45.5q70 0 112.5 52t43.5 132q2 12 0.5 171t-1.5 174q0 53 57 53q29 0 42 -15t13 -49l2 -311q0 -144 -73 -227t-203 -83q-122 0 -193.5 75t-71.5 210zM374 831l-81 -99
q-13 -15 -28 -15t-26.5 10t-11.5 25q0 12 8 23l67 102q16 25 36 25q18 0 32 -12t14 -30q0 -15 -10 -29zM535 824l-87 -97q-13 -15 -25 -15q-15 0 -27.5 9.5t-12.5 24.5q0 10 9 24l73 102q15 25 35 25q18 0 32.5 -11.5t14.5 -27.5q0 -18 -12 -34z" />
    <glyph glyph-name="uhungarumlaut" unicode="&#x171;" horiz-adv-x="565" 
d="M125 459q49 0 49 -56q-2 -118 -2 -181q0 -134 92 -134q65 0 92 46t28 131v140q0 27 16.5 41t40.5 14q54 0 54 -53q0 -1 -0.5 -43.5t-0.5 -85.5v-100q1 -54 5 -138q1 -21 -14.5 -32.5t-38.5 -11.5q-43 0 -49 38q-2 9 -3 26.5t-2 27.5q-49 -96 -149 -96q-91 0 -135.5 57.5
t-44.5 155.5q0 28 0.5 99.5t0.5 97.5q0 57 61 57zM303 641l-81 -99q-14 -15 -28 -15q-15 0 -26.5 10t-11.5 25q0 12 8 23l67 102q16 25 36 25q18 0 32 -12t14 -30q0 -15 -10 -29zM464 634l-87 -97q-13 -15 -25 -15q-15 0 -27.5 9.5t-12.5 24.5q0 10 9 24l73 102q15 25 35 25
q18 0 32.5 -11.5t14.5 -27.5q0 -18 -12 -34z" />
    <glyph glyph-name="Uogonek" unicode="&#x172;" horiz-adv-x="688" 
d="M338 -104q0 -17 9 -27t24 -10q9 0 20 2.5t19 2.5q13 0 21.5 -11.5t8.5 -28.5q0 -47 -72 -47q-46 0 -77.5 25.5t-31.5 74.5q0 67 71 118q-120 7 -187 79.5t-67 204.5q0 67 0.5 186t0.5 157q0 55 53 55q32 0 45 -13.5t13 -43.5q-1 -61 -1 -340q0 -92 42 -137.5t119 -45.5
q70 0 112.5 52t43.5 132q2 12 0.5 171t-1.5 174q0 53 57 53q29 0 42 -15t13 -49l2 -311q0 -122 -54 -202.5t-151 -100.5q-74 -47 -74 -105z" />
    <glyph glyph-name="uogonek" unicode="&#x173;" horiz-adv-x="565" 
d="M399 -104q0 -17 9 -27t24 -10q9 0 19.5 2.5t18.5 2.5q13 0 21.5 -11.5t8.5 -28.5q0 -47 -72 -47q-46 0 -77 25.5t-31 74.5q0 72 91 132q-11 8 -13 25l-6 54q-49 -96 -149 -96q-91 0 -135.5 57.5t-44.5 155.5q0 28 0.5 99.5t0.5 97.5q0 57 61 57q49 0 49 -56
q-2 -116 -2 -181q0 -134 92 -134q65 0 92 46t28 131v140q0 27 16.5 41t40.5 14q54 0 54 -53q0 -1 -0.5 -43.5t-0.5 -85.5v-100q1 -54 5 -138q1 -28 -23 -38q-77 -60 -77 -106z" />
    <glyph glyph-name="Wcircumflex" unicode="&#x174;" horiz-adv-x="855" 
d="M35 623q-4 26 12 43.5t43 17.5q47 0 55 -44q71 -366 87 -457q30 80 127 400q16 55 67 55q19 0 35.5 -12t21.5 -30l136 -404q78 397 82 423q7 39 19.5 53.5t40.5 14.5q26 0 43.5 -16t13.5 -42l-120 -566q-8 -32 -20.5 -47t-44.5 -16q-30 0 -44 16.5t-23 44.5l-141 410
q-28 -91 -136 -410q-21 -62 -70 -61q-41 2 -55 28t-28 97q-66 320 -101 502zM529 719q-15 0 -29 14q-23 21 -75 76q-65 -69 -75 -77q-13 -13 -29 -13q-12 0 -24.5 12t-12.5 24q0 14 12 29l86 95q18 19 43 19q23 0 40 -18q51 -53 87 -97q13 -15 13 -28q0 -11 -11.5 -23.5
t-24.5 -12.5z" />
    <glyph glyph-name="wcircumflex" unicode="&#x175;" horiz-adv-x="750" 
d="M31 407q-2 4 -2 11q0 20 20 32.5t42 12.5q37 0 46 -35q2 -5 32.5 -126t44.5 -168l105 290q14 33 55 33q42 0 59 -43l104 -277l56 212q11 47 21 77q11 32 46 32q22 0 41 -13t20 -32q0 -10 -3 -19q-2 -7 -35 -115t-48 -152q-24 -74 -30 -88q-15 -43 -64 -43q-46 0 -63 46
q-17 39 -59 154.5t-44 119.5l-93 -245q-15 -42 -30.5 -59.5t-47.5 -17.5q-31 0 -44.5 13t-23.5 42zM476 529q-15 0 -29 14q-23 21 -75 76q-65 -69 -75 -77q-13 -13 -29 -13q-12 0 -24.5 12t-12.5 24q0 14 12 29l86 95q18 19 43 19q24 0 40 -18q51 -53 87 -97q13 -15 13 -28
q0 -11 -11.5 -23.5t-24.5 -12.5z" />
    <glyph glyph-name="Ycircumflex" unicode="&#x176;" horiz-adv-x="607" 
d="M248 264l-11 18l-201 307q-16 24 -16 39q0 22 18 37.5t41 15.5q26 0 47 -32l179 -286q6 9 18 28t57.5 93t102.5 166q20 32 49 32q21 0 38.5 -15t17.5 -34q0 -18 -15 -40l-215 -327v-222q0 -22 -16.5 -34.5t-39.5 -12.5q-25 0 -40.5 14.5t-15.5 39.5q0 11 0.5 36t0.5 37
q0 34 0.5 77t0.5 63zM410 719q-15 0 -29 14q-23 21 -75 76q-65 -69 -75 -77q-13 -13 -29 -13q-12 0 -24.5 12t-12.5 24q0 14 12 29l86 95q18 19 43 19q24 0 40 -18q51 -53 87 -97q13 -15 13 -28q0 -11 -11.5 -23.5t-24.5 -12.5z" />
    <glyph glyph-name="ycircumflex" unicode="&#x177;" horiz-adv-x="504" 
d="M254 128q26 56 117 290q17 43 49 43q23 0 41.5 -13t18.5 -32q0 -20 -11 -42q-125 -287 -226 -490q-60 -109 -149 -109q-78 0 -78 54q0 51 53 51q31 0 47 12t37 48q7 11 45 86l-31 65l-125 271q-17 37 -17 54q0 20 18.5 33.5t39.5 13.5q30 0 43 -27q126 -304 128 -308z
M350 529q-15 0 -29 14q-23 21 -75 76q-65 -69 -75 -77q-13 -13 -29 -13q-12 0 -24.5 12t-12.5 24q0 14 12 29l86 95q18 19 43 19q24 0 40 -18q51 -53 87 -97q13 -15 13 -28q0 -11 -11.5 -23.5t-24.5 -12.5z" />
    <glyph glyph-name="Ydieresis" unicode="&#x178;" horiz-adv-x="607" 
d="M248 264l-11 18l-201 307q-16 24 -16 39q0 22 18 37.5t41 15.5q26 0 47 -32l179 -286q6 9 18 28t57.5 93t102.5 166q20 32 49 32q21 0 38.5 -15t17.5 -34q0 -18 -15 -40l-215 -327v-222q0 -22 -16.5 -34.5t-39.5 -12.5q-25 0 -40.5 14.5t-15.5 39.5q0 11 0.5 36t0.5 37
q0 34 0.5 77t0.5 63zM219 744q-25 0 -40.5 16.5t-15.5 41.5t17 42t44 17q25 0 41 -16.5t16 -41.5q0 -26 -17 -42.5t-45 -16.5zM384 746q-24 0 -40 16.5t-16 40.5q0 25 17.5 42t43.5 17q25 0 41 -16.5t16 -41.5q0 -26 -17 -42t-45 -16z" />
    <glyph glyph-name="Zacute" unicode="&#x179;" horiz-adv-x="556" 
d="M86 576q-23 0 -36 13t-13 36q0 53 53 53h210q24 0 82.5 1t85.5 1q55 0 55 -49q0 -24 -26 -61l-33 -50l-241 -346l-51 -75q85 0 186.5 2.5t119.5 2.5q27 0 39.5 -15.5t12.5 -37.5q0 -50 -61 -50q-125 -1 -370 -1q-55 0 -62 34q-3 13 -2 26q8 38 49 94l63 87l192 270l43 66
q-46 0 -152 -0.5t-144 -0.5zM269 732q-14 -11 -29 -11q-12 0 -26.5 12.5t-14.5 26.5q0 11 10 26l90 104q17 21 37 21q19 0 35.5 -15.5t16.5 -34.5q0 -14 -16 -32q-46 -49 -103 -97z" />
    <glyph glyph-name="zacute" unicode="&#x17a;" horiz-adv-x="453" 
d="M243 364q-20 0 -73.5 -2t-83.5 -1q-23 1 -34 15t-11 35q0 48 59 48q29 0 89 -1t86 -1q10 0 41 1t49 0q41 -1 47 -30q3 -16 1 -29q-11 -35 -49 -79l-177 -204l-18 -22l144 3q9 0 31 1t32 1q23 0 35 -13t12 -35q0 -51 -53 -52q-7 0 -33 1t-41 1q-16 0 -80 -1.5t-111 -1.5
q-66 0 -66 56q0 32 57 99l185 211h-38zM223 542q-14 -11 -29 -11q-12 0 -26.5 12.5t-14.5 26.5q0 11 10 26l90 104q17 21 37 21q19 0 35.5 -15.5t16.5 -34.5q0 -14 -16 -32q-46 -49 -103 -97z" />
    <glyph glyph-name="Zdotaccent" unicode="&#x17b;" horiz-adv-x="556" 
d="M86 576q-23 0 -36 13t-13 36q0 53 53 53h210q24 0 82.5 1t85.5 1q55 0 55 -49q0 -24 -26 -61l-33 -50l-241 -346l-51 -75q85 0 186.5 2.5t119.5 2.5q27 0 39.5 -15.5t12.5 -37.5q0 -50 -61 -50q-125 -1 -370 -1q-55 0 -62 34q-3 13 -2 26q8 38 49 94l63 87l192 270l43 66
q-46 0 -152 -0.5t-144 -0.5zM273 749q-29 0 -47 20.5t-16 50.5q4 27 23.5 42.5t46.5 15.5q30 0 47 -18t17 -46q0 -31 -19.5 -48t-51.5 -17z" />
    <glyph glyph-name="zdotaccent" unicode="&#x17c;" horiz-adv-x="453" 
d="M243 364q-20 0 -73.5 -2t-83.5 -1q-23 1 -34 15t-11 35q0 48 59 48q29 0 89 -1t86 -1q10 0 41 1t49 0q41 -1 47 -30q3 -16 1 -29q-11 -35 -49 -79l-177 -204l-18 -22l144 3q9 0 31 1t32 1q23 0 35 -13t12 -35q0 -51 -53 -52q-7 0 -33 1t-41 1q-16 0 -80 -1.5t-111 -1.5
q-66 0 -66 56q0 32 57 99l185 211h-38zM226 559q-29 0 -47 20.5t-16 50.5q4 27 23.5 42.5t46.5 15.5q30 0 47 -18t17 -46q0 -31 -19.5 -48t-51.5 -17z" />
    <glyph glyph-name="Zcaron" unicode="&#x17d;" horiz-adv-x="556" 
d="M86 576q-23 0 -36 13t-13 36q0 53 53 53h210q24 0 82.5 1t85.5 1q55 0 55 -49q0 -24 -26 -61l-33 -50l-241 -346l-51 -75q85 0 186.5 2.5t119.5 2.5q27 0 39.5 -15.5t12.5 -37.5q0 -50 -61 -50q-125 -1 -370 -1q-55 0 -62 34q-3 13 -2 26q8 38 49 94l63 87l192 270l43 66
q-46 0 -152 -0.5t-144 -0.5zM174 897q13 0 29 -14q15 -14 75 -76q56 60 74 77q13 13 30 13q12 0 24 -12t12 -24q0 -15 -12 -29q-8 -10 -85 -95q-18 -19 -44 -19q-24 0 -40 18q-56 61 -87 97q-13 15 -13 29q0 12 11.5 23.5t25.5 11.5z" />
    <glyph glyph-name="zcaron" unicode="&#x17e;" horiz-adv-x="453" 
d="M243 364q-20 0 -73.5 -2t-83.5 -1q-23 1 -34 15t-11 35q0 48 59 48q29 0 89 -1t86 -1q10 0 41 1t49 0q41 -1 47 -30q3 -16 1 -29q-11 -35 -49 -79l-177 -204l-18 -22l144 3q9 0 31 1t32 1q23 0 35 -13t12 -35q0 -51 -53 -52q-7 0 -33 1t-41 1q-16 0 -80 -1.5t-111 -1.5
q-66 0 -66 56q0 32 57 99l185 211h-38zM128 707q13 0 29 -14q15 -14 75 -76q56 60 74 77q13 13 30 13q12 0 24 -12t12 -24q0 -15 -12 -29q-8 -10 -85 -95q-18 -19 -44 -19q-23 0 -40 18q-56 61 -87 97q-13 15 -13 29q0 12 11.5 23.5t25.5 11.5z" />
    <glyph glyph-name="florin" unicode="&#x192;" horiz-adv-x="452" 
d="M361 357h-96l-45 -369q-28 -220 -190 -220q-35 0 -58 10q-26 12 -26 47q0 21 13 35t32 14q7 0 19.5 -2t20.5 -2q29 0 47.5 21t24.5 45.5t12 66.5l43 355h-54q-29 0 -41.5 10.5t-12.5 36.5q0 23 15.5 36.5t42.5 13.5h63q6 48 13 83t24 74t41.5 63.5t65 41t94.5 16.5
q63 0 63 -52q0 -18 -11 -31.5t-28 -13.5q-12 0 -26 1.5t-25 1.5q-28 -1 -48 -17t-31 -46t-16.5 -56.5t-10.5 -64.5h89q27 0 37 -11.5t11 -35.5q0 -22 -14 -36.5t-38 -14.5z" />
    <glyph glyph-name="AEacute" unicode="&#x1fc;" horiz-adv-x="911" 
d="M16 56q1 19 27 54q75 103 192.5 282.5t163.5 244.5q29 42 82 40q8 0 158.5 1.5t180.5 1.5q53 0 53 -46q2 -42 -33 -49q-60 -3 -272 -3q-1 -33 -1 -94l-1 -92v-17h40q20 0 78.5 0.5t94.5 0.5q52 0 52 -47t-52 -47h-215q-1 -21 -1 -62v-127q30 0 73.5 0.5t101.5 1.5t89 1
q50 0 50 -48q0 -53 -57 -55h-249q-69 0 -92.5 11.5t-25.5 53.5v107l-230 1q-6 -9 -40.5 -62.5t-49.5 -75.5q-23 -37 -61 -36q-23 0 -40 17t-16 43zM456 542l-184 -282l183 2q0 12 0.5 38t0.5 39l1 75q0 21 -0.5 63.5t-0.5 64.5zM538 732q-14 -11 -29 -11q-12 0 -26.5 12.5
t-14.5 26.5q0 11 10 26l90 104q18 21 37 21t35.5 -15.5t16.5 -34.5q0 -14 -16 -32q-46 -49 -103 -97z" />
    <glyph glyph-name="aeacute" unicode="&#x1fd;" horiz-adv-x="813" 
d="M534 201h-71q2 -45 35 -77.5t83 -32.5q55 0 97 26q32 13 40 13q17 0 30.5 -16t13.5 -36q0 -34 -54 -59.5t-136 -25.5q-51 0 -99 27.5t-70 67.5q-58 -96 -170 -96q-86 0 -139.5 36.5t-53.5 104.5q0 65 50 101.5t136 37.5q41 0 122 -4q-2 47 -33.5 74t-79.5 27
q-26 0 -66.5 -12t-45.5 -13q-21 -3 -36 10t-15 34q0 26 24 42q58 35 148 34q54 0 98 -25t67 -67q26 41 72 66.5t97 25.5q85 0 142 -57.5t57 -129.5q0 -43 -14 -59t-64 -17h-165zM580 373q-48 0 -81.5 -31.5t-37.5 -74.5q20 1 87 1h92q34 0 34 7q0 42 -27.5 70t-66.5 28z
M236 82q42 0 74 27.5t36 68.5l3 22q-46 3 -116 3q-90 0 -90 -61q0 -29 26 -44.5t67 -15.5zM413 542q-14 -11 -29 -11q-12 0 -26.5 12.5t-14.5 26.5q0 11 10 26l90 104q18 21 37 21t35.5 -15.5t16.5 -34.5q0 -14 -16 -32q-46 -49 -103 -97z" />
    <glyph glyph-name="Oslashacute" unicode="&#x1fe;" horiz-adv-x="745" 
d="M375 686q83 0 153 -38l24 37q10 16 28 16q12 0 23.5 -10t11.5 -22q0 -11 -6 -18l-26 -40q56 -46 88.5 -114.5t32.5 -149.5q0 -150 -94.5 -253.5t-237.5 -103.5q-87 0 -166 45l-31 -48q-10 -16 -25 -16q-13 0 -24.5 9.5t-11.5 21.5q0 10 8 22l31 49q-108 95 -108 250
q0 161 100.5 263t229.5 100zM593 345q-1 105 -71 173l-256 -392q51 -31 112 -31q90 0 153 75t62 175zM156 333q0 -100 60 -166l253 390q-51 27 -103 27q-86 0 -148 -71.5t-62 -179.5zM364 732q-14 -11 -29 -11q-12 0 -26.5 12.5t-14.5 26.5q0 11 10 26l90 104q18 21 37 21
t35.5 -15.5t16.5 -34.5q0 -14 -16 -32q-46 -49 -103 -97z" />
    <glyph glyph-name="oslashacute" unicode="&#x1ff;" horiz-adv-x="548" 
d="M294 466q16 0 30 -6q29 -4 54 -17l18 28q10 18 26 18q10 0 21 -8t11 -18t-12 -30l-13 -21q80 -68 80 -183q0 -103 -69 -170.5t-173 -67.5q-41 0 -88 19l-20 -34q-10 -16 -24 -16q-11 0 -21.5 9t-10.5 20q0 10 9 23l16 26q-89 65 -89 178q0 112 68.5 180.5t186.5 69.5z
M148 216q0 -51 36 -87l142 229q-22 10 -51 12q-58 -2 -92.5 -43t-34.5 -111zM400 232q0 53 -30 86l-137 -223q16 -8 32 -8q55 0 95 40t40 105zM263 542q-14 -11 -29 -11q-12 0 -26.5 12.5t-14.5 26.5q0 11 10 26l90 104q17 21 37 21q19 0 35.5 -15.5t16.5 -34.5
q0 -14 -16 -32q-46 -49 -103 -97z" />
    <glyph glyph-name="uni0218" unicode="&#x218;" horiz-adv-x="568" 
d="M469 651q33 -16 33 -50q0 -18 -14 -34.5t-34 -16.5q-14 0 -48 13q-52 24 -112 24q-52 0 -88.5 -29t-36.5 -72q0 -18 8.5 -31.5t18 -21.5t32 -16t35 -11t42.5 -10q105 -23 161.5 -64.5t56.5 -128.5q0 -95 -68 -152.5t-175 -58.5q-108 0 -190 40q-41 20 -41 55q0 22 14 39
t35 17q14 0 45 -11q72 -36 136 -36q58 0 95 28t37 75q0 44 -36.5 66.5t-102.5 35.5q-47 10 -82 22t-67 32t-49 51.5t-17 72.5q0 88 71.5 148t168.5 60t172 -36zM231 -199q0 8 14 22.5t18 23.5q4 7 -9.5 21.5t-13.5 29.5q0 21 15 35.5t38 14.5t39 -14.5t16 -38.5
q0 -60 -67 -110q-16 -8 -26 -8t-17 6.5t-7 17.5z" />
    <glyph glyph-name="uni0219" unicode="&#x219;" horiz-adv-x="455" 
d="M235 464q85 0 134 -23q31 -15 31 -39q0 -47 -43 -47q-11 0 -50 11.5t-71 11.5q-36 0 -60.5 -15.5t-24.5 -40.5q0 -30 48 -40q8 -2 47 -7q81 -11 125 -41t44 -94q0 -70 -51 -109t-139 -39q-67 0 -122.5 19.5t-55.5 45.5q0 54 43 54q14 0 60 -14.5t85 -14.5q35 0 57.5 14.5
t22.5 40.5q0 27 -22.5 38t-74.5 19q-36 5 -61 11.5t-51.5 19.5t-40.5 36t-14 55q0 64 55.5 106t128.5 42zM174 -199q0 8 14 22.5t18 23.5q4 7 -9.5 21.5t-13.5 29.5q0 21 15 35.5t38 14.5t39 -14.5t16 -38.5q0 -60 -67 -110q-16 -8 -26 -8t-17 6.5t-7 17.5z" />
    <glyph glyph-name="uni021A" unicode="&#x21a;" horiz-adv-x="574" 
d="M295 678q16 0 104.5 1t111.5 1q50 0 50 -46q0 -54 -53 -54h-166v-50q0 -99 4 -475q0 -59 -60 -59q-53 0 -52 55l2 368q0 43 -2 161q-39 -1 -174 -1q-47 0 -47 51q0 21 12 34.5t37 14.5q7 0 30.5 -0.5t75.5 -0.5h127zM226 -199q0 8 14 22.5t18 23.5q4 7 -9.5 21.5
t-13.5 29.5q0 21 15 35.5t38 14.5t39 -14.5t16 -38.5q0 -60 -67 -110q-16 -8 -26 -8t-17 6.5t-7 17.5z" />
    <glyph glyph-name="uni021B" unicode="&#x21b;" horiz-adv-x="370" 
d="M53 362q-43 0 -43 46q0 22 13 34.5t34 12.5h51l2 73q2 66 59 66q45 0 45 -50q0 -10 -1 -40.5t-1 -47.5h86q22 1 34 -11t12 -35q0 -47 -42 -47h-90v-176q0 -48 12 -71.5t41 -23.5q13 0 26 4t20 4q18 0 29 -14t11 -32q0 -32 -22 -45q-27 -15 -75 -15q-148 0 -148 179
q0 24 1.5 89.5t0.5 99.5h-55zM159 -199q0 8 14 22.5t18 23.5q4 7 -9.5 21.5t-13.5 29.5q0 21 15 35.5t38 14.5t39 -14.5t16 -38.5q0 -60 -67 -110q-16 -8 -26 -8t-17 6.5t-7 17.5z" />
    <glyph glyph-name="dotlessj" unicode="&#x237;" horiz-adv-x="245" 
d="M68 418q1 20 17.5 32t39.5 12q24 0 39 -11t15 -33q0 -33 -0.5 -114.5t-0.5 -130.5q0 -205 -2 -257q-2 -61 -50.5 -105.5t-118.5 -44.5q-97 -2 -97 59q0 24 12 38.5t28 14.5q9 0 26 -4.5t30 -3.5q60 0 63 96q2 52 1 286q-2 104 -2 166z" />
    <glyph glyph-name="circumflex" unicode="&#x2c6;" horiz-adv-x="361" 
d="M285 529q-15 0 -29 14q-23 21 -75 76q-65 -69 -75 -77q-13 -13 -29 -13q-12 0 -24.5 12t-12.5 24q0 14 12 29l86 95q18 19 43 19q23 0 40 -18q51 -53 87 -97q13 -15 13 -28q0 -11 -11.5 -23.5t-24.5 -12.5z" />
    <glyph glyph-name="caron" unicode="&#x2c7;" horiz-adv-x="357" 
d="M75 708q13 0 29 -14q15 -14 75 -76q56 60 74 77q13 13 30 13q12 0 24 -12t12 -24q0 -16 -12 -29q-8 -10 -85 -95q-18 -19 -44 -19q-24 0 -40 18q-56 61 -87 97q-13 15 -13 29q0 12 11.5 23.5t25.5 11.5z" />
    <glyph glyph-name="breve" unicode="&#x2d8;" horiz-adv-x="359" 
d="M280 696q16 0 26 -10.5t10 -24.5q0 -56 -38.5 -94t-98.5 -38q-54 0 -93.5 35.5t-41.5 89.5q0 17 10.5 28.5t27.5 11.5q15 0 24.5 -8.5t11.5 -22.5q2 -27 18.5 -43t43.5 -16t44 18t19 42q2 32 37 32z" />
    <glyph glyph-name="dotaccent" unicode="&#x2d9;" horiz-adv-x="209" 
d="M100 559q-29 0 -47 20.5t-16 50.5q4 27 23.5 42.5t46.5 15.5q30 0 47 -18t17 -46q0 -31 -19.5 -48t-51.5 -17z" />
    <glyph glyph-name="ring" unicode="&#x2da;" horiz-adv-x="307" 
d="M155 735q47 0 79.5 -29t32.5 -75q0 -47 -33 -80t-81 -33q-45 0 -79 30t-34 77q0 49 35.5 79.5t79.5 30.5zM205 630q0 22 -14.5 35.5t-38.5 13.5q-20 0 -35.5 -15t-15.5 -37q0 -24 14.5 -37.5t38.5 -13.5q23 0 37.5 16t13.5 38z" />
    <glyph glyph-name="ogonek" unicode="&#x2db;" horiz-adv-x="260" 
d="M119 -104q0 -17 9 -27t24 -10q9 0 19.5 2.5t18.5 2.5q13 0 21.5 -11.5t8.5 -28.5q0 -47 -72 -47q-46 0 -77 25.5t-31 74.5q0 72 96 134l74 1q-31 -24 -47 -39t-30 -36t-14 -41z" />
    <glyph glyph-name="tilde" unicode="&#x2dc;" horiz-adv-x="396" 
d="M115 577q-2 -26 -37 -26q-16 0 -26.5 12t-11.5 32q3 40 29 64t66 24q27 0 48.5 -14.5t38.5 -29t33 -15.5q24 0 26 32q4 28 38 28q15 0 26 -10t11 -25q0 -50 -25.5 -75.5t-67.5 -25.5q-34 1 -67.5 29t-51.5 29q-25 0 -29 -29z" />
    <glyph glyph-name="hungarumlaut" unicode="&#x2dd;" horiz-adv-x="392" 
d="M184 641l-81 -99q-13 -15 -28 -15t-26.5 10t-11.5 25q0 12 8 23l67 102q16 25 36 25q18 0 32 -12t14 -30q0 -15 -10 -29zM345 634l-87 -97q-13 -15 -25 -15q-15 0 -27.5 9.5t-12.5 24.5q0 10 9 24l73 102q15 25 35 25q18 0 32.5 -11.5t14.5 -27.5q0 -18 -12 -34z" />
    <glyph glyph-name="pi" unicode="&#x3c0;" horiz-adv-x="664" 
d="M433 583h-56h-130v-52q0 -194 3 -475q1 -60 -60 -60q-52 0 -52 56q3 366 3 368q0 45 -2 161q-30 0 -74 -2q-46 0 -46 51q0 48 49 49q20 0 67 -0.5t67 -0.5q25 0 176.5 2t220.5 2q46 0 46 -47q0 -28 -10 -40.5t-35 -12.5l-60 1l-1 -52q0 -7 5 -475q0 -59 -60 -59
q-52 0 -52 56q2 244 2 367z" />
    <glyph glyph-name="Wgrave" unicode="&#x1e80;" horiz-adv-x="855" 
d="M35 623q-4 26 12 43.5t43 17.5q47 0 55 -44q71 -366 87 -457q30 80 127 400q16 55 67 55q19 0 35.5 -12t21.5 -30l136 -404q78 397 82 423q7 39 19.5 53.5t40.5 14.5q26 0 43.5 -16t13.5 -42l-120 -566q-8 -32 -20.5 -47t-44.5 -16q-30 0 -44 16.5t-23 44.5l-141 410
q-28 -91 -136 -410q-21 -62 -70 -61q-41 2 -55 28t-28 97q-66 320 -101 502zM436 735q-62 59 -98 100q-15 16 -15 33q0 16 16.5 30.5t33.5 14.5q24 0 39 -20l83 -107q10 -13 10 -26t-12.5 -24.5t-25.5 -11.5q-16 0 -31 11z" />
    <glyph glyph-name="wgrave" unicode="&#x1e81;" horiz-adv-x="750" 
d="M31 407q-2 4 -2 11q0 20 20 32.5t42 12.5q37 0 46 -35q2 -5 32.5 -126t44.5 -168l105 290q14 33 55 33q42 0 59 -43l104 -277l56 212q11 47 21 77q11 32 46 32q22 0 41 -13t20 -32q0 -10 -3 -19q-2 -7 -35 -115t-48 -152q-24 -74 -30 -88q-15 -43 -64 -43q-46 0 -63 46
q-17 39 -59 154.5t-44 119.5l-93 -245q-15 -42 -30.5 -59.5t-47.5 -17.5q-31 0 -44.5 13t-23.5 42zM383 545q-62 59 -98 100q-15 16 -15 33q0 16 16.5 30.5t33.5 14.5q24 0 39 -20l83 -107q10 -13 10 -26t-12.5 -24.5t-25.5 -11.5q-16 0 -31 11z" />
    <glyph glyph-name="Wacute" unicode="&#x1e82;" horiz-adv-x="855" 
d="M35 623q-4 26 12 43.5t43 17.5q47 0 55 -44q71 -366 87 -457q30 80 127 400q16 55 67 55q19 0 35.5 -12t21.5 -30l136 -404q78 397 82 423q7 39 19.5 53.5t40.5 14.5q26 0 43.5 -16t13.5 -42l-120 -566q-8 -32 -20.5 -47t-44.5 -16q-30 0 -44 16.5t-23 44.5l-141 410
q-28 -91 -136 -410q-21 -62 -70 -61q-41 2 -55 28t-28 97q-66 320 -101 502zM416 732q-14 -11 -29 -11q-12 0 -26.5 12.5t-14.5 26.5q0 11 10 26l90 104q17 21 37 21q19 0 35.5 -15.5t16.5 -34.5q0 -14 -16 -32q-46 -49 -103 -97z" />
    <glyph glyph-name="wacute" unicode="&#x1e83;" horiz-adv-x="750" 
d="M31 407q-2 4 -2 11q0 20 20 32.5t42 12.5q37 0 46 -35q2 -5 32.5 -126t44.5 -168l105 290q14 33 55 33q42 0 59 -43l104 -277l56 212q11 47 21 77q11 32 46 32q22 0 41 -13t20 -32q0 -10 -3 -19q-2 -7 -35 -115t-48 -152q-24 -74 -30 -88q-15 -43 -64 -43q-46 0 -63 46
q-17 39 -59 154.5t-44 119.5l-93 -245q-15 -42 -30.5 -59.5t-47.5 -17.5q-31 0 -44.5 13t-23.5 42zM363 542q-14 -11 -29 -11q-12 0 -26.5 12.5t-14.5 26.5q0 11 10 26l90 104q17 21 37 21q19 0 35.5 -15.5t16.5 -34.5q0 -14 -16 -32q-46 -49 -103 -97z" />
    <glyph glyph-name="Wdieresis" unicode="&#x1e84;" horiz-adv-x="855" 
d="M35 623q-4 26 12 43.5t43 17.5q47 0 55 -44q71 -366 87 -457q30 80 127 400q16 55 67 55q19 0 35.5 -12t21.5 -30l136 -404q78 397 82 423q7 39 19.5 53.5t40.5 14.5q26 0 43.5 -16t13.5 -42l-120 -566q-8 -32 -20.5 -47t-44.5 -16q-30 0 -44 16.5t-23 44.5l-141 410
q-28 -91 -136 -410q-21 -62 -70 -61q-41 2 -55 28t-28 97q-66 320 -101 502zM338 744q-25 0 -40.5 16.5t-15.5 41.5t17 42t44 17q25 0 41 -16.5t16 -41.5q0 -26 -17 -42.5t-45 -16.5zM503 746q-24 0 -40 16.5t-16 40.5q0 25 17.5 42t43.5 17q25 0 41 -16.5t16 -41.5
q0 -26 -17 -42t-45 -16z" />
    <glyph glyph-name="wdieresis" unicode="&#x1e85;" horiz-adv-x="750" 
d="M31 407q-2 4 -2 11q0 20 20 32.5t42 12.5q37 0 46 -35q2 -5 32.5 -126t44.5 -168l105 290q14 33 55 33q42 0 59 -43l104 -277l56 212q11 47 21 77q11 32 46 32q22 0 41 -13t20 -32q0 -10 -3 -19q-2 -7 -35 -115t-48 -152q-24 -74 -30 -88q-15 -43 -64 -43q-46 0 -63 46
q-17 39 -59 154.5t-44 119.5l-93 -245q-15 -42 -30.5 -59.5t-47.5 -17.5q-31 0 -44.5 13t-23.5 42zM285 554q-25 0 -40.5 16.5t-15.5 41.5t17 42t44 17q25 0 41 -16.5t16 -41.5q0 -26 -17 -42.5t-45 -16.5zM450 556q-24 0 -40 16.5t-16 40.5q0 25 17.5 42t43.5 17
q25 0 41 -16.5t16 -41.5q0 -26 -17 -42t-45 -16z" />
    <glyph glyph-name="uni1E9E" unicode="&#x1e9e;" horiz-adv-x="674" 
d="M335 409l121 159q-10 5 -48 11.5t-64 6.5q-70 0 -114 -53.5t-44 -137.5q0 -28 1 -150t1 -181q-1 -36 -15 -51t-46 -16q-54 0 -54 61q0 12 0.5 40t1 99.5t0.5 188.5q0 142 78.5 222.5t201.5 80.5q53 0 106.5 -12t82.5 -28q34 -20 34 -57q0 -22 -11 -36l-139 -171
q32 -8 55.5 -16t53.5 -24t48.5 -35.5t31.5 -50.5t13 -69q0 -80 -57.5 -138t-148.5 -58q-62 0 -106 19t-44 48q0 23 12.5 39t34.5 16q11 0 43 -11t62 -11q42 0 69.5 26.5t27.5 66.5q0 52 -39.5 80.5t-112.5 42.5q-51 13 -51 55q0 23 15 44z" />
    <glyph glyph-name="Ygrave" unicode="&#x1ef2;" horiz-adv-x="607" 
d="M248 264l-11 18l-201 307q-16 24 -16 39q0 22 18 37.5t41 15.5q26 0 47 -32l179 -286q6 9 18 28t57.5 93t102.5 166q20 32 49 32q21 0 38.5 -15t17.5 -34q0 -18 -15 -40l-215 -327v-222q0 -22 -16.5 -34.5t-39.5 -12.5q-25 0 -40.5 14.5t-15.5 39.5q0 11 0.5 36t0.5 37
q0 34 0.5 77t0.5 63zM317 735q-62 59 -98 100q-15 16 -15 33q0 16 16.5 30.5t33.5 14.5q24 0 39 -20l83 -107q10 -13 10 -26t-12.5 -24.5t-25.5 -11.5q-16 0 -31 11z" />
    <glyph glyph-name="ygrave" unicode="&#x1ef3;" horiz-adv-x="504" 
d="M254 128q26 56 117 290q17 43 49 43q23 0 41.5 -13t18.5 -32q0 -20 -11 -42q-125 -287 -226 -490q-60 -109 -149 -109q-78 0 -78 54q0 51 53 51q31 0 47 12t37 48q7 11 45 86l-31 65l-125 271q-17 37 -17 54q0 20 18.5 33.5t39.5 13.5q30 0 43 -27q126 -304 128 -308z
M257 545q-62 59 -98 100q-15 16 -15 33q0 16 16.5 30.5t33.5 14.5q24 0 39 -20l83 -107q10 -13 10 -26t-12.5 -24.5t-25.5 -11.5q-16 0 -31 11z" />
    <glyph glyph-name="endash" unicode="&#x2013;" horiz-adv-x="500" 
d="M59 190q-25 0 -37 14.5t-12 36.5q2 50 56 50q31 0 190 -0.5t185 -0.5q48 0 48 -49q0 -51 -63 -51h-367z" />
    <glyph glyph-name="emdash" unicode="&#x2014;" horiz-adv-x="1000" 
d="M74 191q-25 0 -37 14.5t-12 35.5q2 50 56 50q31 0 425.5 -0.5t420.5 -0.5q47 0 47 -49q0 -51 -62 -51q-30 0 -421.5 0.5t-416.5 0.5z" />
    <glyph glyph-name="quoteleft" unicode="&#x2018;" horiz-adv-x="212" 
d="M121 605h1q17 -2 30.5 -16.5t14.5 -38.5q0 -26 -19 -45t-45 -19q-32 0 -51.5 21t-19.5 58q0 38 23.5 75.5t58.5 58.5q14 7 21 7q12 0 21.5 -8t9.5 -20q0 -14 -12 -24q-33 -25 -33 -46v-3z" />
    <glyph glyph-name="quoteright" unicode="&#x2019;" horiz-adv-x="212" 
d="M85 588h-1q-17 2 -30.5 16t-14.5 38q0 27 19 46t45 19q32 0 51.5 -21.5t19.5 -57.5q0 -38 -23.5 -75.5t-58.5 -59.5q-14 -7 -21 -7q-12 0 -21.5 8.5t-9.5 19.5q0 13 12 25q33 25 33 45v4z" />
    <glyph glyph-name="quotesinglbase" unicode="&#x201a;" horiz-adv-x="212" 
d="M85 1h-1q-17 2 -30.5 16t-14.5 38q0 27 19 46t45 19q32 0 51.5 -21.5t19.5 -57.5q0 -38 -23.5 -75.5t-58.5 -59.5q-14 -7 -21 -7q-12 0 -21.5 8.5t-9.5 19.5q0 13 12 25q33 25 33 45v4z" />
    <glyph glyph-name="quotedblleft" unicode="&#x201c;" horiz-adv-x="377" 
d="M121 605h1q17 -2 30.5 -16t14.5 -38q0 -27 -19 -46t-45 -19q-32 0 -51.5 21.5t-19.5 57.5q0 38 23.5 75.5t58.5 59.5q14 7 21 7q12 0 21.5 -8.5t9.5 -19.5q0 -13 -12 -25q-33 -25 -33 -45v-4zM287 605h1q17 -2 30.5 -16t14.5 -38q0 -27 -19 -46t-45 -19q-32 0 -51.5 21.5
t-19.5 57.5q0 38 23.5 75.5t58.5 59.5q14 7 21 7q12 0 21.5 -8.5t9.5 -19.5q0 -13 -12 -25q-33 -25 -33 -45v-4z" />
    <glyph glyph-name="quotedblright" unicode="&#x201d;" horiz-adv-x="378" 
d="M85 587h-1q-17 2 -30.5 16.5t-14.5 38.5q0 26 19 45t45 19q32 0 51.5 -21t19.5 -58q0 -38 -23.5 -75.5t-58.5 -58.5q-14 -7 -21 -7q-12 0 -21.5 8t-9.5 20q0 14 12 24q33 25 33 46v3zM251 587h-1q-17 2 -30.5 16.5t-14.5 38.5q0 26 19 45t45 19q32 0 51.5 -21t19.5 -58
q0 -38 -23.5 -75.5t-58.5 -58.5q-14 -7 -21 -7q-12 0 -21.5 8t-9.5 20q0 14 12 24q33 25 33 46v3z" />
    <glyph glyph-name="quotedblbase" unicode="&#x201e;" horiz-adv-x="378" 
d="M85 1h-1q-17 2 -30.5 16t-14.5 38q0 27 19 46t45 19q32 0 51.5 -21.5t19.5 -57.5q0 -38 -23.5 -75.5t-58.5 -59.5q-14 -7 -21 -7q-12 0 -21.5 8.5t-9.5 19.5q0 13 12 25q33 25 33 45v4zM250 1h-1q-17 2 -30.5 16t-13.5 38q-1 27 18 46t45 19q32 0 52 -21.5t20 -57.5
q0 -38 -24 -75.5t-59 -59.5q-11 -7 -21 -7q-11 0 -20.5 8.5t-9.5 19.5q0 15 12 25q32 25 32 45v4z" />
    <glyph glyph-name="dagger" unicode="&#x2020;" horiz-adv-x="527" 
d="M78 386q-22 0 -36 13t-13 38q0 49 52 49q7 0 46 -0.5t82 -0.5l-1 185q0 56 54 56q30 0 42.5 -13t12.5 -49q0 -39 -1.5 -101.5t-1.5 -78.5l137 1q47 0 47 -49q0 -50 -59 -50h-125q0 -77 1 -262.5t1 -258.5q0 -26 -14 -41t-39 -15t-40.5 14t-15.5 39q0 39 0.5 139.5
t0.5 140.5t0.5 122t0.5 123z" />
    <glyph glyph-name="daggerdbl" unicode="&#x2021;" horiz-adv-x="527" 
d="M78 386q-51 0 -49 52q0 46 53 46h127l-2 192q0 22 15 34.5t39 12.5q27 0 41 -11.5t14 -43.5q0 -31 -1.5 -88t-1.5 -97l138 2q47 0 47 -49q0 -50 -59 -50l-126 2q0 -36 1 -121.5t1 -138.5l136 2q47 0 47 -48q0 -51 -59 -51l-125 2q0 -24 1.5 -82t1.5 -82q0 -61 -56 -61
q-54 0 -54 57l2 169l-115 -1q-65 0 -65 49t56 49l124 -2v57v202z" />
    <glyph glyph-name="bullet" unicode="&#x2022;" horiz-adv-x="342" 
d="M167 97q-62 0 -101 37.5t-39 98.5q0 65 41.5 104.5t105.5 39.5q60 0 99.5 -40.5t39.5 -100.5q0 -64 -40.5 -101.5t-105.5 -37.5z" />
    <glyph glyph-name="ellipsis" unicode="&#x2026;" horiz-adv-x="658" 
d="M106 -5q-29 0 -47.5 18.5t-18.5 46.5q0 30 20 49.5t51 19.5q29 0 48.5 -19t19.5 -48q0 -31 -20 -49t-53 -18zM325 -5q-28 0 -47 18.5t-19 46.5q0 30 20.5 49.5t51.5 19.5q29 0 48 -19t19 -48q0 -31 -20 -49t-53 -18zM545 -5q-29 0 -47.5 18.5t-18.5 46.5q0 30 20 49.5
t51 19.5q29 0 48.5 -19t19.5 -48q0 -31 -20 -49t-53 -18z" />
    <glyph glyph-name="perthousand" unicode="&#x2030;" horiz-adv-x="1146" 
d="M531 652q22 40 61 22q37 -22 15 -63q-3 -5 -62.5 -99t-91.5 -151q-24 -44 -62.5 -107.5t-43.5 -73.5l-95 -162q-9 -16 -28 -20.5t-34 4.5q-15 8 -19.5 24t5.5 34l182 294zM29 491q0 79 38 134.5t110 55.5q69 0 110 -50t41 -130q0 -78 -44 -126.5t-109 -48.5
q-59 0 -102.5 46.5t-43.5 118.5zM177 606q-68 0 -68 -108q0 -41 17.5 -69t48.5 -28q33 0 52 29t19 75t-17.5 73.5t-51.5 27.5zM463 158q0 79 38.5 132t112.5 53q70 0 111.5 -49t41.5 -129q0 -78 -43.5 -125.5t-110.5 -47.5q-62 0 -106 47t-44 119zM614 272q-36 0 -53 -31.5
t-17 -79.5q0 -43 17.5 -70t49.5 -27q36 0 54.5 26t17.5 74q-2 108 -69 108zM813 158q0 79 38.5 132t112.5 53q70 0 111.5 -49t41.5 -129q0 -78 -43.5 -125.5t-110.5 -47.5q-62 0 -106 47t-44 119zM964 272q-36 0 -53 -31.5t-17 -79.5q0 -43 17.5 -70t49.5 -27q36 0 54.5 26
t17.5 74q-2 108 -69 108z" />
    <glyph glyph-name="guilsinglleft" unicode="&#x2039;" horiz-adv-x="296" 
d="M240 351l-99 -115l101 -113q16 -16 16 -34q0 -11 -12 -23t-25 -13q-16 -1 -32 13l-128 121q-24 23 -24 49q0 24 21 45q34 37 128 125q14 12 29 12q14 0 27 -11.5t13 -25.5t-15 -30z" />
    <glyph glyph-name="guilsinglright" unicode="&#x203a;" horiz-adv-x="296" 
d="M154 235l-99 114q-15 17 -15 30q0 14 13 25.5t27 11.5q17 0 29 -11q81 -76 128 -125q21 -23 21 -45q0 -26 -24 -50l-128 -120q-16 -14 -32 -14q-13 1 -25 13t-12 23q0 17 16 35z" />
    <glyph glyph-name="fraction" unicode="&#x2044;" horiz-adv-x="446" 
d="M368 653q16 27 36 27q15 0 25.5 -10t10.5 -24t-10 -31q-9 -16 -66.5 -109t-87.5 -145l-201 -343q-13 -22 -33 -22q-13 0 -25 10t-12 26q0 13 11 31z" />
    <glyph glyph-name="zerosuperior" unicode="&#x2070;" horiz-adv-x="366" 
d="M30 547q0 94 40 152t113 58q72 0 113 -52.5t41 -143.5t-44 -141.5t-109 -50.5t-109.5 48t-44.5 130zM183 683q-74 0 -74 -130q0 -47 19.5 -79t51.5 -32q36 0 57.5 31.5t21.5 85.5t-20 89t-56 35z" />
    <glyph glyph-name="foursuperior" unicode="&#x2074;" horiz-adv-x="343" 
d="M193 568q0 39 34 39q38 0 39 -29v-63l30 1q33 0 33 -33q0 -42 -31 -42h-31v-41q-1 -31 -39 -31q-36 -2 -36 31q0 11 0.5 22.5t0.5 18.5h-133q-17 0 -28.5 15t-11.5 31q0 25 18 52l105 194q16 25 37 25q17 0 31.5 -11t14.5 -25q0 -9 -6 -21l-107 -188l80 1v54z" />
    <glyph glyph-name="fivesuperior" unicode="&#x2075;" horiz-adv-x="325" 
d="M60 714q2 18 13.5 29.5t28.5 11.5h141q37 0 37 -39q0 -36 -39 -36l-111 1l-3 -18l-8 -54q29 13 51 13q57 0 91.5 -32.5t34.5 -86.5q0 -59 -36 -97t-102 -38q-58 0 -100 24q-28 16 -28 40q0 15 10.5 27t27.5 12q11 0 27 -10q30 -16 62 -16q24 0 41.5 14t17.5 39
q0 24 -16.5 38t-42.5 14q-15 0 -39.5 -9t-37.5 -9q-19 0 -32 12t-9 30q2 18 10 65.5t11 74.5z" />
    <glyph glyph-name="sixsuperior" unicode="&#x2076;" horiz-adv-x="343" 
d="M192 681q-29 0 -51.5 -22t-23.5 -54q-1 -6 -1 -17q10 14 32 23.5t42 9.5q55 0 91 -30t36 -91q0 -59 -38 -95t-102 -36q-116 0 -137 120q-5 30 -5 64q0 90 43.5 147t114.5 57q48 0 76 -14q25 -14 25 -37q0 -16 -9.5 -26.5t-24.5 -10.5q-11 0 -24 5q-28 7 -44 7zM178 554
q-27 0 -44 -15t-17 -42q0 -26 16.5 -41t41.5 -15q27 0 45.5 15.5t18.5 42.5q0 26 -16.5 40.5t-44.5 14.5z" />
    <glyph glyph-name="sevensuperior" unicode="&#x2077;" horiz-adv-x="311" 
d="M190 681q-20 0 -64.5 -1t-69.5 -1q-38 0 -38 39q0 18 11.5 27t27.5 9h200q18 0 27 -10.5t9 -25.5q0 -20 -18 -46q-68 -98 -102 -191q-15 -42 -24 -75q-8 -35 -42 -35q-21 0 -32 10.5t-9 28.5q4 29 26 85q37 96 98 186z" />
    <glyph glyph-name="eightsuperior" unicode="&#x2078;" horiz-adv-x="345" 
d="M304 650q0 -26 -12.5 -47.5t-34.5 -30.5q27 -8 43 -29.5t16 -50.5q1 -62 -38 -93.5t-105 -31.5q-63 0 -103.5 31t-40.5 85q0 31 16.5 54t45.5 34q-18 6 -31.5 28t-13.5 47q0 51 38 81.5t88 30.5q55 0 93.5 -30t38.5 -78zM174 539q-27 0 -45 -13.5t-18 -37.5
q0 -23 16.5 -36t42.5 -13q30 0 47.5 13.5t17.5 37.5q0 23 -17.5 36t-43.5 13zM124 644q1 -19 14.5 -31t34.5 -12q23 0 37.5 13.5t14.5 33.5q0 17 -15 29t-37 12q-21 0 -35 -12.5t-14 -32.5z" />
    <glyph glyph-name="ninesuperior" unicode="&#x2079;" horiz-adv-x="346" 
d="M157 446q32 0 52.5 23t20.5 66q-27 -31 -75 -31q-50 0 -87.5 31.5t-37.5 90.5q0 58 40.5 94.5t100.5 36.5q72 0 107 -48t35 -131q0 -108 -38.5 -159t-120.5 -51q-48 0 -87 18q-21 11 -21 38q0 15 10 26.5t25 11.5q3 0 27 -6q24 -10 49 -10zM167 570q27 -1 44.5 15
t17.5 43q0 24 -18 40.5t-43 16.5q-24 0 -41.5 -16t-17.5 -43q0 -25 16 -40.5t42 -15.5z" />
    <glyph glyph-name="zeroinferior" unicode="&#x2080;" horiz-adv-x="366" 
d="M30 7q0 94 40 152t113 58q72 0 113 -52.5t41 -143.5t-44 -141.5t-109 -50.5t-109.5 48t-44.5 130zM183 143q-74 0 -74 -130q0 -47 19.5 -79t51.5 -32q36 0 57.5 31.5t21.5 85.5t-20 89t-56 35z" />
    <glyph glyph-name="oneinferior" unicode="&#x2081;" horiz-adv-x="255" 
d="M78 84q-10 -6 -22 -6q-14 0 -24 11.5t-10 24.5q0 21 22 35l74 52q20 13 38 13q15 0 27 -10t12 -22q0 -18 -0.5 -52t-0.5 -53v-216q0 -15 -11.5 -23.5t-28.5 -8.5q-40 0 -40 37q0 22 2 115.5t2 131.5q-13 -11 -40 -29z" />
    <glyph glyph-name="twoinferior" unicode="&#x2082;" horiz-adv-x="322" 
d="M152 140q-30 0 -52 -27q-13 -15 -36 -15q-14 0 -25 11.5t-11 26.5q0 21 30 47q43 34 92 34q58 1 97.5 -32t39.5 -87q0 -27 -13 -52.5t-27 -39.5t-46 -43q-8 -7 -12 -11l-50 -46q39 0 80.5 1t42.5 1q35 0 35 -39t-39 -39q-8 0 -32 0.5t-31 0.5h-128q-18 0 -29.5 11.5
t-11.5 30.5q0 27 27 53l92 89q23 21 32 30t18.5 23t9.5 26q0 20 -15 33t-38 13z" />
    <glyph glyph-name="threeinferior" unicode="&#x2083;" horiz-adv-x="318" 
d="M207 -45q0 49 -66 49h-23q-15 0 -23.5 10t-8.5 26t18 32q61 61 69 68q-78 0 -102 -1q-40 0 -40 37q0 16 9 26.5t27 10.5h65h116q35 0 35 -35q0 -21 -18 -37l-77 -78q40 -3 69.5 -31t30.5 -73q0 -62 -39.5 -97t-100.5 -35q-54 0 -93 22q-27 14 -27 40q0 16 10.5 27.5
t23.5 11.5q10 0 34 -11q31 -14 51 -14q26 0 43 13.5t17 38.5z" />
    <glyph glyph-name="fourinferior" unicode="&#x2084;" horiz-adv-x="343" 
d="M193 28q0 39 34 39q38 0 39 -29v-63l30 1q33 0 33 -33q0 -42 -31 -42h-31v-41q-1 -31 -39 -31q-36 -2 -36 31q0 11 0.5 22.5t0.5 18.5h-41h-52h-40q-17 0 -28.5 15t-11.5 31q0 25 18 52l105 194q16 25 37 25q17 0 31.5 -11t14.5 -25q0 -9 -6 -21l-107 -188l80 1v54z" />
    <glyph glyph-name="fiveinferior" unicode="&#x2085;" horiz-adv-x="325" 
d="M60 174q2 18 13.5 29.5t28.5 11.5h141q37 0 37 -39q0 -37 -39 -36l-111 1l-3 -18l-8 -54q29 13 51 13q57 0 91.5 -32.5t34.5 -86.5q0 -59 -36 -97t-102 -38q-58 0 -100 24q-28 16 -28 40q0 15 10.5 27t27.5 12q11 0 27 -10q30 -16 62 -16q24 0 41.5 14t17.5 39
q0 24 -16.5 38t-42.5 14q-15 0 -39.5 -9t-37.5 -9q-19 0 -32 12t-9 30q2 18 10 65.5t11 74.5z" />
    <glyph glyph-name="sixinferior" unicode="&#x2086;" horiz-adv-x="343" 
d="M192 141q-29 0 -51.5 -22t-23.5 -54q-1 -6 -1 -17q10 14 32 23.5t42 9.5q55 0 91 -30t36 -91q0 -59 -38 -95t-102 -36q-116 0 -137 120q-5 30 -5 64q0 90 43.5 147t114.5 57q48 0 76 -14q25 -14 25 -37q0 -16 -9.5 -26.5t-24.5 -10.5q-11 0 -24 5q-28 7 -44 7zM178 14
q-27 0 -44 -15t-17 -42q0 -26 16.5 -41t41.5 -15q27 0 45.5 15.5t18.5 42.5q0 26 -16.5 40.5t-44.5 14.5z" />
    <glyph glyph-name="seveninferior" unicode="&#x2087;" horiz-adv-x="311" 
d="M190 141q-20 0 -64.5 -1t-69.5 -1q-38 0 -38 39q0 18 11.5 27t27.5 9h200q18 0 27 -10.5t9 -25.5q0 -20 -18 -46q-68 -98 -102 -191q-15 -42 -24 -75q-8 -35 -42 -35q-21 0 -32 10.5t-9 28.5q4 29 26 85q37 96 98 186z" />
    <glyph glyph-name="eightinferior" unicode="&#x2088;" horiz-adv-x="345" 
d="M304 110q0 -26 -12.5 -47.5t-34.5 -30.5q27 -8 43 -29.5t16 -50.5q1 -62 -38 -93.5t-105 -31.5q-63 0 -103.5 30.5t-40.5 84.5q0 66 62 89q-18 6 -31.5 28t-13.5 47q0 51 38 81.5t88 30.5q55 0 93.5 -30t38.5 -78zM174 -1q-27 0 -45 -13.5t-18 -38.5q1 -23 17 -35.5
t42 -12.5q30 0 47.5 13.5t17.5 37.5q0 23 -17.5 36t-43.5 13zM124 104q1 -19 14.5 -31t34.5 -12q23 0 37.5 13.5t14.5 33.5q0 17 -15 29t-37 12q-20 0 -34.5 -12.5t-14.5 -32.5z" />
    <glyph glyph-name="nineinferior" unicode="&#x2089;" horiz-adv-x="346" 
d="M157 -94q32 0 52.5 23t20.5 66q-27 -31 -75 -31q-50 0 -87.5 31.5t-37.5 90.5q0 58 40.5 94.5t100.5 36.5q72 0 107 -48t35 -131q0 -108 -38.5 -159t-120.5 -51q-48 0 -87 18q-21 11 -21 38q0 15 10 26.5t25 11.5q3 0 27 -6q24 -10 49 -10zM167 30q27 -1 44.5 15t17.5 43
q0 24 -18 40.5t-43 16.5q-24 0 -41.5 -16t-17.5 -43q0 -25 16 -40.5t42 -15.5z" />
    <glyph glyph-name="franc" unicode="&#x20a3;" horiz-adv-x="538" 
d="M48 112q-43 0 -43 40q0 46 45 46h47l1 282q0 19 -1 59t-1 61q-2 22 6 42q12 37 50 37q7 0 26 -0.5t28 -0.5q28 0 115 1t128 1q35 0 51 -10.5t16 -35.5q0 -53 -55 -53l-254 1v-112v-73l192 1q45 0 45 -49t-52 -49q-32 0 -94 0.5t-93 0.5v-104q9 0 50.5 0.5t48.5 0.5
q46 0 46 -42q0 -44 -51 -44h-94v-56q0 -30 -12 -44.5t-41 -14.5q-57 0 -57 51v64h-47z" />
    <glyph glyph-name="lira" unicode="&#x20a4;" horiz-adv-x="546" 
d="M99 231q-43 0 -42 39q0 36 47 36h43v47h-42q-25 0 -35.5 7.5t-10.5 28.5q0 36 49 36h38q0 5 0.5 21.5t0.5 22.5q3 100 60 156.5t142 56.5q57 0 93 -21q30 -16 30 -47q0 -17 -13 -34t-32 -17q-12 0 -33 7t-40 7q-42 0 -69 -33.5t-27 -96.5v-22h92q47 0 47 -33
q0 -39 -45 -39h-94v-47h95q38 0 38 -35q0 -21 -10.5 -30.5t-37.5 -9.5h-85v-112q112 -29 135 -29q21 0 40 22.5t41 22.5q21 0 35.5 -14t13.5 -36q-2 -48 -34.5 -72t-81.5 -24q-34 0 -126 21.5t-107 22.5q-29 0 -45 -18q-1 -2 -5.5 -7.5t-7 -7.5t-7.5 -5.5t-11.5 -4.5
t-15.5 -1q-22 0 -36 20q-16 18 -13 42q7 31 29.5 52.5t53.5 28.5q8 2 32 2v97h-49z" />
    <glyph glyph-name="Euro" unicode="&#x20ac;" horiz-adv-x="584" 
d="M515 665q35 -13 35 -49q0 -21 -11.5 -37t-33.5 -16q-9 0 -41 9.5t-59 9.5q-59 0 -103.5 -36t-68.5 -100q71 1 185 1q39 0 39 -39q0 -38 -41 -38h-202q-3 -19 -3 -41q0 -16 1 -23h193q37 0 37 -37q0 -23 -12.5 -32.5t-40.5 -9.5q-98 0 -162 1q42 -129 181 -129
q25 0 61 10.5t49 10.5q18 -1 30 -20t12 -39q0 -33 -46.5 -50.5t-121.5 -16.5q-105 1 -181 62.5t-100 172.5q-10 0 -24 0.5t-22 0.5q-44 0 -44 40q0 36 44 36h37v19q0 30 2 45h-31q-40 0 -40 35q0 19 12 30t34 11h40q32 110 112 174.5t177 63.5q63 -1 107 -19z" />
    <glyph glyph-name="uni20B9" unicode="&#x20b9;" horiz-adv-x="530" 
d="M81 586q-23 0 -34.5 13.5t-10.5 31.5q0 45 53 45q32 0 183.5 -0.5t176.5 -0.5q45 0 45 -43q0 -46 -57 -46q-7 0 -38 -0.5t-52 -0.5q43 -34 47 -87h57q43 0 43 -42q0 -46 -57 -46h-46q-13 -55 -50.5 -94t-92.5 -52l175 -179q19 -19 19 -41q0 -21 -15.5 -35.5t-40.5 -15.5
q-25 0 -50 29l-201 218h-40q-23 0 -35 14t-12 35q0 44 49 44h55q103 0 127 77h-198q-23 0 -34.5 13.5t-10.5 31.5q0 44 53 44q117 0 195 -1q-13 78 -111 88h-92z" />
    <glyph glyph-name="uni20BA" unicode="&#x20ba;" horiz-adv-x="548" 
d="M363 294l-116 -39q-2 -88 0 -145q57 -1 99.5 27t60.5 69q11 24 24 34.5t36 9.5q52 -3 46 -61q-13 -70 -73 -121t-149 -65q-28 -4 -87 -4q-32 0 -51 13t-18 44v161l-55 -18q-21 -7 -35.5 2.5t-17.5 24.5q-8 37 40 52l69 23v53l-61 -20q-21 -7 -35 1t-19 26q-9 36 40 51
l75 26v192q0 25 15 39t42 14q25 0 39.5 -12t14.5 -35q0 -93 -1 -160l95 32q42 12 55 -24q12 -37 -39 -55l-110 -37v-53l99 34q44 13 55 -25t-38 -54z" />
    <glyph glyph-name="uni20BD" unicode="&#x20bd;" horiz-adv-x="623" 
d="M83 263q-48 0 -48 44q0 47 54 47l37 1l-1 227q0 46 17.5 70.5t68.5 26.5q56 3 125 3q114 0 181 -52t67 -153q0 -102 -65 -157.5t-183 -55.5h-98v-69h136q48 0 48 -43q0 -47 -54 -47h-130q0 -2 0.5 -28.5t0.5 -27.5q0 -56 -57 -56q-56 0 -56 55v57h-44q-49 0 -49 44
q0 46 53 46h40v68h-43zM238 425v-70q21 0 51 0.5t52 0.5q136 0 136 119q0 111 -141 111q-77 0 -99 -2q0 -15 0.5 -69.5t0.5 -89.5z" />
    <glyph glyph-name="uni2113" unicode="&#x2113;" horiz-adv-x="438" 
d="M258 -5q-61 0 -104 38t-48 93q0 2 -0.5 6t-1 11.5t-0.5 13.5q-24 -8 -38 -7q-14 2 -23 15t-9 30q0 35 38 43q11 1 29 11l-2 62q-9 149 -7 176q2 42 8.5 74t22.5 63t47.5 47.5t76.5 16.5q70 0 107.5 -46.5t39.5 -116.5t-34.5 -141t-96.5 -129q-31 -33 -68 -55v-16
q0 -43 17 -70t52 -27q25 0 59 17q23 12 35 12q16 0 28 -14t12 -32q0 -26 -19 -39q-56 -36 -121 -36zM184 467q0 -22 0.5 -48.5t1.5 -60t1 -52.5q34 27 68 72q45 71 46 133q0 90 -56 90q-61 0 -61 -134z" />
    <glyph glyph-name="trademark" unicode="&#x2122;" horiz-adv-x="676" 
d="M149 676q1 0 32 0.5t66 0.5q28 0 28 -28q0 -32 -29 -32h-70l1 -191q0 -7 0.5 -22.5t0.5 -24.5q0 -32 -35 -32q-31 0 -31 30l1 174q0 39 -1 66q-9 -1 -32 -1h-42q-26 0 -26 31q0 29 28 29h109zM428 382l-63 181l-22 -192q-4 -25 -31 -25q-15 0 -24 9.5t-8 23.5
q7 45 22.5 157t16.5 118q6 23 40 23q25 -1 35 -29l68 -201l74 199q9 26 32 31h13q20 0 27 -15l31 -236l6 -48q1 -15 -8.5 -23.5t-23.5 -8.5q-28 0 -31 26l-20 188l-66 -180q-12 -23 -38 -23q-9 0 -15.5 4.5t-8.5 8t-6 12.5z" />
    <glyph glyph-name="Omega" unicode="&#x2126;" horiz-adv-x="706" 
d="M262 0l-174 -1q-25 0 -38.5 13.5t-13.5 36.5q0 26 15 40.5t39 14.5q64 0 102 -2q-64 42 -108.5 108.5t-44.5 154.5q0 139 89 229.5t223 90.5q140 0 228.5 -88t87.5 -223q-1 -85 -42 -154.5t-104 -117.5q13 0 48 1t43 1q60 0 60 -52t-55 -52h-173q-21 -1 -37 12.5
t-16 38.5q0 32 29 63q66 55 103 114.5t37 144.5q0 92 -59.5 152.5t-148.5 60.5q-90 0 -148.5 -61.5t-58.5 -160.5q0 -80 38.5 -137.5t108.5 -114.5q29 -23 29 -59q0 -24 -15.5 -39t-43.5 -14z" />
    <glyph glyph-name="estimated" unicode="&#x212e;" horiz-adv-x="691" 
d="M642 293h-450v-212q71 -50 153 -50q70 0 128 37.5t91 89.5q5 5 12 2l23 -16q2 -2 1 -6q-43 -65 -109.5 -106t-145.5 -41q-128 0 -214 94t-86 225t86 224t214 93t214.5 -92.5t86.5 -224.5v-12q0 -5 -4 -5zM192 330h305v209q-69 51 -152 51q-85 0 -153 -53v-207z" />
    <glyph glyph-name="onethird" unicode="&#x2153;" horiz-adv-x="771" 
d="M498 653q16 27 36 27q15 0 25.5 -10t10.5 -24t-10 -31q-9 -16 -66.5 -109t-87.5 -145l-201 -343q-13 -22 -33 -22q-13 0 -25 10t-12 26q0 13 11 31zM660 121q0 49 -67 49h-23q-31 0 -31 36q0 13 17 32q7 7 31.5 31t38.5 37q-12 0 -51.5 -0.5t-51.5 -0.5q-39 0 -39 36
q0 16 9 27t26 11h66q18 0 57 -0.5t59 -0.5q34 0 34 -34q0 -21 -18 -37l-77 -79q41 -2 70.5 -30t29.5 -74q1 -62 -38.5 -96.5t-101.5 -34.5q-56 0 -92 21q-28 16 -28 40q0 16 11 27.5t24 11.5q12 0 34 -10q27 -15 50 -15q27 0 44 14t17 39zM87 551q-12 -6 -23 -6
q-13 0 -23.5 11.5t-10.5 24.5q0 20 22 35l74 52q20 13 38 13q15 0 27 -10t12 -22v-105q0 -35 -0.5 -107.5t-0.5 -108.5q0 -15 -11 -23.5t-28 -8.5q-40 0 -40 37q0 22 2 115.5t2 131.5q-6 -5 -13.5 -10t-15 -10.5t-11.5 -8.5z" />
    <glyph glyph-name="twothirds" unicode="&#x2154;" horiz-adv-x="811" 
d="M555 653q16 27 36 27q15 0 26 -10t11 -24q0 -11 -10 -31l-154 -254l-202 -343q-13 -22 -33 -22q-13 0 -25 10t-12 26q0 11 11 31zM700 121q0 49 -67 49h-23q-31 0 -31 36q0 13 17 32q7 7 31.5 31t38.5 37q-12 0 -51.5 -0.5t-51.5 -0.5q-39 0 -39 36q0 16 9 27t26 11h66
q18 0 57 -0.5t59 -0.5q34 0 34 -34q0 -21 -18 -37l-77 -79q41 -2 70.5 -30t29.5 -74q1 -62 -38.5 -96.5t-101.5 -34.5q-56 0 -92 21q-28 16 -28 40q0 16 11 27.5t24 11.5q12 0 34 -10q27 -15 50 -15q27 0 44 14t17 39zM160 607q-30 0 -52 -27q-13 -15 -36 -15
q-14 0 -24.5 11.5t-10.5 26.5q0 23 30 47q41 34 91 34q59 1 98.5 -32t39.5 -87q0 -10 -1 -19t-5.5 -19t-6.5 -16t-10.5 -16t-11.5 -14.5t-14.5 -15.5t-14.5 -14t-17.5 -16t-17.5 -16l-50 -46q40 0 81 1l42 1q36 0 36 -39t-40 -39q-8 0 -32 0.5t-31 0.5h-128q-17 0 -28.5 11
t-11.5 30q0 30 27 54l92 89q23 21 32 30t18.5 23t9.5 26q0 20 -15.5 33t-38.5 13z" />
    <glyph glyph-name="oneeighth" unicode="&#x215b;" horiz-adv-x="791" 
d="M502 653q16 27 36 27q15 0 26 -10t11 -24q0 -11 -10 -31l-154 -254l-202 -343q-13 -22 -33 -22q-13 0 -25 10t-12 26q0 11 11 31zM741 275q0 -26 -12.5 -47t-34.5 -31q59 -19 59 -80q1 -61 -38 -92.5t-105 -31.5q-63 0 -103.5 30.5t-40.5 84.5q0 65 62 88q-18 6 -31.5 28
t-13.5 48q0 50 38 80.5t88 30.5q55 0 93.5 -30t38.5 -78zM611 165q-27 0 -45 -14t-18 -38q0 -23 16.5 -35.5t42.5 -12.5q30 0 47.5 13.5t17.5 37.5q0 22 -17.5 35.5t-43.5 13.5zM561 270q1 -19 14.5 -31.5t34.5 -12.5q23 0 37.5 13.5t14.5 34.5q0 17 -15 29t-37 12
q-21 0 -35 -12.5t-14 -32.5zM91 551q-11 -6 -22 -6q-14 0 -24 11.5t-10 24.5q0 21 22 35l74 52q20 13 38 13q15 0 27 -10t12 -22q0 -18 -0.5 -52t-0.5 -53v-216q0 -15 -11.5 -23.5t-28.5 -8.5q-40 0 -40 37q0 22 2 115.5t2 131.5q-13 -11 -40 -29z" />
    <glyph glyph-name="threeeighths" unicode="&#x215c;" horiz-adv-x="821" 
d="M545 653q16 27 36 27q15 0 25.5 -10t10.5 -24t-10 -31q-9 -16 -66.5 -109t-87.5 -145l-201 -343q-13 -22 -33 -22q-13 0 -25 10t-12 26q0 13 11 31zM766 275q0 -26 -12.5 -47t-34.5 -31q28 -8 44 -29.5t16 -50.5q1 -61 -38 -92.5t-106 -31.5q-63 0 -103.5 30.5
t-40.5 84.5q0 65 63 88q-18 6 -31.5 28t-13.5 48q0 50 37.5 80.5t87.5 30.5q56 0 94 -30t38 -78zM636 165q-27 0 -44.5 -13.5t-17.5 -38.5q0 -23 16 -35.5t42 -12.5q65 0 65 51q0 22 -17 35.5t-44 13.5zM587 270q0 -19 13.5 -31.5t34.5 -12.5q24 0 38.5 13.5t14.5 34.5
q0 17 -15 29t-38 12q-20 0 -34 -12.5t-14 -32.5zM216 422q0 49 -67 49h-23q-31 0 -31 36q0 15 17 32q54 54 70 68q-79 0 -103 -1q-39 0 -39 37q0 15 9 26t26 11h66h116q34 0 34 -35q0 -21 -18 -37l-77 -78q41 -3 70.5 -31t29.5 -73q1 -62 -38.5 -97t-101.5 -35q-55 0 -92 22
q-28 15 -28 40q0 16 11 27t24 11q12 0 34 -10q26 -14 50 -14q27 0 44 13.5t17 38.5z" />
    <glyph glyph-name="fiveeighths" unicode="&#x215d;" horiz-adv-x="821" 
d="M546 653q16 27 36 27q15 0 25.5 -10t10.5 -24t-10 -31q-9 -16 -66.5 -109t-87.5 -145l-201 -343q-13 -22 -33 -22q-13 0 -25 10t-12 26q0 13 11 31zM767 275q0 -26 -12.5 -47t-34.5 -31q28 -8 44 -29.5t16 -50.5q1 -61 -38 -92.5t-106 -31.5q-63 0 -103.5 30.5
t-40.5 84.5q0 65 63 88q-18 6 -31.5 28t-13.5 48q0 50 37.5 80.5t87.5 30.5q56 0 94 -30t38 -78zM637 165q-27 0 -44.5 -13.5t-17.5 -38.5q0 -23 16 -35.5t42 -12.5q65 0 65 51q0 22 -17 35.5t-44 13.5zM588 270q0 -19 13.5 -31.5t34.5 -12.5q24 0 38.5 13.5t14.5 34.5
q0 17 -15 29t-38 12q-20 0 -34 -12.5t-14 -32.5zM70 641q2 18 13 29.5t28 11.5h141q38 0 38 -39q0 -36 -40 -36l-110 1l-3 -18l-8 -54q26 13 50 13q58 0 92.5 -32.5t34.5 -86.5q0 -59 -36.5 -97t-102.5 -38q-57 0 -99 24q-28 15 -28 40q0 15 10.5 27t27.5 12q9 0 27 -10
q28 -16 62 -16q24 0 41 14t17 39q0 24 -16.5 38t-42.5 14q-15 0 -39.5 -9t-36.5 -9q-19 0 -32 11.5t-10 30.5q2 14 10 63t12 77z" />
    <glyph glyph-name="seveneighths" unicode="&#x215e;" horiz-adv-x="791" 
d="M496 653q16 27 36 27q15 0 26 -10t11 -24q0 -11 -10 -31l-154 -254l-202 -343q-13 -22 -33 -22q-13 0 -25 10t-12 26q0 11 11 31zM738 275q0 -26 -12.5 -47t-34.5 -31q28 -8 44 -29.5t16 -50.5q1 -61 -38 -92.5t-106 -31.5q-63 0 -103.5 30.5t-40.5 84.5q0 65 63 88
q-18 6 -31.5 28t-13.5 48q0 50 37.5 80.5t87.5 30.5q56 0 94 -30t38 -78zM608 165q-27 0 -44.5 -13.5t-17.5 -38.5q0 -23 16 -35.5t42 -12.5q65 0 65 51q0 22 -17 35.5t-44 13.5zM559 270q0 -19 13.5 -31.5t34.5 -12.5q24 0 38.5 13.5t14.5 34.5q0 17 -15 29t-38 12
q-20 0 -34 -12.5t-14 -32.5zM204 607q-20 0 -64.5 -0.5t-69.5 -0.5q-38 0 -38 39q0 35 39 35q32 0 100 0.5t100 0.5q36 0 36 -37q0 -19 -18 -46q-67 -95 -102 -191q-12 -33 -24 -74q-4 -19 -13 -27.5t-29 -8.5q-21 0 -32 11t-9 29q5 30 26 85q39 99 98 185z" />
    <glyph glyph-name="arrowleft" unicode="&#x2190;" horiz-adv-x="717" 
d="M37 239q0 30 25 57l177 167q13 11 30 11q21 0 34 -14.5t13 -35.5q0 -4 -1 -8t-2.5 -6.5t-5 -6.5t-4.5 -5.5t-6 -5.5t-6 -5l-114 -103l456 3q46 0 46 -48q0 -23 -12.5 -35.5t-33.5 -12.5l-218 2l-237 2l117 -102q24 -20 24 -40t-14 -33.5t-35 -13.5q-16 0 -31 11l-176 165
q-26 20 -26 57z" />
    <glyph glyph-name="arrowup" unicode="&#x2191;" horiz-adv-x="550" 
d="M276 686q32 0 61 -31l162 -175q13 -13 13 -29q0 -21 -13 -34t-35 -13q-18 0 -39 23l-103 117l2 -499q0 -47 -48 -47t-48 46l4 499l-108 -127q-17 -22 -40 -22q-21 0 -34.5 13.5t-13.5 34.5q0 14 14 30l169 187q22 27 57 27z" />
    <glyph glyph-name="arrowright" unicode="&#x2192;" horiz-adv-x="717" 
d="M679 240q0 -38 -26 -57l-178 -169q-14 -12 -31 -12q-21 0 -35.5 14t-14.5 34q0 19 25 40l119 106l-237 -2l-218 -2q-21 0 -33.5 12.5t-12.5 35.5q0 48 46 48l457 -3l-119 106q-24 22 -24 38q0 21 13 35.5t34 14.5q17 0 30 -11l180 -171q25 -25 25 -57z" />
    <glyph glyph-name="arrowdown" unicode="&#x2193;" horiz-adv-x="550" 
d="M277 -5q-38 0 -57 26l-173 191q-14 14 -14 30q0 21 14.5 35t34.5 14q23 0 41 -24l110 -130l-4 500q0 46 48 46q47 0 47 -47l-2 -500l105 119q22 24 39 24q22 0 36 -13t14 -35q0 -14 -13 -29l-165 -177q-30 -30 -61 -30z" />
    <glyph glyph-name="partialdiff" unicode="&#x2202;" horiz-adv-x="559" 
d="M225 622q-34 10 -34 43q0 34 27.5 47t65.5 1q94 -26 167 -117t74 -235q0 -89 -15 -152q-24 -105 -91 -160.5t-162 -55.5q-92 0 -153 55t-62 144q0 100 68 176.5t171 77.5q41 2 77.5 -16.5t56.5 -53.5q-4 93 -54.5 159t-135.5 87zM287 350q-57 0 -97.5 -41t-40.5 -100
q-1 -54 29.5 -86t77.5 -32q54 0 96 37t47 93q5 55 -27 92t-85 37z" />
    <glyph glyph-name="Delta" unicode="&#x2206;" horiz-adv-x="636" 
d="M566 0q-354 0 -494 -1q-25 0 -40.5 14t-15.5 38q0 20 17 56l101 229l123 306q15 39 61 39q50 0 65 -41l146 -362l75 -177q14 -36 14 -53q0 -20 -13.5 -34t-38.5 -14zM319 539l-173 -441q35 0 169 -0.5t173 -0.5z" />
    <glyph glyph-name="product" unicode="&#x220f;" horiz-adv-x="572" 
d="M386 583h-55l-147 -1v-51q0 -147 3 -570q1 -59 -58 -59q-53 0 -52 55q0 61 1 232t1 232q0 45 -2 163q-2 46 16 71.5t62 24.5q42 0 131.5 -0.5t129.5 -0.5q38 0 57 -25t19 -67v-55q0 -8 4 -570q1 -60 -59 -60q-52 0 -51 56q0 62 0.5 232t0.5 231z" />
    <glyph glyph-name="summation" unicode="&#x2211;" horiz-adv-x="542" 
d="M285 293l-197 245q-15 17 -22 26.5t-13 24.5t-6 33q0 25 17 39.5t44 16.5h67q72 0 165 1t108 1q53 0 55 -46q0 -48 -41 -49h-286l180 -224q30 -32 31 -64q0 -6 -0.5 -12t-2.5 -11.5t-3 -9.5t-4.5 -9.5t-5 -8.5t-5 -8t-5 -6.5t-5.5 -6.5t-5 -6l-181 -230q41 0 247 2
q38 2 47 2q46 0 46 -48q0 -54 -57 -54h-299q-61 0 -83.5 14.5t-22.5 50.5t44 86z" />
    <glyph glyph-name="minus" unicode="&#x2212;" 
d="M73 221q-23 0 -33 15t-10 35q0 47 54 47q8 0 59 -0.5t80 -0.5q39 0 110 0.5t82 0.5q44 0 44 -49q0 -47 -54 -48h-332z" />
    <glyph glyph-name="uni2215" unicode="&#x2215;" horiz-adv-x="446" 
d="M364 653q16 27 36 27q15 0 25.5 -10t10.5 -24t-10 -31q-9 -16 -66.5 -109t-87.5 -145l-201 -343q-13 -22 -33 -22q-13 0 -25 10t-12 26q0 13 11 31z" />
    <glyph glyph-name="uni2219" unicode="&#x2219;" horiz-adv-x="219" 
d="M106 173q-29 0 -47.5 18.5t-18.5 46.5q0 30 20 49.5t51 19.5q29 0 48.5 -19t19.5 -48q0 -31 -20 -49t-53 -18z" />
    <glyph glyph-name="radical" unicode="&#x221a;" horiz-adv-x="639" 
d="M144 365l-67 -16q-27 -5 -45 7t-19 41q-1 43 49 54l86 21q33 6 50 -3.5t31 -45.5q3 -9 19 -52t39.5 -104t53.5 -133q2 5 19.5 59t25.5 77l122 374q13 42 51 43q24 0 40.5 -12.5t16.5 -34.5q0 -12 -15 -54l-121 -337l-69 -185q-14 -36 -28.5 -51.5t-42.5 -15.5
q-30 0 -43.5 14t-27.5 49z" />
    <glyph glyph-name="infinity" unicode="&#x221e;" horiz-adv-x="718" 
d="M202 453q91 0 150 -104q27 49 68 80t91 32q82 0 131.5 -53t49.5 -135q0 -84 -46.5 -138t-126.5 -54q-91 0 -168 110q-64 -104 -159 -104q-72 1 -119.5 53t-47.5 128q0 80 50.5 132.5t126.5 52.5zM505 367q-32 0 -61.5 -28t-48.5 -68q22 -35 53.5 -65.5t60.5 -30.5
q40 0 62.5 26t22.5 67q0 43 -23.5 71.5t-65.5 27.5zM200 179q33 0 62 30t45 64q-50 88 -107 88q-35 0 -59 -25.5t-24 -65.5q0 -41 22 -66t61 -25z" />
    <glyph glyph-name="integral" unicode="&#x222b;" horiz-adv-x="340" 
d="M256 693q20 0 34.5 -13.5t14.5 -36.5q0 -47 -40 -49q-8 0 -20 1t-25 0q-50 -1 -39 -142q4 -48 39.5 -187.5t36.5 -201.5q0 -79 -31 -133q-14 -26 -49.5 -47t-78.5 -21q-26 0 -44.5 13t-19.5 35q-1 26 11 41.5t31 15.5q6 0 18.5 -1.5t20.5 -1.5q51 -2 35 121
q-16 88 -37.5 186.5t-29.5 144.5t-8 86q0 39 18 79.5t44 60.5q57 50 119 50z" />
    <glyph glyph-name="approxequal" unicode="&#x2248;" 
d="M129 325q-20 -27 -49 -27q-20 0 -32.5 16.5t-8.5 38.5q9 35 44 61.5t81 26.5q35 0 61.5 -14.5t47.5 -29t43 -15.5q30 0 46 28q18 24 45 24q19 0 32 -14t11 -32q-16 -95 -116 -95q-40 0 -85 29t-69 30q-35 0 -51 -27zM128 130q-1 -1 -3.5 -4t-3.5 -4.5t-3.5 -4.5t-4 -4
t-4.5 -3.5t-5.5 -3.5t-6.5 -2t-8 -1.5t-9 -0.5q-20 0 -31.5 16t-8.5 37q8 36 40 61.5t80 25.5q43 0 87.5 -27.5t67.5 -28.5q32 0 47 27q22 25 45 25q20 0 33.5 -14t11.5 -34q-6 -43 -37 -68t-80 -25q-37 0 -83 27.5t-71 28.5q-35 0 -53 -23z" />
    <glyph glyph-name="notequal" unicode="&#x2260;" 
d="M405 114h-176l-19 -52q-10 -30 -35 -30q-16 0 -27.5 9t-11.5 24q0 6 3 15l12 34h-78q-23 0 -33 15t-10 35q0 47 54 47h102l41 112h-154q-22 0 -32.5 15t-10.5 35q0 23 14.5 35.5t39.5 12.5l179 -1l21 58q11 27 34 27q13 0 25.5 -8.5t12.5 -21.5t-5 -23l-12 -32h76
q44 0 44 -48t-54 -49h-101l-40 -112h151q44 0 44 -49q0 -47 -54 -48z" />
    <glyph glyph-name="lessequal" unicode="&#x2264;" 
d="M74 0q-43 0 -43 49q0 45 54 45q8 0 59 -0.5t80 -0.5h192q44 0 44 -46t-54 -47h-332zM427 504q-7 -4 -130 -64t-159 -79q38 -19 153.5 -70t145.5 -68q16 -11 16 -30q0 -21 -13 -36t-34 -14q-14 0 -30 9l-305 151q-40 20 -40 60q0 37 40 58l297 155q17 11 36 11
q18 -1 30 -16t12 -36t-19 -31z" />
    <glyph glyph-name="greaterequal" unicode="&#x2265;" 
d="M415 0h-332q-54 1 -54 47t44 46h192q29 0 80 0.5t59 0.5q54 0 54 -45q0 -49 -43 -49zM63 504q-20 10 -20 32q0 20 12 35t30 16q19 0 36 -11l297 -155q40 -21 40 -58q0 -40 -40 -60l-305 -151q-20 -9 -30 -9q-21 -1 -34 14t-13 36q0 20 17 30q30 17 145.5 68t152.5 70
q-36 19 -161 80.5t-127 62.5z" />
    <glyph glyph-name="star" unicode="&#x22c6;" horiz-adv-x="536" 
d="M472 345q15 1 24 -7t9 -20q0 -13 -21 -29q-15 -11 -58.5 -39t-59.5 -39q41 -80 71 -148q3 -9 3 -12q0 -14 -10 -23t-21 -9q-9 0 -17 5q-21 18 -63.5 58t-60.5 55q-16 -14 -47.5 -45t-45.5 -43q-4 -4 -11 -10t-10 -8.5t-7.5 -6t-8 -4.5t-7.5 -1q-13 0 -23 8.5t-10 21.5
q0 5 2 13q12 28 36.5 77.5t33.5 69.5q0 3 -3 7q-20 12 -58 36.5t-65 40.5q-13 9 -13 22q0 12 7.5 21.5t18.5 8.5q9 0 61.5 -4t77.5 -4q6 0 15 30.5t17.5 71t10.5 46.5q8 26 30 26q28 0 31 -23q6 -29 18 -84.5t14 -66.5q81 2 140 8z" />
    <glyph glyph-name="triagup" unicode="&#x25b2;" horiz-adv-x="456" 
d="M182 412q1 2 3 4.5t3 3.5t2.5 3t3 3.5t3.5 2.5l4 2q2 1 4.5 1.5t5.5 1t7 0.5q23 0 34 -20q19 -32 50 -94t47 -88q8 -13 19 -31t16.5 -27.5t13.5 -22.5t11.5 -20.5t7.5 -15.5t5.5 -14t1.5 -11q0 -15 -11 -26t-26 -11q-7 0 -16 3.5t-15 7t-15.5 10t-13.5 8.5q-43 27 -93 27
q-9 0 -18 -1l-15 -3q-6 -1 -15.5 -5t-14 -6t-16 -7.5t-15.5 -7.5q-5 -3 -16.5 -9t-18.5 -10t-17.5 -7t-19.5 -3q-17 0 -27 11.5t-10 25.5q0 9 7 23l51 98q30 52 93 204z" />
    <glyph glyph-name="triagrt" unicode="&#x25ba;" horiz-adv-x="442" 
d="M385 281q1 -1 6.5 -5t6.5 -5.5t4 -5.5t3.5 -8.5t0.5 -11.5q0 -23 -19 -34q-11 -7 -74 -42.5t-93 -56.5q-114 -79 -145 -79q-15 0 -26 11.5t-11 26.5q0 7 3.5 16t6 14.5t9.5 16.5l9 13q29 48 29 97q0 13 -3.5 27t-5.5 20t-12 25.5t-11 22.5q-3 5 -9 17l-9 19q-4 7 -7 17.5
t-3 19.5q0 17 11 27t25 10q8 0 22 -7l103 -52q78 -46 189 -93z" />
    <glyph glyph-name="triagdn" unicode="&#x25bc;" horiz-adv-x="444" 
d="M182 78q-48 115 -93 194l-51 98q-7 14 -7 23q0 14 10 25.5t27 11.5q12 0 23 -4t29 -14t20 -11q4 -2 15.5 -7.5t16 -7.5t14 -6t15.5 -5l15 -2q9 -2 18 -2q50 0 93 27q4 2 13.5 8.5t15.5 10t15 7t16 3.5q15 0 26 -11t11 -26q0 -5 -1.5 -11t-5.5 -14t-7.5 -15.5t-11.5 -20.5
t-13.5 -22.5t-16.5 -27.5t-19 -31l-97 -172q-11 -20 -34 -20q-6 0 -10.5 1t-7 1.5t-5.5 3.5t-4 4.5t-4.5 6t-4.5 5.5z" />
    <glyph glyph-name="triaglf" unicode="&#x25c4;" horiz-adv-x="442" 
d="M56 281q118 51 191 93l101 52q14 7 22 7q14 0 25 -10t11 -27q0 -12 -3.5 -23t-13.5 -29.5t-11 -20.5l-10 -19q-6 -13 -8.5 -19t-6.5 -16.5t-5.5 -20t-1.5 -20.5q0 -49 29 -97l9 -13q7 -11 9.5 -16.5t6 -14.5t3.5 -16q0 -15 -11.5 -26.5t-25.5 -11.5q-17 0 -65.5 28.5
t-79.5 49.5q-23 16 -49 31.5t-61.5 36t-56.5 32.5q-19 11 -19 34q0 7 0.5 11.5t3.5 8.5t4 5.5t6.5 5.5t6.5 5z" />
    <glyph glyph-name="lozenge" unicode="&#x25ca;" horiz-adv-x="538" 
d="M53 405q84 135 130 216q20 35 38.5 51t44.5 16q30 1 46.5 -12t39.5 -50l143 -237q13 -26 13 -42q0 -23 -13 -47l-151 -248q-17 -30 -33 -43.5t-44 -13.5q-26 0 -43 13.5t-33 41.5l-130 215q-1 2 -6 10t-7.5 12.5t-6.5 12.5t-6 14t-3.5 14t-1.5 15q0 29 23 62zM269 105
l136 239l-136 240l-138 -242z" />
    <glyph glyph-name="uni261A" unicode="&#x261a;" horiz-adv-x="1031" 
d="M975 417q0 -21 -0.5 -58t-0.5 -58q0 -37 1 -111t1 -111q0 -14 -1 -23.5t-7 -16t-9 -9.5t-16 -4.5t-17.5 -2t-24.5 -0.5q-19 -1 -58 -1h-7q-24 0 -34 1t-20.5 6.5t-14 17.5t-3.5 34q-57 -1 -148 -25q-97 -27 -193 -27q-21 0 -40.5 3t-41 10.5t-34.5 23.5t-13 38q0 13 6 21
q-26 6 -42 25t-16 44q0 19 16 27q-23 8 -39.5 23t-16.5 36q0 31 13 40q-65 0 -99 1q-97 2 -97 66q0 10 2 18t8 14l9 9q4 4 13.5 6.5t14 4t17 2t16.5 0.5h19h16q152 0 271 -3q-22 8 -38.5 31t-16.5 40q0 29 17 46.5t44 17.5q15 0 23 -6q97 -67 160 -98q24 -12 57 -23
q59 -22 124 -25q7 30 55 30q18 0 54 -1.5t53 -1.5q12 0 25 -9.5t13 -21.5z" />
    <glyph glyph-name="uni261B" unicode="&#x261b;" horiz-adv-x="1031" 
d="M56 417q0 12 13 21.5t25 9.5q18 0 54 1.5t53 1.5q48 0 55 -30q65 3 124 25q33 11 57 23q63 31 160 98q8 6 23 6q27 0 44 -17.5t17 -46.5q0 -17 -16.5 -40t-38.5 -31q118 3 271 3h15h16q5 0 15.5 -0.5t15.5 -1.5t13.5 -2.5t12.5 -4.5l11 -7q6 -4 9 -9.5t5 -12.5t2 -16
q0 -64 -97 -66q-34 -1 -99 -1q13 -9 13 -40q0 -21 -16.5 -36t-39.5 -23q16 -8 16 -27q0 -25 -16 -44t-42 -25q6 -8 6 -21q0 -22 -13 -38t-34.5 -23.5t-41 -10.5t-40.5 -3q-96 0 -193 27q-91 24 -148 25q0 -41 -14 -50t-58 -9h-4h-3q-39 0 -58 1q-50 1 -61 9q-14 11 -14 47
q0 37 1 111t1 111q0 21 -0.5 58t-0.5 58z" />
    <glyph glyph-name="uni261C" unicode="&#x261c;" horiz-adv-x="1031" 
d="M975 417q0 -21 -0.5 -58t-0.5 -58q0 -37 1 -111t1 -111q0 -14 -1 -23.5t-7 -16t-9 -9.5t-16 -4.5t-17.5 -2t-24.5 -0.5q-19 -1 -58 -1h-7q-24 0 -34 1t-20.5 6.5t-14 17.5t-3.5 34q-57 -1 -148 -25q-101 -28 -222 -28q-20 0 -39.5 3t-39.5 11t-32.5 24t-12.5 38
q0 14 5 21q-26 6 -41.5 25t-15.5 44q0 20 15 27q-56 19 -56 57q0 21 13 30q-25 0 -38.5 0.5t-37 2.5t-37.5 7t-29 13.5t-22 22.5t-7 33q0 28 20.5 43t41.5 17.5t53 2.5q45 0 131 -3.5t111 -4.5q-29 17 -29 60q0 29 17 49.5t43 20.5q15 0 24 -5q124 -74 163 -93
q24 -12 57 -23q68 -25 124 -28q4 17 17.5 22.5t37.5 5.5q18 0 54 -1.5t54 -1.5q12 0 24.5 -9.5t12.5 -21.5zM315 94q0 -7 4.5 -11.5t13 -7.5t17 -4.5t20.5 -2t19.5 -1t17.5 0t12 0.5q70 0 116 11q18 4 62.5 15t78.5 17t63 6q17 0 25 -1q6 7 6 102v134v31q-66 7 -146 37
q-86 30 -205 109q-26 -1 -26 -30q0 -20 11.5 -36.5t23 -25t32.5 -20.5q5 -3 7 -4q-12 -6 -33 -6q-44 0 -137 2t-137 2q-3 0 -21 0.5t-27 0t-22 -2.5t-19.5 -8t-6.5 -16q0 -18 11 -27t22 -10.5t30 -1.5h276q6 0 11.5 -4.5t5.5 -10.5q0 -16 -17 -16q-51 -2 -126 -2
q-21 0 -31 -1.5t-19 -9.5t-9 -24q0 -10 7.5 -16.5t25 -8.5t27 -2.5t32.5 -0.5q20 0 48 0.5t49 0.5q15 0 15 -13q0 -17 -15 -17q-22 0 -52 -1.5t-51 -1.5q-42 0 -42 -32q0 -26 68 -26q22 0 51 1.5t42 1.5q22 0 22 -18q0 -4 -2.5 -7t-8 -4.5t-10 -2t-13 -1t-12.5 -0.5
q-14 -1 -28 -1.5t-20 -0.5q-20 -1 -28 -8t-8 -26z" />
    <glyph glyph-name="uni261E" unicode="&#x261e;" horiz-adv-x="1031" 
d="M56 417q0 12 12.5 21.5t24.5 9.5q17 0 54 1.5t54 1.5q24 0 37.5 -5.5t17.5 -22.5q56 3 124 28q33 11 57 23q39 19 163 93q9 5 24 5q26 0 43 -20.5t17 -49.5q0 -43 -29 -60q25 1 111 4.5t131 3.5q24 0 39.5 -1.5t35.5 -7t30 -19.5t10 -35q0 -19 -7 -33t-22 -22.5
t-29 -13.5t-37.5 -7t-37 -2.5t-38.5 -0.5q12 -8 12 -30q0 -38 -55 -57q15 -7 15 -27q0 -25 -15.5 -44t-41.5 -25q5 -7 5 -21q0 -22 -12.5 -38t-32.5 -24t-39.5 -11t-39.5 -3q-121 0 -222 28q-91 24 -148 25q0 -41 -14 -50t-58 -9h-4h-3q-39 0 -58 1q-50 1 -61 9
q-14 11 -14 47q0 37 1 111t1 111q0 21 -0.5 58t-0.5 58zM716 94q0 19 -8.5 26t-28.5 8q-6 0 -19.5 0.5t-27.5 1.5q-4 0 -12.5 0.5t-13 1t-10 2t-8 4.5t-2.5 7q0 18 22 18q13 0 42 -1.5t51 -1.5q68 0 68 26q0 32 -42 32q-21 0 -51 1.5t-52 1.5q-15 0 -15 17q0 13 15 13
q20 0 48 -0.5t49 -0.5q23 0 32.5 0.5t27 2.5t25 8.5t7.5 16.5q0 16 -9 24t-19 9.5t-31 1.5q-75 0 -126 2q-17 0 -17 16q0 6 5.5 10.5t11.5 4.5h276q19 0 30 1.5t22 10.5t11 27q0 10 -6.5 16t-19.5 8t-22 2.5t-27 0t-21 -0.5q-45 0 -137 -2t-137 -2q-21 0 -33 6q48 28 61 45
q13 18 13 41q0 29 -26 30q-119 -79 -205 -109q-80 -30 -146 -37v-31v-134q0 -95 6 -102q8 1 25 1q29 0 63 -6t78.5 -17t62.5 -15q46 -11 116 -11q2 0 12 -0.5t17.5 0t19.5 1t20.5 2t17 4.5t13 7.5t4.5 11.5z" />
    <glyph glyph-name="smileface" unicode="&#x263a;" horiz-adv-x="757" 
d="M381 686q136 0 231 -96t95 -242q0 -152 -91 -254.5t-235 -102.5q-130 0 -230.5 93t-100.5 238q0 162 98.5 263t232.5 101zM659 345q-1 128 -82 210t-204 82q-121 0 -198 -86.5t-77 -219.5q0 -128 86 -210t205 -82q115 0 192.5 92t77.5 214zM232 309q16 0 20 -24
q6 -46 43.5 -73t88.5 -27q52 0 84.5 28t42.5 71q5 24 22 24q26 0 26 -20v-3q-12 -67 -59.5 -107.5t-113.5 -40.5q-70 0 -123 42.5t-56 108.5q0 21 25 21zM282 389q-18 0 -30.5 12.5t-12.5 31.5t14 31.5t34 12.5t32 -13.5t12 -32.5q0 -20 -14 -31t-35 -11zM475 390
q-18 0 -30.5 12.5t-12.5 31.5t14 31.5t34 12.5t32 -13.5t12 -32.5q0 -20 -14 -31t-35 -11z" />
    <glyph glyph-name="heart" unicode="&#x2665;" horiz-adv-x="607" 
d="M427 473q60 0 96 -33.5t36 -89.5q0 -37 -27 -80t-61 -76.5t-73.5 -78.5t-58.5 -80q-14 -26 -32 -26q-20 0 -32 26q-14 29 -53.5 68.5t-77 71.5t-67 76.5t-29.5 85.5q0 57 38.5 92.5t89.5 35.5q92 0 127 -80q36 88 124 88z" />
    <glyph glyph-name="commaaccent" unicode="&#xf6c3;" horiz-adv-x="193" 
d="M38 -199q0 8 14 22.5t18 23.5q4 7 -9.5 21.5t-13.5 29.5q0 21 15 35.5t38 14.5t39 -14.5t16 -38.5q0 -60 -67 -110q-16 -8 -26 -8t-17 6.5t-7 17.5z" />
    <glyph glyph-name="u1F426" unicode="&#x1f426;" horiz-adv-x="829" 
d="M283 12q-5 1 -11 6q-12 10 -26 13l-39 -23q-5 -4 -15.5 -6.5t-17.5 2.5q-5 24 9 32l12 6l-23 -3q-6 -1 -7 3q-1 14 10 19t39 7q56 11 63 61v1q1 1 2 1q-91 24 -135 106t-38 183q2 13 9 29q-22 0 -67 19q-28 11 -34 27q-4 17 5 27q16 13 46 31l8 5v11q37 102 141 102
q78 -5 130 -79l70 -66q34 -27 55 -42.5t51.5 -29t57.5 -13.5q19 0 51 13t56 32q20 16 31 16h9h13q4 0 14 -0.5t15.5 -1.5t14 -2.5t13.5 -4.5t10.5 -6.5t8 -9t2.5 -11.5q-31 -48 -139 -124q-74 -55 -89 -73v1q-55 -105 -131 -132q4 -50 4 -80q0 -15 20 -21q2 -2 7 -2
q25 -8 32 -15t7 -19q-1 -8 -9 -12t-12 -3q-9 12 -37 18l-12 2q0 -39 -23 -39q-16 0 -18 41q-21 -2 -40 -12q-14 -6 -18 -6q-10 0 -10 19q2 19 33 23q17 5 22 8q6 3 10.5 8t7 8.5t3.5 11t1 10.5v11v9q0 10 -3 30q-40 -6 -79 -5q-19 0 -27 1q-1 -13 -13.5 -33.5t-29.5 -31.5
q13 -6 20 -14q17 -20 -10 -33zM751 462l-31 4q-35 -27 -71 -43q-39 -18 -75 -18q-28 0 -58 10q-85 23 -184 122l-9 10q-28 32 -43 47t-37.5 28.5t-43.5 13.5q-29 0 -53.5 -23.5t-24.5 -51.5l-1 -12v-1l-6 -4q-12 -5 -46 -30l-9 -7q40 -22 76 -25q11 0 11 -14v-68
q0 -140 117 -214q44 -24 114 -24q118 0 155 99q-25 -9 -67 -9q-154 0 -219 157q26 16 40 -4q41 -50 92.5 -81.5t99.5 -31.5q47 0 84 19q62 31 113 71q28 22 57.5 51t18.5 29zM187 596q10 3 19.5 -0.5t13.5 -12.5q4 -10 0 -20.5t-16 -14.5q-26 -8 -34 16q-7 24 17 32z" />
    <glyph glyph-name="a.alt" horiz-adv-x="515" 
d="M238 370q-42 0 -89 -19q-15 -6 -28 -6q-20 0 -31.5 13.5t-11.5 35.5q0 30 42 48q62 25 131 25q95 0 147 -53.5t53 -142.5q0 -19 0.5 -57t1.5 -55q0 -37 2.5 -77.5t2.5 -44.5q-1 -17 -15.5 -28.5t-38.5 -11.5q-38 0 -47 29q-2 34 -3 36q-51 -70 -143 -70q-79 0 -122.5 35
t-43.5 104q0 63 49.5 100.5t133.5 37.5q65 0 117 -13q1 8 1 9v6q-1 48 -29.5 73.5t-78.5 25.5zM148 138q0 -64 88 -64q41 0 77 25.5t35 55.5v35q-47 10 -104 10q-96 0 -96 -62z" />
    </font>
</defs>
</svg>
